<svg xmlns="http://www.w3.org/2000/svg" xmlns:xlink="http://www.w3.org/1999/xlink" width="1000" zoomAndPan="magnify" viewBox="0 0 750 757.92" height="1000" preserveAspectRatio="xMidYMid meet" version="1.0"><defs><clipPath id="77bf0835b3"><path d="M 5.375 8 L 114 8 L 114 747 L 5.375 747 Z M 5.375 8 " clip-rule="nonzero"/></clipPath></defs><path fill="#ffffff" d="M 132.566406 395.710938 C 107.359375 384.65625 106.558594 372.015625 130.835938 359.492188 L 709.390625 18.441406 C 734.449219 2.128906 744.300781 6.667969 743.527344 29.882812 L 743.527344 727.699219 C 744.769531 748.707031 731.734375 751.820312 710.886719 736.636719 Z M 132.566406 395.710938 " fill-opacity="1" fill-rule="evenodd"/><g clip-path="url(#77bf0835b3)"><path fill="#ffffff" d="M 5.136719 692.109375 C 5.136719 721.914062 29.339844 746.121094 59.152344 746.121094 C 88.949219 746.121094 113.152344 721.914062 113.152344 692.109375 L 113.152344 62.738281 C 113.152344 32.933594 88.949219 8.734375 59.152344 8.734375 C 29.339844 8.734375 5.136719 32.933594 5.136719 62.738281 Z M 5.136719 692.109375 " fill-opacity="1" fill-rule="evenodd"/></g></svg>