<svg xmlns="http://www.w3.org/2000/svg" xmlns:xlink="http://www.w3.org/1999/xlink" width="1000" zoomAndPan="magnify" viewBox="0 0 750 749.999995" height="1000" preserveAspectRatio="xMidYMid meet" version="1.0"><defs><clipPath id="2fbda9c7c3"><path d="M 38.25 0 L 711.75 0 C 721.894531 0 731.625 4.03125 738.796875 11.203125 C 745.96875 18.375 750 28.105469 750 38.25 L 750 719.914062 C 750 730.058594 745.96875 739.785156 738.796875 746.960938 C 731.625 754.132812 721.894531 758.164062 711.75 758.164062 L 38.25 758.164062 C 28.105469 758.164062 18.375 754.132812 11.203125 746.960938 C 4.03125 739.785156 0 730.058594 0 719.914062 L 0 38.25 C 0 28.105469 4.03125 18.375 11.203125 11.203125 C 18.375 4.03125 28.105469 0 38.25 0 Z M 38.25 0 " clip-rule="nonzero"/></clipPath><clipPath id="e7c45ac30a"><path d="M 0 0 L 750 0 L 750 750 L 0 750 Z M 0 0 " clip-rule="nonzero"/></clipPath><clipPath id="2970b7b82e"><path d="M 38.25 0 L 711.75 0 C 721.894531 0 731.625 4.03125 738.796875 11.203125 C 745.96875 18.375 750 28.105469 750 38.25 L 750 719.914062 C 750 730.058594 745.96875 739.785156 738.796875 746.960938 C 731.625 754.132812 721.894531 758.164062 711.75 758.164062 L 38.25 758.164062 C 28.105469 758.164062 18.375 754.132812 11.203125 746.960938 C 4.03125 739.785156 0 730.058594 0 719.914062 L 0 38.25 C 0 28.105469 4.03125 18.375 11.203125 11.203125 C 18.375 4.03125 28.105469 0 38.25 0 Z M 38.25 0 " clip-rule="nonzero"/></clipPath><clipPath id="285a977bd1"><rect x="0" width="750" y="0" height="750"/></clipPath><clipPath id="dda38ba10e"><path d="M 27.246094 25 L 726.246094 25 L 726.246094 731 L 27.246094 731 Z M 27.246094 25 " clip-rule="nonzero"/></clipPath><clipPath id="329e83a1a6"><path d="M 110.972656 112.628906 L 642.570312 112.628906 L 642.570312 644.230469 L 110.972656 644.230469 Z M 110.972656 112.628906 " clip-rule="nonzero"/></clipPath><clipPath id="54897d1014"><path d="M 149.222656 112.628906 L 604.320312 112.628906 C 614.464844 112.628906 624.195312 116.660156 631.367188 123.832031 C 638.542969 131.007812 642.570312 140.734375 642.570312 150.878906 L 642.570312 605.980469 C 642.570312 616.125 638.542969 625.851562 631.367188 633.027344 C 624.195312 640.199219 614.464844 644.230469 604.320312 644.230469 L 149.222656 644.230469 C 139.078125 644.230469 129.347656 640.199219 122.175781 633.027344 C 115.003906 625.851562 110.972656 616.125 110.972656 605.980469 L 110.972656 150.878906 C 110.972656 140.734375 115.003906 131.007812 122.175781 123.832031 C 129.347656 116.660156 139.078125 112.628906 149.222656 112.628906 Z M 149.222656 112.628906 " clip-rule="nonzero"/></clipPath><clipPath id="20110f4a84"><path d="M 0.972656 0.628906 L 532.570312 0.628906 L 532.570312 532.230469 L 0.972656 532.230469 Z M 0.972656 0.628906 " clip-rule="nonzero"/></clipPath><clipPath id="f4884a93ba"><path d="M 39.222656 0.628906 L 494.320312 0.628906 C 504.464844 0.628906 514.195312 4.660156 521.367188 11.832031 C 528.542969 19.007812 532.570312 28.734375 532.570312 38.878906 L 532.570312 493.980469 C 532.570312 504.125 528.542969 513.851562 521.367188 521.027344 C 514.195312 528.199219 504.464844 532.230469 494.320312 532.230469 L 39.222656 532.230469 C 29.078125 532.230469 19.347656 528.199219 12.175781 521.027344 C 5.003906 513.851562 0.972656 504.125 0.972656 493.980469 L 0.972656 38.878906 C 0.972656 28.734375 5.003906 19.007812 12.175781 11.832031 C 19.347656 4.660156 29.078125 0.628906 39.222656 0.628906 Z M 39.222656 0.628906 " clip-rule="nonzero"/></clipPath><clipPath id="16334898ce"><rect x="0" width="533" y="0" height="533"/></clipPath><clipPath id="e6305bd18d"><path d="M 118.714844 286.570312 L 632.464844 286.570312 L 632.464844 470.320312 L 118.714844 470.320312 Z M 118.714844 286.570312 " clip-rule="nonzero"/></clipPath><clipPath id="91a14d8a88"><path d="M 3 0.570312 L 513 0.570312 L 513 184.285156 L 3 184.285156 Z M 3 0.570312 " clip-rule="nonzero"/></clipPath><clipPath id="83b27f0729"><rect x="0" width="515" y="0" height="185"/></clipPath></defs><g clip-path="url(#2fbda9c7c3)"><g transform="matrix(1, 0, 0, 1, 0, -0.000000000000042435)"><g clip-path="url(#285a977bd1)"><g clip-path="url(#e7c45ac30a)"><g clip-path="url(#2970b7b82e)"><rect x="-165" width="1080" fill="#c77dff" height="1079.999992" y="-164.999999" fill-opacity="1"/></g></g></g></g></g><g clip-path="url(#dda38ba10e)"><path fill="#000000" d="M 523.257812 25.886719 L 230.511719 25.886719 C 103.253906 25.886719 27.347656 102.4375 27.347656 230.785156 L 27.347656 525.746094 C 27.347656 654.371094 103.253906 730.925781 230.511719 730.925781 L 522.980469 730.925781 C 650.238281 730.925781 726.144531 654.371094 726.144531 526.027344 L 726.144531 230.785156 C 726.421875 102.4375 650.515625 25.886719 523.257812 25.886719 Z M 474.421875 397.121094 L 351.070312 521.523438 C 350.457031 522.125 349.816406 522.699219 349.144531 523.238281 C 348.476562 523.78125 347.78125 524.289062 347.058594 524.761719 C 346.339844 525.234375 345.601562 525.671875 344.835938 526.070312 C 344.074219 526.472656 343.292969 526.832031 342.496094 527.15625 C 341.699219 527.480469 340.886719 527.765625 340.0625 528.007812 C 339.234375 528.253906 338.398438 528.457031 337.554688 528.621094 C 336.707031 528.78125 335.855469 528.902344 335 528.980469 C 334.140625 529.058594 333.28125 529.097656 332.421875 529.09375 C 331.558594 529.085938 330.703125 529.039062 329.84375 528.949219 C 328.988281 528.859375 328.140625 528.730469 327.296875 528.554688 C 326.453125 528.382812 325.617188 528.167969 324.796875 527.914062 C 323.972656 527.660156 323.164062 527.367188 322.371094 527.03125 C 321.578125 526.699219 320.800781 526.328125 320.042969 525.917969 C 319.285156 525.507812 318.550781 525.0625 317.835938 524.582031 C 317.125 524.097656 316.433594 523.582031 315.773438 523.035156 C 315.109375 522.484375 314.472656 521.90625 313.867188 521.292969 C 313.261719 520.679688 312.6875 520.042969 312.144531 519.375 C 311.597656 518.707031 311.089844 518.011719 310.613281 517.296875 C 310.136719 516.578125 309.699219 515.839844 309.296875 515.078125 C 308.890625 514.316406 308.527344 513.539062 308.199219 512.742188 C 307.871094 511.945312 307.585938 511.132812 307.339844 510.308594 C 307.089844 509.484375 306.882812 508.648438 306.71875 507.804688 C 306.554688 506.960938 306.429688 506.109375 306.347656 505.25 C 306.265625 504.394531 306.226562 503.535156 306.226562 502.671875 C 306.230469 501.8125 306.273438 500.953125 306.359375 500.097656 C 306.445312 499.238281 306.574219 498.390625 306.742188 497.546875 C 306.910156 496.699219 307.121094 495.867188 307.375 495.042969 C 307.625 494.21875 307.914062 493.410156 308.246094 492.613281 C 308.578125 491.820312 308.945312 491.042969 309.351562 490.285156 C 309.757812 489.523438 310.203125 488.789062 310.679688 488.070312 C 311.160156 487.355469 311.671875 486.667969 312.21875 486 C 312.765625 485.335938 313.34375 484.699219 313.953125 484.089844 L 418.886719 378.265625 L 313.953125 272.71875 C 313.355469 272.097656 312.789062 271.449219 312.253906 270.773438 C 311.71875 270.097656 311.21875 269.394531 310.75 268.671875 C 310.28125 267.949219 309.847656 267.203125 309.453125 266.4375 C 309.054688 265.671875 308.695312 264.890625 308.375 264.089844 C 308.050781 263.289062 307.769531 262.476562 307.523438 261.648438 C 307.28125 260.824219 307.074219 259.988281 306.910156 259.140625 C 306.746094 258.292969 306.625 257.441406 306.542969 256.582031 C 306.460938 255.722656 306.417969 254.863281 306.417969 254.003906 C 306.417969 253.140625 306.460938 252.28125 306.542969 251.421875 C 306.625 250.5625 306.746094 249.710938 306.910156 248.863281 C 307.074219 248.015625 307.28125 247.179688 307.523438 246.355469 C 307.769531 245.527344 308.050781 244.714844 308.375 243.914062 C 308.695312 243.113281 309.054688 242.332031 309.453125 241.566406 C 309.847656 240.800781 310.28125 240.054688 310.75 239.332031 C 311.21875 238.609375 311.71875 237.90625 312.253906 237.230469 C 312.789062 236.554688 313.355469 235.90625 313.953125 235.285156 C 314.566406 234.683594 315.203125 234.113281 315.871094 233.574219 C 316.539062 233.035156 317.230469 232.527344 317.945312 232.058594 C 318.660156 231.585938 319.398438 231.148438 320.15625 230.746094 C 320.914062 230.347656 321.691406 229.984375 322.484375 229.660156 C 323.277344 229.335938 324.085938 229.050781 324.90625 228.804688 C 325.730469 228.554688 326.5625 228.351562 327.402344 228.183594 C 328.242188 228.019531 329.089844 227.894531 329.945312 227.8125 C 330.796875 227.726562 331.65625 227.6875 332.511719 227.6875 C 333.371094 227.6875 334.226562 227.726562 335.078125 227.8125 C 335.933594 227.894531 336.78125 228.019531 337.621094 228.183594 C 338.464844 228.351562 339.292969 228.554688 340.117188 228.804688 C 340.9375 229.050781 341.746094 229.335938 342.539062 229.660156 C 343.332031 229.984375 344.109375 230.347656 344.867188 230.75 C 345.625 231.148438 346.363281 231.585938 347.078125 232.058594 C 347.792969 232.527344 348.484375 233.035156 349.152344 233.574219 C 349.820312 234.113281 350.460938 234.683594 351.070312 235.285156 L 474.421875 359.6875 C 475.046875 360.292969 475.644531 360.925781 476.207031 361.589844 C 476.769531 362.257812 477.296875 362.949219 477.792969 363.664062 C 478.285156 364.382812 478.742188 365.125 479.164062 365.886719 C 479.582031 366.652344 479.960938 367.433594 480.304688 368.234375 C 480.644531 369.039062 480.945312 369.855469 481.203125 370.6875 C 481.460938 371.519531 481.675781 372.363281 481.851562 373.214844 C 482.023438 374.070312 482.15625 374.929688 482.242188 375.796875 C 482.332031 376.664062 482.375 377.53125 482.375 378.40625 C 482.375 379.277344 482.332031 380.144531 482.242188 381.011719 C 482.15625 381.878906 482.027344 382.738281 481.851562 383.59375 C 481.675781 384.445312 481.460938 385.289062 481.203125 386.121094 C 480.945312 386.953125 480.644531 387.769531 480.304688 388.574219 C 479.960938 389.375 479.582031 390.15625 479.164062 390.921875 C 478.742188 391.683594 478.285156 392.425781 477.792969 393.144531 C 477.296875 393.859375 476.769531 394.550781 476.207031 395.21875 C 475.644531 395.882812 475.046875 396.515625 474.421875 397.121094 Z M 474.421875 397.121094 " fill-opacity="1" fill-rule="nonzero"/></g><g clip-path="url(#329e83a1a6)"><g clip-path="url(#54897d1014)"><g transform="matrix(1, 0, 0, 1, 110, 112)"><g clip-path="url(#16334898ce)"><g clip-path="url(#20110f4a84)"><g clip-path="url(#f4884a93ba)"><path fill="#000000" d="M 0.972656 0.628906 L 532.570312 0.628906 L 532.570312 532.230469 L 0.972656 532.230469 Z M 0.972656 0.628906 " fill-opacity="1" fill-rule="nonzero"/></g></g></g></g></g></g><g clip-path="url(#e6305bd18d)"><g transform="matrix(1, 0, 0, 1, 118, 286)"><g clip-path="url(#83b27f0729)"><g clip-path="url(#91a14d8a88)"><path fill="#c77dff" d="M 9.179688 23.160156 C 1.351562 28.472656 3.015625 34.757812 5.121094 40.757812 C 10.882812 57.386719 19.398438 72.351562 32.375 84.601562 C 73.742188 123.574219 122.734375 148.878906 177.359375 162.910156 C 233.367188 177.308594 288.644531 174.144531 342.09375 151.152344 C 367.238281 140.324219 391.816406 128.117188 417.527344 116.109375 C 416.59375 118.910156 415.742188 122.476562 414.285156 125.84375 C 404.511719 148.757812 405.363281 154.152344 422.839844 172.238281 C 426.734375 176.292969 431.355469 179.621094 436.792969 184.285156 C 439.710938 179.578125 441.902344 176.253906 443.890625 172.808594 C 465.34375 135.78125 486.148438 98.347656 508.65625 61.929688 C 514.089844 53.089844 513.601562 46.273438 510.035156 38.773438 C 502.816406 23.6875 490.121094 12.898438 476.902344 3.609375 C 472.277344 0.367188 463.640625 1.421875 457.109375 2.355469 C 409.296875 9.371094 361.277344 11.925781 313.140625 8.070312 C 298.132812 6.855469 283.332031 3.367188 267.109375 0.730469 C 265.324219 5.515625 268.285156 10.828125 271.125 15.332031 C 284.464844 36.460938 300.6875 54.0625 327.292969 57.792969 C 339.863281 59.535156 352.394531 61.402344 364.96875 63.023438 C 370.566406 63.753906 376.242188 63.917969 383.179688 64.445312 C 357.507812 92.347656 244.683594 119.070312 187.457031 111.691406 C 117.867188 102.726562 58.816406 71.90625 9.179688 23.160156 Z M 9.179688 23.160156 " fill-opacity="1" fill-rule="nonzero"/></g></g></g></g></svg>