<svg xmlns="http://www.w3.org/2000/svg" xmlns:xlink="http://www.w3.org/1999/xlink" width="1000" zoomAndPan="magnify" viewBox="0 0 750 749.999995" height="1000" preserveAspectRatio="xMidYMid meet" version="1.0"><defs><clipPath id="70d5a0303b"><path d="M 0 0 L 750 0 L 750 748.757812 L 0 748.757812 Z M 0 0 " clip-rule="nonzero"/></clipPath><clipPath id="e3d0261ce1"><path d="M 375 0 C 167.894531 0 0 167.613281 0 374.378906 C 0 581.140625 167.894531 748.757812 375 748.757812 C 582.105469 748.757812 750 581.140625 750 374.378906 C 750 167.613281 582.105469 0 375 0 Z M 375 0 " clip-rule="nonzero"/></clipPath><clipPath id="eacaf3e751"><path d="M 0 0 L 749 0 L 749 748.757812 L 0 748.757812 Z M 0 0 " clip-rule="nonzero"/></clipPath><clipPath id="718a091dc3"><path d="M 375 0 C 167.894531 0 0 167.613281 0 374.378906 C 0 581.140625 167.894531 748.757812 375 748.757812 C 582.105469 748.757812 750 581.140625 750 374.378906 C 750 167.613281 582.105469 0 375 0 Z M 375 0 " clip-rule="nonzero"/></clipPath><clipPath id="5dc6cf3613"><rect x="0" width="750" y="0" height="749"/></clipPath><clipPath id="09f69c2532"><path d="M 0.00390625 0 L 750 0 L 750 748.5 L 0.00390625 748.5 Z M 0.00390625 0 " clip-rule="nonzero"/></clipPath><clipPath id="3de46df2ab"><path d="M 375 0 C 167.894531 0 0.00390625 167.613281 0.00390625 374.371094 C 0.00390625 581.132812 167.894531 748.746094 375 748.746094 C 582.105469 748.746094 749.996094 581.132812 749.996094 374.371094 C 749.996094 167.613281 582.105469 0 375 0 Z M 375 0 " clip-rule="nonzero"/></clipPath><clipPath id="9c4c88a5b1"><path d="M 118.011719 88.738281 L 638.902344 88.738281 L 638.902344 654 L 118.011719 654 Z M 118.011719 88.738281 " clip-rule="nonzero"/></clipPath><clipPath id="9fc780172f"><path d="M 378.457031 88.738281 C 234.617188 88.738281 118.011719 215.074219 118.011719 370.921875 C 118.011719 526.765625 234.617188 653.105469 378.457031 653.105469 C 522.296875 653.105469 638.902344 526.765625 638.902344 370.921875 C 638.902344 215.074219 522.296875 88.738281 378.457031 88.738281 Z M 378.457031 88.738281 " clip-rule="nonzero"/></clipPath><clipPath id="736d550700"><path d="M 0.0117188 0.738281 L 520.902344 0.738281 L 520.902344 565 L 0.0117188 565 Z M 0.0117188 0.738281 " clip-rule="nonzero"/></clipPath><clipPath id="ed7ce1c5e8"><path d="M 260.457031 0.738281 C 116.617188 0.738281 0.0117188 127.074219 0.0117188 282.921875 C 0.0117188 438.765625 116.617188 565.105469 260.457031 565.105469 C 404.296875 565.105469 520.902344 438.765625 520.902344 282.921875 C 520.902344 127.074219 404.296875 0.738281 260.457031 0.738281 Z M 260.457031 0.738281 " clip-rule="nonzero"/></clipPath><clipPath id="2f0c742577"><rect x="0" width="521" y="0" height="566"/></clipPath><clipPath id="e8140003be"><path d="M 39.207031 47.644531 L 698.457031 47.644531 L 698.457031 706.894531 L 39.207031 706.894531 Z M 39.207031 47.644531 " clip-rule="nonzero"/></clipPath></defs><g clip-path="url(#70d5a0303b)"><g clip-path="url(#e3d0261ce1)"><g transform="matrix(1, 0, 0, 1, 0, -0.000000000000042435)"><g clip-path="url(#5dc6cf3613)"><g clip-path="url(#eacaf3e751)"><g clip-path="url(#718a091dc3)"><path fill="#000000" d="M 0 0 L 748.757812 0 L 748.757812 748.757812 L 0 748.757812 Z M 0 0 " fill-opacity="1" fill-rule="nonzero"/></g></g></g></g></g></g><g clip-path="url(#09f69c2532)"><g clip-path="url(#3de46df2ab)"><path stroke-linecap="butt" transform="matrix(0.75, 0, 0, 0.75, 0.00000265, 0.00002)" fill="none" stroke-linejoin="miter" d="M 500.000053 -0.0000266667 C 223.859397 -0.0000266667 0.0052048 223.484374 0.0052048 499.161488 C 0.0052048 774.843811 223.859397 998.328211 500.000053 998.328211 C 776.140709 998.328211 999.994901 774.843811 999.994901 499.161488 C 999.994901 223.484374 776.140709 -0.0000266667 500.000053 -0.0000266667 Z M 500.000053 -0.0000266667 " stroke="#feaf00" stroke-width="38" stroke-opacity="1" stroke-miterlimit="4"/></g></g><g clip-path="url(#9c4c88a5b1)"><g clip-path="url(#9fc780172f)"><g transform="matrix(1, 0, 0, 1, 118, 88)"><g clip-path="url(#2f0c742577)"><g clip-path="url(#736d550700)"><g clip-path="url(#ed7ce1c5e8)"><path fill="#feaf00" d="M 0.0117188 0.738281 L 520.902344 0.738281 L 520.902344 564.359375 L 0.0117188 564.359375 Z M 0.0117188 0.738281 " fill-opacity="1" fill-rule="nonzero"/></g></g></g></g></g></g><g clip-path="url(#e8140003be)"><path fill="#000000" d="M 450.398438 542.652344 L 419.035156 574.011719 L 253.652344 408.628906 L 222.296875 377.269531 L 419.035156 180.523438 L 450.398438 211.882812 L 285.011719 377.269531 Z M 368.832031 47.644531 C 186.785156 47.644531 39.207031 195.222656 39.207031 377.269531 C 39.207031 559.3125 186.785156 706.894531 368.832031 706.894531 C 550.875 706.894531 698.457031 559.3125 698.457031 377.269531 C 698.457031 195.222656 550.875 47.644531 368.832031 47.644531 " fill-opacity="1" fill-rule="nonzero"/></g></svg>