<svg xmlns="http://www.w3.org/2000/svg" xmlns:xlink="http://www.w3.org/1999/xlink" width="1000" zoomAndPan="magnify" viewBox="0 0 750 749.999995" height="1000" preserveAspectRatio="xMidYMid meet" version="1.0"><defs><clipPath id="4d5e853045"><path d="M 375.621094 0 C 168.171875 0 0 167.894531 0 375 C 0 582.105469 168.171875 750 375.621094 750 C 583.074219 750 751.246094 582.105469 751.246094 375 C 751.246094 167.894531 583.074219 0 375.621094 0 Z M 375.621094 0 " clip-rule="nonzero"/></clipPath><clipPath id="ac4171c6e1"><path d="M 0 0 L 750 0 L 750 750 L 0 750 Z M 0 0 " clip-rule="nonzero"/></clipPath><clipPath id="6c723eba3d"><path d="M 375.621094 0 C 168.171875 0 0 167.894531 0 375 C 0 582.105469 168.171875 750 375.621094 750 C 583.074219 750 751.246094 582.105469 751.246094 375 C 751.246094 167.894531 583.074219 0 375.621094 0 Z M 375.621094 0 " clip-rule="nonzero"/></clipPath><clipPath id="770f57d877"><rect x="0" width="750" y="0" height="750"/></clipPath><clipPath id="216f71ebe9"><path d="M 375.621094 0 C 168.171875 0 0 167.894531 0 375 C 0 582.105469 168.171875 750 375.621094 750 C 583.070312 750 751.242188 582.105469 751.242188 375 C 751.242188 167.894531 583.070312 0 375.621094 0 Z M 375.621094 0 " clip-rule="nonzero"/></clipPath><clipPath id="6ce29bf93b"><path d="M 118.207031 88.886719 L 639.964844 88.886719 L 639.964844 655 L 118.207031 655 Z M 118.207031 88.886719 " clip-rule="nonzero"/></clipPath><clipPath id="d04e6df1fd"><path d="M 379.085938 88.886719 C 235.007812 88.886719 118.207031 215.433594 118.207031 371.539062 C 118.207031 527.640625 235.007812 654.1875 379.085938 654.1875 C 523.164062 654.1875 639.964844 527.640625 639.964844 371.539062 C 639.964844 215.433594 523.164062 88.886719 379.085938 88.886719 Z M 379.085938 88.886719 " clip-rule="nonzero"/></clipPath><clipPath id="cad2c3e860"><path d="M 0.207031 0.886719 L 521.964844 0.886719 L 521.964844 566 L 0.207031 566 Z M 0.207031 0.886719 " clip-rule="nonzero"/></clipPath><clipPath id="f3bf01a39f"><path d="M 261.085938 0.886719 C 117.007812 0.886719 0.207031 127.433594 0.207031 283.539062 C 0.207031 439.640625 117.007812 566.1875 261.085938 566.1875 C 405.164062 566.1875 521.964844 439.640625 521.964844 283.539062 C 521.964844 127.433594 405.164062 0.886719 261.085938 0.886719 Z M 261.085938 0.886719 " clip-rule="nonzero"/></clipPath><clipPath id="e5177cd074"><rect x="0" width="522" y="0" height="567"/></clipPath><clipPath id="ff7fd68d06"><path d="M 45.359375 44.734375 L 706.109375 44.734375 L 706.109375 705.484375 L 45.359375 705.484375 Z M 45.359375 44.734375 " clip-rule="nonzero"/></clipPath></defs><g clip-path="url(#4d5e853045)"><g transform="matrix(1, 0, 0, 1, 0, -0.000000000000042435)"><g clip-path="url(#770f57d877)"><g clip-path="url(#ac4171c6e1)"><g clip-path="url(#6c723eba3d)"><rect x="-165" width="1080" fill="#d20b0b" height="1079.999992" y="-164.999999" fill-opacity="1"/></g></g></g></g></g><g clip-path="url(#216f71ebe9)"><path stroke-linecap="butt" transform="matrix(0.75, 0, 0, 0.75, 0.00000265, 0.00154516)" fill="none" stroke-linejoin="miter" d="M 500.828146 -0.00206021 C 224.229174 -0.00206021 -0.00000353333 223.857326 -0.00000353333 499.997964 C -0.00000353333 776.138603 224.229174 999.997989 500.828146 999.997989 C 777.427118 999.997989 1001.656295 776.138603 1001.656295 499.997964 C 1001.656295 223.857326 777.427118 -0.00206021 500.828146 -0.00206021 Z M 500.828146 -0.00206021 " stroke="#000000" stroke-width="38" stroke-opacity="1" stroke-miterlimit="4"/></g><g clip-path="url(#6ce29bf93b)"><g clip-path="url(#d04e6df1fd)"><g transform="matrix(1, 0, 0, 1, 118, 88)"><g clip-path="url(#e5177cd074)"><g clip-path="url(#cad2c3e860)"><g clip-path="url(#f3bf01a39f)"><path fill="#d20b0b" d="M 0.207031 0.886719 L 521.964844 0.886719 L 521.964844 565.445312 L 0.207031 565.445312 Z M 0.207031 0.886719 " fill-opacity="1" fill-rule="nonzero"/></g></g></g></g></g></g><g clip-path="url(#ff7fd68d06)"><path fill="#000000" d="M 457.484375 540.871094 L 426.054688 572.300781 L 260.292969 406.542969 L 228.867188 375.109375 L 426.054688 177.917969 L 457.484375 209.347656 L 291.722656 375.109375 Z M 375.734375 44.734375 C 193.273438 44.734375 45.359375 192.648438 45.359375 375.109375 C 45.359375 557.570312 193.273438 705.484375 375.734375 705.484375 C 558.191406 705.484375 706.109375 557.570312 706.109375 375.109375 C 706.109375 192.648438 558.191406 44.734375 375.734375 44.734375 " fill-opacity="1" fill-rule="nonzero"/></g></svg>