<svg xmlns="http://www.w3.org/2000/svg" xmlns:xlink="http://www.w3.org/1999/xlink" width="1000" zoomAndPan="magnify" viewBox="0 0 750 749.999995" height="1000" preserveAspectRatio="xMidYMid meet" version="1.0"><defs><clipPath id="4d7fec996a"><path d="M 375.621094 0 C 168.171875 0 0 167.894531 0 375 C 0 582.105469 168.171875 750 375.621094 750 C 583.074219 750 751.246094 582.105469 751.246094 375 C 751.246094 167.894531 583.074219 0 375.621094 0 Z M 375.621094 0 " clip-rule="nonzero"/></clipPath><clipPath id="56088c2f6f"><path d="M 0 0 L 750 0 L 750 750 L 0 750 Z M 0 0 " clip-rule="nonzero"/></clipPath><clipPath id="6ca240137b"><path d="M 375.621094 0 C 168.171875 0 0 167.894531 0 375 C 0 582.105469 168.171875 750 375.621094 750 C 583.074219 750 751.246094 582.105469 751.246094 375 C 751.246094 167.894531 583.074219 0 375.621094 0 Z M 375.621094 0 " clip-rule="nonzero"/></clipPath><clipPath id="ebca61a2fe"><rect x="0" width="750" y="0" height="750"/></clipPath><clipPath id="d1f8079f25"><path d="M 375.621094 0 C 168.171875 0 0 167.894531 0 375 C 0 582.105469 168.171875 750 375.621094 750 C 583.070312 750 751.242188 582.105469 751.242188 375 C 751.242188 167.894531 583.070312 0 375.621094 0 Z M 375.621094 0 " clip-rule="nonzero"/></clipPath><clipPath id="1839944d01"><path d="M 118.207031 88.886719 L 639.964844 88.886719 L 639.964844 655 L 118.207031 655 Z M 118.207031 88.886719 " clip-rule="nonzero"/></clipPath><clipPath id="69fdd7d939"><path d="M 379.085938 88.886719 C 235.007812 88.886719 118.207031 215.433594 118.207031 371.539062 C 118.207031 527.640625 235.007812 654.1875 379.085938 654.1875 C 523.164062 654.1875 639.964844 527.640625 639.964844 371.539062 C 639.964844 215.433594 523.164062 88.886719 379.085938 88.886719 Z M 379.085938 88.886719 " clip-rule="nonzero"/></clipPath><clipPath id="51f17b9953"><path d="M 0.207031 0.886719 L 521.964844 0.886719 L 521.964844 566 L 0.207031 566 Z M 0.207031 0.886719 " clip-rule="nonzero"/></clipPath><clipPath id="19b5f77f8c"><path d="M 261.085938 0.886719 C 117.007812 0.886719 0.207031 127.433594 0.207031 283.539062 C 0.207031 439.640625 117.007812 566.1875 261.085938 566.1875 C 405.164062 566.1875 521.964844 439.640625 521.964844 283.539062 C 521.964844 127.433594 405.164062 0.886719 261.085938 0.886719 Z M 261.085938 0.886719 " clip-rule="nonzero"/></clipPath><clipPath id="230bcf0027"><rect x="0" width="522" y="0" height="567"/></clipPath><clipPath id="ef7628e582"><path d="M 39.269531 47.722656 L 700.019531 47.722656 L 700.019531 708.472656 L 39.269531 708.472656 Z M 39.269531 47.722656 " clip-rule="nonzero"/></clipPath></defs><g clip-path="url(#4d7fec996a)"><g transform="matrix(1, 0, 0, 1, 0, -0.000000000000042435)"><g clip-path="url(#ebca61a2fe)"><g clip-path="url(#56088c2f6f)"><g clip-path="url(#6ca240137b)"><rect x="-165" width="1080" fill="#000000" height="1079.999992" y="-164.999999" fill-opacity="1"/></g></g></g></g></g><g clip-path="url(#d1f8079f25)"><path stroke-linecap="butt" transform="matrix(0.75, 0, 0, 0.75, 0.00000265, 0.00154516)" fill="none" stroke-linejoin="miter" d="M 500.828146 -0.00206021 C 224.229174 -0.00206021 -0.00000353333 223.857326 -0.00000353333 499.997964 C -0.00000353333 776.138603 224.229174 999.997989 500.828146 999.997989 C 777.427118 999.997989 1001.656295 776.138603 1001.656295 499.997964 C 1001.656295 223.857326 777.427118 -0.00206021 500.828146 -0.00206021 Z M 500.828146 -0.00206021 " stroke="#025bab" stroke-width="38" stroke-opacity="1" stroke-miterlimit="4"/></g><g clip-path="url(#1839944d01)"><g clip-path="url(#69fdd7d939)"><g transform="matrix(1, 0, 0, 1, 118, 88)"><g clip-path="url(#230bcf0027)"><g clip-path="url(#51f17b9953)"><g clip-path="url(#19b5f77f8c)"><path fill="#025bab" d="M 0.207031 0.886719 L 521.964844 0.886719 L 521.964844 565.445312 L 0.207031 565.445312 Z M 0.207031 0.886719 " fill-opacity="1" fill-rule="nonzero"/></g></g></g></g></g></g><g clip-path="url(#ef7628e582)"><path fill="#000000" d="M 451.398438 543.859375 L 419.964844 575.289062 L 254.207031 409.53125 L 222.777344 378.097656 L 419.964844 180.90625 L 451.398438 212.335938 L 285.636719 378.097656 Z M 369.644531 47.722656 C 187.1875 47.722656 39.269531 195.636719 39.269531 378.097656 C 39.269531 560.558594 187.1875 708.472656 369.644531 708.472656 C 552.105469 708.472656 700.019531 560.558594 700.019531 378.097656 C 700.019531 195.636719 552.105469 47.722656 369.644531 47.722656 " fill-opacity="1" fill-rule="nonzero"/></g></svg>