<svg xmlns="http://www.w3.org/2000/svg" xmlns:xlink="http://www.w3.org/1999/xlink" width="1000" zoomAndPan="magnify" viewBox="0 0 750 749.999995" height="1000" preserveAspectRatio="xMidYMid meet" version="1.0"><path fill="#b80000" d="M 13.648438 402.398438 L 159.773438 548.519531 C 160.667969 549.417969 161.609375 550.269531 162.589844 551.074219 C 163.570312 551.878906 164.589844 552.632812 165.644531 553.339844 C 166.699219 554.042969 167.785156 554.695312 168.90625 555.292969 C 170.023438 555.890625 171.171875 556.433594 172.34375 556.917969 C 173.515625 557.40625 174.707031 557.832031 175.921875 558.199219 C 177.136719 558.570312 178.367188 558.878906 179.613281 559.125 C 180.855469 559.371094 182.109375 559.558594 183.371094 559.683594 C 184.636719 559.808594 185.902344 559.867188 187.171875 559.867188 C 188.441406 559.867188 189.707031 559.808594 190.96875 559.683594 C 192.230469 559.558594 193.484375 559.371094 194.730469 559.125 C 195.976562 558.878906 197.203125 558.570312 198.417969 558.199219 C 199.632812 557.832031 200.828125 557.40625 202 556.917969 C 203.171875 556.433594 204.316406 555.890625 205.4375 555.292969 C 206.554688 554.695312 207.644531 554.042969 208.699219 553.339844 C 209.753906 552.632812 210.769531 551.878906 211.753906 551.074219 C 212.734375 550.269531 213.671875 549.417969 214.570312 548.519531 C 215.46875 547.621094 216.316406 546.683594 217.125 545.703125 C 217.929688 544.722656 218.683594 543.703125 219.386719 542.648438 C 220.09375 541.59375 220.746094 540.507812 221.34375 539.386719 C 221.941406 538.269531 222.484375 537.121094 222.96875 535.949219 C 223.453125 534.777344 223.882812 533.582031 224.25 532.371094 C 224.617188 531.15625 224.925781 529.925781 225.171875 528.679688 C 225.421875 527.4375 225.605469 526.183594 225.730469 524.917969 C 225.855469 523.65625 225.917969 522.390625 225.917969 521.121094 C 225.917969 519.851562 225.855469 518.585938 225.730469 517.324219 C 225.605469 516.0625 225.421875 514.808594 225.171875 513.5625 C 224.925781 512.316406 224.617188 511.089844 224.25 509.875 C 223.882812 508.660156 223.453125 507.46875 222.96875 506.292969 C 222.484375 505.121094 221.941406 503.976562 221.34375 502.855469 C 220.746094 501.738281 220.09375 500.652344 219.386719 499.59375 C 218.683594 498.539062 217.929688 497.523438 217.121094 496.542969 C 216.316406 495.5625 215.46875 494.621094 214.570312 493.722656 L 134.589844 413.746094 L 557.667969 413.746094 C 558.9375 413.746094 560.203125 413.683594 561.464844 413.558594 C 562.730469 413.433594 563.984375 413.25 565.226562 413.003906 C 566.472656 412.753906 567.703125 412.445312 568.914062 412.078125 C 570.128906 411.710938 571.324219 411.28125 572.496094 410.796875 C 573.667969 410.3125 574.8125 409.769531 575.933594 409.171875 C 577.050781 408.574219 578.140625 407.921875 579.195312 407.214844 C 580.25 406.511719 581.269531 405.757812 582.25 404.953125 C 583.230469 404.144531 584.167969 403.296875 585.066406 402.398438 C 585.964844 401.5 586.816406 400.5625 587.621094 399.582031 C 588.425781 398.597656 589.179688 397.582031 589.886719 396.527344 C 590.589844 395.472656 591.242188 394.382812 591.839844 393.265625 C 592.4375 392.144531 592.980469 391 593.464844 389.828125 C 593.949219 388.65625 594.378906 387.460938 594.746094 386.246094 C 595.113281 385.03125 595.421875 383.804688 595.671875 382.558594 C 595.917969 381.3125 596.105469 380.0625 596.226562 378.796875 C 596.351562 377.535156 596.414062 376.269531 596.414062 375 C 596.414062 373.730469 596.351562 372.464844 596.226562 371.203125 C 596.105469 369.9375 595.917969 368.6875 595.671875 367.441406 C 595.421875 366.195312 595.113281 364.964844 594.746094 363.753906 C 594.378906 362.539062 593.949219 361.34375 593.464844 360.171875 C 592.980469 359 592.4375 357.855469 591.839844 356.734375 C 591.242188 355.617188 590.589844 354.527344 589.886719 353.472656 C 589.179688 352.417969 588.425781 351.398438 587.621094 350.417969 C 586.816406 349.4375 585.964844 348.5 585.066406 347.601562 C 584.167969 346.703125 583.230469 345.855469 582.25 345.046875 C 581.269531 344.242188 580.25 343.488281 579.195312 342.785156 C 578.140625 342.078125 577.050781 341.425781 575.933594 340.828125 C 574.8125 340.230469 573.667969 339.6875 572.496094 339.203125 C 571.324219 338.71875 570.128906 338.289062 568.914062 337.921875 C 567.703125 337.554688 566.472656 337.246094 565.226562 336.996094 C 563.984375 336.75 562.730469 336.5625 561.464844 336.441406 C 560.203125 336.316406 558.9375 336.253906 557.667969 336.253906 L 134.589844 336.253906 L 214.570312 256.277344 C 215.46875 255.378906 216.316406 254.4375 217.121094 253.457031 C 217.929688 252.476562 218.683594 251.460938 219.386719 250.402344 C 220.09375 249.347656 220.746094 248.261719 221.34375 247.144531 C 221.941406 246.023438 222.484375 244.878906 222.96875 243.707031 C 223.453125 242.53125 223.882812 241.339844 224.25 240.125 C 224.617188 238.910156 224.925781 237.679688 225.171875 236.4375 C 225.421875 235.191406 225.605469 233.9375 225.730469 232.675781 C 225.855469 231.414062 225.917969 230.144531 225.917969 228.878906 C 225.917969 227.609375 225.855469 226.34375 225.730469 225.078125 C 225.605469 223.816406 225.421875 222.5625 225.171875 221.316406 C 224.925781 220.074219 224.617188 218.84375 224.25 217.628906 C 223.882812 216.414062 223.453125 215.222656 222.96875 214.050781 C 222.484375 212.878906 221.941406 211.730469 221.34375 210.613281 C 220.742188 209.492188 220.09375 208.40625 219.386719 207.351562 C 218.683594 206.296875 217.925781 205.277344 217.121094 204.296875 C 216.316406 203.316406 215.464844 202.375 214.570312 201.480469 C 213.671875 200.582031 212.730469 199.730469 211.75 198.925781 C 210.769531 198.121094 209.753906 197.367188 208.695312 196.660156 C 207.640625 195.957031 206.554688 195.304688 205.4375 194.707031 C 204.316406 194.109375 203.171875 193.566406 202 193.082031 C 200.824219 192.59375 199.632812 192.167969 198.417969 191.800781 C 197.203125 191.429688 195.972656 191.125 194.730469 190.875 C 193.484375 190.628906 192.230469 190.441406 190.96875 190.316406 C 189.707031 190.191406 188.4375 190.132812 187.171875 190.132812 C 185.902344 190.132812 184.636719 190.191406 183.371094 190.316406 C 182.109375 190.441406 180.855469 190.628906 179.609375 190.875 C 178.367188 191.125 177.136719 191.429688 175.921875 191.800781 C 174.707031 192.167969 173.515625 192.59375 172.34375 193.082031 C 171.171875 193.566406 170.023438 194.109375 168.90625 194.707031 C 167.785156 195.304688 166.699219 195.957031 165.644531 196.660156 C 164.589844 197.367188 163.570312 198.121094 162.589844 198.925781 C 161.609375 199.730469 160.667969 200.582031 159.773438 201.480469 L 13.648438 347.601562 C 12.753906 348.5 11.902344 349.4375 11.097656 350.421875 C 10.289062 351.402344 9.535156 352.417969 8.832031 353.472656 C 8.125 354.53125 7.472656 355.617188 6.875 356.734375 C 6.277344 357.855469 5.734375 359 5.25 360.171875 C 4.765625 361.34375 4.335938 362.539062 3.96875 363.753906 C 3.601562 364.96875 3.292969 366.195312 3.046875 367.441406 C 2.796875 368.6875 2.613281 369.941406 2.488281 371.203125 C 2.363281 372.464844 2.300781 373.730469 2.300781 375 C 2.300781 376.269531 2.363281 377.535156 2.488281 378.796875 C 2.613281 380.0625 2.796875 381.316406 3.046875 382.558594 C 3.292969 383.804688 3.601562 385.035156 3.96875 386.25 C 4.335938 387.460938 4.765625 388.65625 5.25 389.828125 C 5.734375 391 6.277344 392.148438 6.875 393.265625 C 7.472656 394.386719 8.125 395.472656 8.832031 396.527344 C 9.535156 397.582031 10.292969 398.601562 11.097656 399.582031 C 11.902344 400.5625 12.753906 401.5 13.648438 402.398438 Z M 13.648438 402.398438 " fill-opacity="1" fill-rule="nonzero"/><path fill="#b80000" d="M 299.359375 155.4375 C 300.628906 155.4375 301.894531 155.375 303.15625 155.25 C 304.417969 155.125 305.671875 154.941406 306.917969 154.691406 C 308.160156 154.445312 309.390625 154.136719 310.605469 153.769531 C 311.820312 153.398438 313.011719 152.972656 314.1875 152.488281 C 315.359375 152 316.503906 151.460938 317.625 150.859375 C 318.742188 150.261719 319.828125 149.613281 320.882812 148.90625 C 321.941406 148.203125 322.957031 147.445312 323.9375 146.640625 C 324.917969 145.835938 325.859375 144.984375 326.757812 144.085938 C 327.652344 143.191406 328.503906 142.25 329.308594 141.269531 C 330.113281 140.289062 330.871094 139.269531 331.574219 138.214844 C 332.28125 137.160156 332.929688 136.074219 333.53125 134.953125 C 334.128906 133.835938 334.667969 132.691406 335.15625 131.515625 C 335.640625 130.34375 336.066406 129.152344 336.4375 127.9375 C 336.804688 126.722656 337.113281 125.492188 337.359375 124.25 C 337.609375 123.003906 337.792969 121.75 337.917969 120.488281 C 338.042969 119.226562 338.105469 117.957031 338.105469 116.691406 L 338.105469 77.941406 L 673.90625 77.941406 L 673.90625 672.054688 L 338.105469 672.054688 L 338.105469 633.308594 C 338.105469 632.042969 338.042969 630.773438 337.917969 629.511719 C 337.792969 628.25 337.609375 626.996094 337.359375 625.75 C 337.113281 624.507812 336.804688 623.277344 336.4375 622.0625 C 336.066406 620.847656 335.640625 619.65625 335.15625 618.484375 C 334.667969 617.308594 334.128906 616.164062 333.53125 615.046875 C 332.929688 613.925781 332.28125 612.839844 331.574219 611.785156 C 330.871094 610.730469 330.113281 609.710938 329.308594 608.730469 C 328.503906 607.75 327.652344 606.808594 326.757812 605.914062 C 325.859375 605.015625 324.917969 604.164062 323.9375 603.359375 C 322.957031 602.554688 321.941406 601.796875 320.882812 601.09375 C 319.828125 600.386719 318.742188 599.738281 317.625 599.140625 C 316.503906 598.539062 315.359375 598 314.1875 597.511719 C 313.011719 597.027344 311.820312 596.601562 310.605469 596.230469 C 309.390625 595.863281 308.160156 595.554688 306.917969 595.308594 C 305.671875 595.058594 304.417969 594.875 303.15625 594.75 C 301.894531 594.625 300.628906 594.5625 299.359375 594.5625 C 298.089844 594.5625 296.824219 594.625 295.558594 594.75 C 294.296875 594.875 293.042969 595.058594 291.800781 595.308594 C 290.554688 595.554688 289.324219 595.863281 288.109375 596.230469 C 286.894531 596.601562 285.703125 597.027344 284.53125 597.511719 C 283.359375 598 282.210938 598.539062 281.09375 599.140625 C 279.972656 599.738281 278.886719 600.386719 277.832031 601.09375 C 276.777344 601.796875 275.757812 602.554688 274.777344 603.359375 C 273.796875 604.164062 272.859375 605.015625 271.960938 605.914062 C 271.0625 606.808594 270.210938 607.75 269.40625 608.730469 C 268.601562 609.710938 267.847656 610.730469 267.140625 611.785156 C 266.4375 612.839844 265.785156 613.925781 265.1875 615.046875 C 264.589844 616.164062 264.046875 617.308594 263.5625 618.484375 C 263.074219 619.65625 262.648438 620.847656 262.28125 622.0625 C 261.910156 623.277344 261.605469 624.507812 261.355469 625.75 C 261.109375 626.996094 260.921875 628.25 260.796875 629.511719 C 260.675781 630.773438 260.613281 632.042969 260.613281 633.308594 L 260.613281 684.972656 C 260.613281 686.027344 260.636719 687.085938 260.6875 688.140625 C 260.742188 689.195312 260.820312 690.25 260.921875 691.300781 C 261.027344 692.355469 261.15625 693.402344 261.3125 694.449219 C 261.464844 695.492188 261.644531 696.535156 261.851562 697.570312 C 262.058594 698.605469 262.289062 699.636719 262.546875 700.664062 C 262.804688 701.6875 263.085938 702.707031 263.390625 703.71875 C 263.699219 704.730469 264.03125 705.734375 264.386719 706.726562 C 264.742188 707.722656 265.121094 708.707031 265.527344 709.683594 C 265.933594 710.660156 266.359375 711.628906 266.8125 712.582031 C 267.265625 713.539062 267.738281 714.480469 268.238281 715.414062 C 268.734375 716.347656 269.253906 717.265625 269.800781 718.171875 C 270.34375 719.078125 270.90625 719.972656 271.496094 720.847656 C 272.082031 721.726562 272.691406 722.59375 273.320312 723.441406 C 273.949219 724.289062 274.597656 725.121094 275.269531 725.941406 C 275.941406 726.757812 276.628906 727.558594 277.339844 728.339844 C 278.050781 729.121094 278.777344 729.886719 279.527344 730.636719 C 280.273438 731.382812 281.039062 732.109375 281.820312 732.820312 C 282.605469 733.53125 283.40625 734.222656 284.222656 734.890625 C 285.039062 735.5625 285.871094 736.210938 286.71875 736.839844 C 287.570312 737.472656 288.433594 738.078125 289.3125 738.667969 C 290.191406 739.253906 291.082031 739.820312 291.988281 740.363281 C 292.894531 740.90625 293.816406 741.425781 294.746094 741.925781 C 295.679688 742.421875 296.625 742.898438 297.578125 743.347656 C 298.535156 743.800781 299.5 744.230469 300.476562 744.632812 C 301.453125 745.039062 302.4375 745.417969 303.433594 745.773438 C 304.429688 746.128906 305.433594 746.460938 306.441406 746.769531 C 307.453125 747.074219 308.472656 747.359375 309.5 747.613281 C 310.523438 747.871094 311.554688 748.101562 312.589844 748.308594 C 313.628906 748.515625 314.667969 748.695312 315.714844 748.851562 C 316.757812 749.003906 317.808594 749.136719 318.859375 749.238281 C 319.910156 749.34375 320.964844 749.421875 322.019531 749.472656 C 323.074219 749.523438 324.132812 749.550781 325.1875 749.550781 L 686.824219 749.550781 C 687.878906 749.550781 688.9375 749.523438 689.992188 749.472656 C 691.046875 749.421875 692.101562 749.34375 693.152344 749.238281 C 694.203125 749.136719 695.253906 749.003906 696.300781 748.851562 C 697.34375 748.695312 698.386719 748.515625 699.421875 748.308594 C 700.457031 748.101562 701.488281 747.871094 702.515625 747.613281 C 703.539062 747.359375 704.558594 747.074219 705.570312 746.769531 C 706.582031 746.460938 707.582031 746.128906 708.578125 745.773438 C 709.574219 745.417969 710.558594 745.039062 711.535156 744.632812 C 712.511719 744.230469 713.476562 743.800781 714.433594 743.347656 C 715.390625 742.898438 716.332031 742.421875 717.265625 741.925781 C 718.195312 741.425781 719.117188 740.90625 720.023438 740.363281 C 720.929688 739.820312 721.820312 739.253906 722.699219 738.667969 C 723.578125 738.078125 724.441406 737.472656 725.292969 736.839844 C 726.140625 736.210938 726.972656 735.5625 727.789062 734.890625 C 728.609375 734.222656 729.40625 733.53125 730.191406 732.820312 C 730.972656 732.109375 731.738281 731.382812 732.488281 730.636719 C 733.234375 729.886719 733.960938 729.121094 734.671875 728.339844 C 735.382812 727.558594 736.070312 726.757812 736.742188 725.941406 C 737.414062 725.121094 738.0625 724.289062 738.691406 723.441406 C 739.320312 722.59375 739.929688 721.726562 740.519531 720.847656 C 741.105469 719.972656 741.671875 719.078125 742.214844 718.171875 C 742.757812 717.265625 743.277344 716.347656 743.777344 715.414062 C 744.273438 714.480469 744.75 713.539062 745.199219 712.582031 C 745.652344 711.628906 746.082031 710.660156 746.484375 709.683594 C 746.890625 708.707031 747.269531 707.722656 747.625 706.726562 C 747.980469 705.734375 748.3125 704.730469 748.621094 703.71875 C 748.925781 702.707031 749.207031 701.6875 749.464844 700.664062 C 749.722656 699.636719 749.953125 698.605469 750.160156 697.570312 C 750.367188 696.535156 750.546875 695.492188 750.703125 694.449219 C 750.855469 693.402344 750.988281 692.355469 751.089844 691.300781 C 751.195312 690.25 751.269531 689.195312 751.324219 688.140625 C 751.375 687.085938 751.402344 686.027344 751.402344 684.972656 L 751.402344 65.027344 C 751.402344 63.972656 751.375 62.914062 751.324219 61.859375 C 751.269531 60.804688 751.195312 59.75 751.089844 58.699219 C 750.988281 57.644531 750.855469 56.597656 750.703125 55.550781 C 750.546875 54.507812 750.367188 53.464844 750.160156 52.429688 C 749.953125 51.394531 749.722656 50.363281 749.464844 49.335938 C 749.207031 48.3125 748.925781 47.292969 748.621094 46.28125 C 748.3125 45.269531 747.980469 44.265625 747.625 43.273438 C 747.269531 42.277344 746.890625 41.292969 746.484375 40.316406 C 746.082031 39.339844 745.652344 38.371094 745.199219 37.417969 C 744.75 36.460938 744.273438 35.519531 743.777344 34.585938 C 743.277344 33.652344 742.757812 32.734375 742.214844 31.828125 C 741.671875 30.921875 741.105469 30.03125 740.519531 29.152344 C 739.929688 28.273438 739.320312 27.40625 738.691406 26.558594 C 738.0625 25.710938 737.414062 24.878906 736.742188 24.058594 C 736.070312 23.242188 735.382812 22.441406 734.671875 21.660156 C 733.960938 20.878906 733.234375 20.113281 732.488281 19.363281 C 731.738281 18.617188 730.972656 17.890625 730.191406 17.179688 C 729.40625 16.46875 728.609375 15.777344 727.789062 15.109375 C 726.972656 14.4375 726.140625 13.789062 725.292969 13.160156 C 724.441406 12.527344 723.578125 11.921875 722.699219 11.332031 C 721.820312 10.746094 720.929688 10.179688 720.023438 9.636719 C 719.117188 9.09375 718.195312 8.574219 717.265625 8.074219 C 716.332031 7.578125 715.390625 7.101562 714.433594 6.652344 C 713.476562 6.199219 712.511719 5.769531 711.535156 5.367188 C 710.558594 4.960938 709.574219 4.582031 708.578125 4.226562 C 707.582031 3.871094 706.582031 3.539062 705.570312 3.230469 C 704.558594 2.925781 703.539062 2.640625 702.515625 2.386719 C 701.488281 2.128906 700.457031 1.898438 699.421875 1.691406 C 698.386719 1.484375 697.34375 1.304688 696.300781 1.148438 C 695.253906 0.996094 694.203125 0.863281 693.152344 0.761719 C 692.101562 0.65625 691.046875 0.578125 689.992188 0.527344 C 688.9375 0.476562 687.878906 0.449219 686.824219 0.449219 L 325.1875 0.449219 C 324.132812 0.449219 323.074219 0.476562 322.019531 0.527344 C 320.964844 0.578125 319.910156 0.65625 318.859375 0.761719 C 317.808594 0.863281 316.757812 0.992188 315.714844 1.148438 C 314.667969 1.304688 313.628906 1.484375 312.589844 1.691406 C 311.554688 1.898438 310.523438 2.128906 309.5 2.386719 C 308.472656 2.640625 307.453125 2.925781 306.441406 3.230469 C 305.433594 3.539062 304.429688 3.871094 303.433594 4.226562 C 302.4375 4.582031 301.453125 4.960938 300.476562 5.367188 C 299.5 5.769531 298.535156 6.199219 297.578125 6.652344 C 296.625 7.101562 295.679688 7.578125 294.746094 8.074219 C 293.816406 8.574219 292.894531 9.09375 291.988281 9.636719 C 291.082031 10.179688 290.191406 10.746094 289.3125 11.332031 C 288.433594 11.921875 287.570312 12.527344 286.71875 13.160156 C 285.871094 13.789062 285.039062 14.4375 284.222656 15.109375 C 283.40625 15.777344 282.605469 16.46875 281.820312 17.179688 C 281.039062 17.890625 280.273438 18.617188 279.527344 19.363281 C 278.777344 20.113281 278.050781 20.878906 277.339844 21.660156 C 276.628906 22.441406 275.941406 23.242188 275.269531 24.058594 C 274.597656 24.878906 273.949219 25.710938 273.320312 26.558594 C 272.691406 27.40625 272.082031 28.273438 271.496094 29.152344 C 270.90625 30.027344 270.34375 30.921875 269.800781 31.828125 C 269.253906 32.734375 268.734375 33.652344 268.238281 34.585938 C 267.738281 35.519531 267.261719 36.460938 266.8125 37.417969 C 266.359375 38.371094 265.933594 39.339844 265.527344 40.316406 C 265.121094 41.292969 264.742188 42.277344 264.386719 43.273438 C 264.03125 44.265625 263.699219 45.269531 263.390625 46.28125 C 263.085938 47.292969 262.804688 48.3125 262.546875 49.335938 C 262.289062 50.363281 262.058594 51.394531 261.851562 52.429688 C 261.644531 53.464844 261.464844 54.507812 261.3125 55.550781 C 261.15625 56.597656 261.027344 57.644531 260.921875 58.699219 C 260.820312 59.75 260.742188 60.804688 260.6875 61.859375 C 260.636719 62.914062 260.613281 63.972656 260.613281 65.027344 L 260.613281 116.691406 C 260.613281 117.957031 260.675781 119.226562 260.796875 120.488281 C 260.921875 121.75 261.109375 123.003906 261.355469 124.25 C 261.605469 125.492188 261.910156 126.722656 262.28125 127.9375 C 262.648438 129.152344 263.074219 130.34375 263.5625 131.519531 C 264.046875 132.691406 264.589844 133.835938 265.1875 134.953125 C 265.785156 136.074219 266.4375 137.160156 267.140625 138.214844 C 267.847656 139.269531 268.601562 140.289062 269.40625 141.269531 C 270.210938 142.25 271.0625 143.191406 271.960938 144.085938 C 272.859375 144.984375 273.796875 145.835938 274.777344 146.640625 C 275.757812 147.445312 276.777344 148.203125 277.832031 148.90625 C 278.886719 149.613281 279.972656 150.261719 281.09375 150.859375 C 282.210938 151.460938 283.359375 152 284.53125 152.488281 C 285.703125 152.972656 286.894531 153.398438 288.109375 153.769531 C 289.324219 154.136719 290.554688 154.445312 291.800781 154.691406 C 293.042969 154.941406 294.296875 155.125 295.558594 155.25 C 296.824219 155.375 298.089844 155.4375 299.359375 155.4375 Z M 299.359375 155.4375 " fill-opacity="1" fill-rule="nonzero"/></svg>