<svg xmlns="http://www.w3.org/2000/svg" xmlns:xlink="http://www.w3.org/1999/xlink" width="1250" zoomAndPan="magnify" viewBox="0 0 937.92 757.92" height="1000" preserveAspectRatio="xMidYMid meet" version="1.0"><defs><clipPath id="84c6226927"><path d="M 102.082031 8.332031 L 835.503906 8.332031 L 835.503906 741.753906 L 102.082031 741.753906 Z M 102.082031 8.332031 " clip-rule="nonzero"/></clipPath></defs><g clip-path="url(#84c6226927)"><path fill="#7b2cbf" d="M 468.707031 8.332031 C 266.226562 8.332031 102.082031 172.476562 102.082031 374.957031 C 102.082031 577.4375 266.226562 741.578125 468.707031 741.578125 C 671.183594 741.578125 835.328125 577.4375 835.328125 374.957031 C 835.328125 172.476562 671.183594 8.332031 468.707031 8.332031 Z M 468.707031 713.808594 C 281.5625 713.808594 129.851562 562.097656 129.851562 374.957031 C 129.851562 187.8125 281.5625 36.101562 468.707031 36.101562 C 655.847656 36.101562 807.558594 187.8125 807.558594 374.957031 C 807.558594 562.097656 655.847656 713.808594 468.707031 713.808594 Z M 468.707031 713.808594 " fill-opacity="1" fill-rule="nonzero"/></g><path fill="#7b2cbf" d="M 425.675781 554.664062 C 416.480469 555.546875 409.136719 556.558594 401.757812 556.90625 C 359.929688 558.886719 328.957031 542.394531 310.175781 503.9375 C 304.195312 491.691406 296.535156 480.132812 288.5625 469.035156 C 283.773438 462.371094 277.0625 457.019531 270.867188 451.46875 L 270.792969 451.402344 C 266.960938 448.027344 268.648438 441.722656 273.683594 440.875 C 279.59375 439.882812 285.101562 440.949219 290.472656 442.316406 C 307.296875 446.597656 318.089844 458.523438 326.691406 472.785156 C 346.148438 505.035156 379.648438 518.488281 415.875 508.878906 C 422.027344 507.25 424.738281 504.601562 426.074219 497.894531 C 427.636719 490.070312 429.757812 482.359375 432.039062 474.5 C 432.207031 473.921875 432.34375 473.335938 432.453125 472.746094 C 432.5625 472.152344 432.640625 471.558594 432.6875 470.960938 C 432.734375 470.359375 432.753906 469.757812 432.738281 469.160156 C 432.726562 468.558594 432.683594 467.957031 432.609375 467.363281 C 432.535156 466.765625 432.429688 466.175781 432.296875 465.585938 C 432.164062 465 432 464.421875 431.808594 463.855469 C 431.617188 463.285156 431.394531 462.726562 431.144531 462.179688 C 430.898438 461.632812 430.621094 461.097656 430.316406 460.578125 C 430.015625 460.058594 429.6875 459.558594 429.332031 459.070312 C 428.976562 458.585938 428.601562 458.117188 428.199219 457.671875 C 427.796875 457.222656 427.375 456.796875 426.929688 456.394531 C 426.484375 455.988281 426.023438 455.605469 425.539062 455.25 C 425.054688 454.890625 424.554688 454.558594 424.039062 454.253906 C 423.519531 453.945312 422.988281 453.664062 422.445312 453.414062 C 421.898438 453.160156 421.34375 452.933594 420.773438 452.738281 C 420.207031 452.542969 419.628906 452.375 419.042969 452.234375 L 418.839844 452.1875 C 381.253906 443.195312 348.78125 426.449219 327.859375 392.097656 C 316.671875 373.730469 311.136719 353.5 311.421875 332.417969 C 311.742188 308.503906 313.859375 284.535156 316.605469 260.753906 C 318.542969 244.007812 326.296875 229.179688 338.335938 217.140625 C 342.535156 212.941406 342.890625 209.421875 340.863281 203.988281 C 332.574219 181.738281 334.011719 159.441406 341.371094 137.144531 C 343.449219 130.851562 346.394531 129.953125 352.414062 131.847656 C 371.042969 137.710938 384.933594 149.828125 397.148438 164.34375 L 397.273438 164.492188 C 398.035156 165.410156 398.859375 166.265625 399.75 167.058594 C 400.640625 167.851562 401.585938 168.574219 402.585938 169.226562 C 403.582031 169.878906 404.625 170.453125 405.707031 170.949219 C 406.789062 171.449219 407.90625 171.863281 409.050781 172.191406 C 410.195312 172.523438 411.359375 172.769531 412.542969 172.925781 C 413.722656 173.082031 414.910156 173.152344 416.101562 173.132812 C 417.296875 173.113281 418.480469 173.007812 419.65625 172.8125 C 420.832031 172.613281 421.988281 172.332031 423.121094 171.964844 C 461.769531 159.289062 520.410156 159.121094 556.863281 171.664062 C 558 172.050781 559.160156 172.351562 560.34375 172.5625 C 561.527344 172.773438 562.722656 172.894531 563.925781 172.929688 C 565.125 172.960938 566.324219 172.902344 567.515625 172.753906 C 568.710938 172.605469 569.886719 172.367188 571.042969 172.042969 C 572.203125 171.71875 573.328125 171.304688 574.425781 170.8125 C 575.519531 170.316406 576.574219 169.742188 577.582031 169.085938 C 578.589844 168.433594 579.546875 167.707031 580.445312 166.910156 C 581.347656 166.113281 582.179688 165.253906 582.953125 164.328125 L 583.070312 164.1875 C 595.300781 149.675781 609.257812 137.652344 627.871094 131.773438 C 634.113281 129.800781 636.773438 131.300781 638.75 137.375 C 646.011719 159.683594 647.25 181.847656 639.394531 204.328125 C 638.289062 207.492188 638.335938 212.996094 640.304688 214.996094 C 656.992188 231.925781 664.296875 252.9375 666.152344 275.707031 C 667.941406 297.703125 669.882812 320.078125 667.839844 341.921875 C 662.527344 398.726562 627.984375 431.8125 575.460938 448.257812 C 570.96875 449.667969 566.402344 450.847656 561.742188 451.949219 C 561.136719 452.089844 560.539062 452.265625 559.953125 452.472656 C 559.367188 452.675781 558.792969 452.910156 558.234375 453.175781 C 557.671875 453.441406 557.125 453.734375 556.59375 454.058594 C 556.0625 454.378906 555.550781 454.730469 555.058594 455.105469 C 554.5625 455.480469 554.089844 455.882812 553.636719 456.308594 C 553.183594 456.734375 552.753906 457.179688 552.351562 457.652344 C 551.945312 458.121094 551.566406 458.613281 551.210938 459.121094 C 550.855469 459.632812 550.53125 460.160156 550.230469 460.703125 C 549.933594 461.246094 549.664062 461.804688 549.421875 462.378906 C 549.183594 462.953125 548.972656 463.535156 548.792969 464.128906 C 548.613281 464.722656 548.464844 465.328125 548.347656 465.9375 C 548.234375 466.546875 548.148438 467.160156 548.097656 467.78125 C 548.042969 468.398438 548.023438 469.019531 548.039062 469.640625 C 548.050781 470.261719 548.09375 470.878906 548.171875 471.496094 C 548.25 472.109375 548.359375 472.722656 548.5 473.328125 C 548.644531 473.929688 548.816406 474.527344 549.019531 475.113281 C 556.175781 495.847656 555.082031 517.996094 554.96875 540.003906 C 554.945312 545.0625 554.925781 550.125 554.917969 555.191406 C 554.914062 556.234375 554.886719 557.277344 554.835938 558.320312 C 554.78125 559.363281 554.703125 560.40625 554.597656 561.445312 C 554.492188 562.484375 554.363281 563.519531 554.207031 564.550781 C 554.054688 565.585938 553.871094 566.613281 553.667969 567.636719 C 553.460938 568.660156 553.230469 569.679688 552.976562 570.691406 C 552.71875 571.703125 552.4375 572.710938 552.132812 573.707031 C 551.828125 574.707031 551.5 575.699219 551.144531 576.679688 C 550.792969 577.664062 550.414062 578.636719 550.015625 579.601562 C 549.613281 580.566406 549.1875 581.519531 548.742188 582.460938 C 548.292969 583.40625 547.820312 584.335938 547.328125 585.257812 C 546.835938 586.179688 546.320312 587.085938 545.78125 587.980469 C 545.242188 588.875 544.683594 589.757812 544.101562 590.625 C 543.519531 591.492188 542.917969 592.34375 542.292969 593.183594 C 541.671875 594.019531 541.027344 594.84375 540.363281 595.648438 C 539.699219 596.457031 539.015625 597.246094 538.316406 598.019531 C 537.613281 598.792969 536.890625 599.546875 536.152344 600.285156 C 535.414062 601.023438 534.65625 601.742188 533.882812 602.441406 C 533.109375 603.140625 532.316406 603.824219 531.507812 604.484375 C 530.699219 605.148438 529.875 605.789062 529.039062 606.410156 C 528.199219 607.03125 527.34375 607.632812 526.476562 608.210938 C 525.605469 608.789062 524.722656 609.347656 523.828125 609.882812 C 522.929688 610.421875 522.023438 610.933594 521.101562 611.425781 C 520.179688 611.917969 519.246094 612.386719 518.300781 612.832031 C 517.359375 613.277344 516.402344 613.703125 515.4375 614.101562 C 514.472656 614.5 513.5 614.875 512.515625 615.226562 C 511.53125 615.578125 510.539062 615.902344 509.542969 616.207031 C 508.542969 616.507812 507.535156 616.789062 506.523438 617.039062 C 505.507812 617.292969 504.488281 617.523438 503.464844 617.726562 C 502.441406 617.929688 501.414062 618.109375 500.378906 618.261719 C 499.347656 618.414062 498.308594 618.542969 497.269531 618.644531 C 496.230469 618.746094 495.191406 618.820312 494.148438 618.875 C 493.105469 618.925781 492.0625 618.949219 491.015625 618.949219 L 489.578125 618.949219 C 488.53125 618.949219 487.484375 618.925781 486.441406 618.871094 C 485.398438 618.820312 484.355469 618.746094 483.3125 618.640625 C 482.273438 618.539062 481.234375 618.410156 480.199219 618.257812 C 479.164062 618.105469 478.136719 617.925781 477.109375 617.722656 C 476.085938 617.519531 475.0625 617.289062 474.050781 617.035156 C 473.035156 616.78125 472.027344 616.5 471.027344 616.199219 C 470.027344 615.894531 469.035156 615.566406 468.046875 615.214844 C 467.0625 614.863281 466.089844 614.484375 465.121094 614.085938 C 464.15625 613.683594 463.199219 613.261719 462.253906 612.8125 C 461.308594 612.367188 460.375 611.898438 459.453125 611.402344 C 458.53125 610.910156 457.621094 610.394531 456.722656 609.859375 C 455.828125 609.320312 454.945312 608.761719 454.074219 608.179688 C 453.203125 607.597656 452.351562 606.996094 451.511719 606.375 C 450.671875 605.75 449.847656 605.109375 449.039062 604.445312 C 448.230469 603.78125 447.4375 603.097656 446.664062 602.394531 C 445.886719 601.691406 445.128906 600.972656 444.390625 600.234375 C 443.652344 599.492188 442.929688 598.734375 442.226562 597.960938 C 441.527344 597.1875 440.84375 596.394531 440.179688 595.585938 C 439.515625 594.777344 438.871094 593.953125 438.25 593.113281 C 437.625 592.273438 437.023438 591.417969 436.445312 590.550781 C 435.863281 589.679688 435.304688 588.796875 434.765625 587.898438 C 434.226562 587.003906 433.710938 586.09375 433.21875 585.171875 C 432.726562 584.246094 432.257812 583.3125 431.808594 582.367188 C 431.363281 581.421875 430.9375 580.46875 430.539062 579.5 C 430.136719 578.535156 429.761719 577.558594 429.410156 576.574219 C 429.058594 575.589844 428.730469 574.597656 428.425781 573.597656 C 428.121094 572.597656 427.84375 571.589844 427.589844 570.574219 C 427.335938 569.558594 427.105469 568.539062 426.902344 567.511719 C 426.699219 566.488281 426.519531 565.457031 426.367188 564.421875 C 426.210938 563.386719 426.085938 562.351562 425.980469 561.308594 C 425.878906 560.269531 425.800781 559.226562 425.75 558.183594 C 425.699219 557.136719 425.675781 556.09375 425.675781 555.046875 Z M 425.675781 554.664062 " fill-opacity="1" fill-rule="nonzero"/></svg>