<svg xmlns="http://www.w3.org/2000/svg" xmlns:xlink="http://www.w3.org/1999/xlink" width="1250" zoomAndPan="magnify" viewBox="0 0 937.92 757.92" height="1000" preserveAspectRatio="xMidYMid meet" version="1.0"><defs><clipPath id="5ce7e00d88"><path d="M 126.246094 32.496094 L 810.925781 32.496094 L 810.925781 717.175781 L 126.246094 717.175781 Z M 126.246094 32.496094 " clip-rule="nonzero"/></clipPath></defs><g clip-path="url(#5ce7e00d88)"><path fill="#048c00" d="M 811.175781 219.289062 C 811.175781 116.207031 727.457031 32.488281 624.375 32.488281 L 313.039062 32.488281 C 209.957031 32.488281 126.238281 116.207031 126.238281 219.289062 L 126.238281 530.625 C 126.238281 633.707031 209.957031 717.425781 313.039062 717.425781 L 624.375 717.425781 C 727.457031 717.425781 811.175781 633.707031 811.175781 530.625 Z M 748.90625 219.289062 L 748.90625 530.625 C 748.90625 599.367188 693.117188 655.15625 624.375 655.15625 C 624.375 655.15625 313.039062 655.15625 313.039062 655.15625 C 244.296875 655.15625 188.507812 599.367188 188.507812 530.625 L 188.507812 219.289062 C 188.507812 150.546875 244.296875 94.757812 313.039062 94.757812 L 624.375 94.757812 C 693.117188 94.757812 748.90625 150.546875 748.90625 219.289062 Z M 748.90625 219.289062 " fill-opacity="1" fill-rule="evenodd"/></g><path fill="#048c00" d="M 624.03125 350.765625 C 614.007812 283.144531 560.519531 229.65625 492.898438 219.632812 C 485.332031 218.511719 477.703125 217.953125 470.046875 217.953125 C 384.648438 217.953125 314.378906 288.21875 314.378906 373.617188 C 314.378906 459.019531 384.648438 529.285156 470.046875 529.285156 C 555.445312 529.285156 625.710938 459.019531 625.710938 373.617188 C 625.710938 365.960938 625.152344 358.332031 624.03125 350.765625 Z M 562.449219 359.921875 C 563.101562 364.433594 563.445312 369.011719 563.445312 373.617188 C 563.445312 424.832031 521.292969 467.019531 470.046875 467.019531 C 418.832031 467.019531 376.644531 424.832031 376.644531 373.617188 C 376.644531 322.375 418.832031 280.21875 470.046875 280.21875 C 474.652344 280.21875 479.230469 280.5625 483.746094 281.214844 C 524.34375 287.222656 556.441406 319.320312 562.449219 359.921875 Z M 562.449219 359.921875 " fill-opacity="1" fill-rule="evenodd"/><path fill="#048c00" d="M 672.34375 203.632812 C 672.34375 204.679688 672.292969 205.726562 672.191406 206.769531 C 672.085938 207.816406 671.933594 208.851562 671.730469 209.878906 C 671.523438 210.90625 671.269531 211.921875 670.964844 212.925781 C 670.660156 213.929688 670.308594 214.917969 669.90625 215.886719 C 669.507812 216.855469 669.058594 217.800781 668.5625 218.726562 C 668.070312 219.648438 667.53125 220.546875 666.949219 221.421875 C 666.367188 222.292969 665.742188 223.132812 665.078125 223.945312 C 664.410156 224.753906 663.707031 225.53125 662.96875 226.273438 C 662.226562 227.011719 661.449219 227.714844 660.640625 228.382812 C 659.828125 229.046875 658.988281 229.671875 658.117188 230.253906 C 657.242188 230.835938 656.34375 231.375 655.421875 231.867188 C 654.496094 232.363281 653.550781 232.8125 652.582031 233.210938 C 651.613281 233.613281 650.625 233.964844 649.621094 234.269531 C 648.617188 234.574219 647.601562 234.828125 646.574219 235.035156 C 645.546875 235.238281 644.511719 235.390625 643.464844 235.496094 C 642.421875 235.597656 641.378906 235.648438 640.328125 235.648438 C 639.28125 235.648438 638.234375 235.597656 637.191406 235.496094 C 636.148438 235.390625 635.109375 235.238281 634.082031 235.035156 C 633.054688 234.828125 632.039062 234.574219 631.035156 234.269531 C 630.03125 233.964844 629.046875 233.613281 628.078125 233.210938 C 627.109375 232.8125 626.160156 232.363281 625.234375 231.867188 C 624.3125 231.375 623.414062 230.835938 622.542969 230.253906 C 621.667969 229.671875 620.828125 229.046875 620.015625 228.382812 C 619.207031 227.714844 618.429688 227.011719 617.691406 226.273438 C 616.949219 225.53125 616.246094 224.753906 615.578125 223.945312 C 614.914062 223.132812 614.289062 222.292969 613.707031 221.421875 C 613.125 220.546875 612.585938 219.648438 612.09375 218.726562 C 611.597656 217.800781 611.152344 216.855469 610.75 215.886719 C 610.347656 214.917969 609.996094 213.929688 609.691406 212.925781 C 609.386719 211.921875 609.132812 210.90625 608.925781 209.878906 C 608.722656 208.851562 608.570312 207.816406 608.464844 206.769531 C 608.363281 205.726562 608.3125 204.679688 608.3125 203.632812 C 608.3125 202.585938 608.363281 201.539062 608.464844 200.496094 C 608.570312 199.453125 608.722656 198.414062 608.925781 197.386719 C 609.132812 196.359375 609.386719 195.34375 609.691406 194.339844 C 609.996094 193.335938 610.347656 192.351562 610.75 191.382812 C 611.152344 190.414062 611.597656 189.464844 612.09375 188.539062 C 612.585938 187.617188 613.125 186.71875 613.707031 185.847656 C 614.289062 184.972656 614.914062 184.132812 615.578125 183.320312 C 616.246094 182.511719 616.949219 181.734375 617.691406 180.996094 C 618.429688 180.253906 619.207031 179.550781 620.015625 178.882812 C 620.828125 178.21875 621.667969 177.59375 622.542969 177.011719 C 623.414062 176.429688 624.3125 175.890625 625.234375 175.398438 C 626.160156 174.902344 627.109375 174.457031 628.078125 174.054688 C 629.046875 173.652344 630.03125 173.300781 631.035156 172.996094 C 632.039062 172.691406 633.054688 172.4375 634.082031 172.230469 C 635.109375 172.027344 636.148438 171.875 637.191406 171.769531 C 638.234375 171.667969 639.28125 171.617188 640.328125 171.617188 C 641.378906 171.617188 642.421875 171.667969 643.464844 171.769531 C 644.511719 171.875 645.546875 172.027344 646.574219 172.230469 C 647.601562 172.4375 648.617188 172.691406 649.621094 172.996094 C 650.625 173.300781 651.613281 173.652344 652.582031 174.054688 C 653.550781 174.457031 654.496094 174.902344 655.421875 175.398438 C 656.34375 175.890625 657.242188 176.429688 658.117188 177.011719 C 658.988281 177.59375 659.828125 178.21875 660.640625 178.882812 C 661.449219 179.550781 662.226562 180.253906 662.96875 180.996094 C 663.707031 181.734375 664.410156 182.511719 665.078125 183.320312 C 665.742188 184.132812 666.367188 184.972656 666.949219 185.847656 C 667.53125 186.71875 668.070312 187.617188 668.5625 188.539062 C 669.058594 189.464844 669.507812 190.414062 669.90625 191.382812 C 670.308594 192.351562 670.660156 193.335938 670.964844 194.339844 C 671.269531 195.34375 671.523438 196.359375 671.730469 197.386719 C 671.933594 198.414062 672.085938 199.453125 672.191406 200.496094 C 672.292969 201.539062 672.34375 202.585938 672.34375 203.632812 Z M 672.34375 203.632812 " fill-opacity="1" fill-rule="nonzero"/></svg>