<svg xmlns="http://www.w3.org/2000/svg" xmlns:xlink="http://www.w3.org/1999/xlink" width="1250" zoomAndPan="magnify" viewBox="0 0 937.92 757.92" height="1000" preserveAspectRatio="xMidYMid meet" version="1.0"><defs><clipPath id="4429e5421d"><path d="M 75 39.234375 L 733 39.234375 L 733 698 L 75 698 Z M 75 39.234375 " clip-rule="nonzero"/></clipPath><clipPath id="de42023a76"><path d="M 763 612 L 853 612 L 853 702.914062 L 763 702.914062 Z M 763 612 " clip-rule="nonzero"/></clipPath></defs><path fill="#048c00" d="M 814.742188 660.3125 C 821.46875 660.375 826.988281 654.980469 827.050781 648.253906 C 827.050781 647.972656 827.050781 647.695312 827.050781 647.417969 C 827.050781 638.269531 821.53125 633.898438 810.214844 633.898438 L 791.953125 633.898438 L 791.953125 681.738281 L 798.835938 681.738281 L 798.835938 660.871094 L 807.269531 660.871094 L 807.457031 661.121094 L 820.570312 681.707031 L 827.917969 681.707031 L 813.8125 660.375 L 814.742188 660.25 Z M 806.804688 655.507812 L 798.835938 655.507812 L 798.835938 639.324219 L 808.941406 639.324219 C 814.152344 639.324219 820.105469 640.191406 820.105469 647.011719 C 820.105469 654.855469 814.089844 655.507812 806.773438 655.507812 " fill-opacity="1" fill-rule="nonzero"/><g clip-path="url(#4429e5421d)"><path fill="#048c00" d="M 635.449219 600.351562 L 537.972656 600.351562 L 537.972656 447.722656 C 537.972656 411.324219 537.324219 364.480469 487.285156 364.480469 C 437.246094 364.480469 428.75 404.132812 428.75 445.089844 L 428.75 600.351562 L 331.273438 600.351562 L 331.273438 286.476562 L 424.84375 286.476562 L 424.84375 329.382812 L 426.144531 329.382812 C 445.210938 296.769531 480.710938 277.269531 518.472656 278.695312 C 617.25 278.695312 635.480469 343.675781 635.480469 428.191406 L 635.480469 600.382812 Z M 221.335938 243.566406 C 190.085938 243.566406 164.789062 218.269531 164.757812 187.015625 C 164.726562 155.765625 190.054688 130.46875 221.304688 130.4375 C 252.558594 130.4375 277.855469 155.734375 277.886719 186.984375 C 277.917969 218.238281 252.589844 243.535156 221.335938 243.566406 M 270.074219 600.351562 L 172.507812 600.351562 L 172.507812 286.476562 L 270.074219 286.476562 Z M 684.03125 39.9375 L 123.554688 39.9375 C 97.046875 39.65625 75.3125 60.863281 75 87.371094 L 75 650.207031 C 75.3125 676.714844 97.046875 697.953125 123.554688 697.671875 L 684.0625 697.671875 C 710.632812 698.015625 732.425781 676.777344 732.800781 650.207031 L 732.800781 87.308594 C 732.394531 60.769531 710.601562 39.566406 684.03125 39.90625 " fill-opacity="1" fill-rule="nonzero"/></g><g clip-path="url(#de42023a76)"><path fill="#048c00" d="M 807.640625 612.601562 C 782.871094 612.847656 762.996094 633.125 763.214844 657.894531 C 763.460938 682.667969 783.738281 702.539062 808.507812 702.324219 C 833.28125 702.074219 853.152344 681.800781 852.9375 657.027344 C 852.6875 632.597656 832.941406 612.847656 808.507812 612.601562 L 807.640625 612.601562 M 807.640625 697.175781 C 785.90625 697.546875 768.019531 680.21875 767.648438 658.515625 C 767.273438 636.8125 784.605469 618.894531 806.308594 618.519531 C 828.042969 618.148438 845.929688 635.480469 846.300781 657.183594 L 846.300781 657.832031 C 846.765625 679.070312 829.902344 696.679688 808.664062 697.144531 L 807.640625 697.144531 " fill-opacity="1" fill-rule="nonzero"/></g></svg>