<svg xmlns="http://www.w3.org/2000/svg" xmlns:xlink="http://www.w3.org/1999/xlink" width="1000" zoomAndPan="magnify" viewBox="0 0 750 749.999995" height="1000" preserveAspectRatio="xMidYMid meet" version="1.0"><defs><clipPath id="1e42f305d9"><path d="M 0 0 L 750 0 L 750 750 L 0 750 Z M 0 0 " clip-rule="nonzero"/></clipPath><clipPath id="2254bae1df"><path d="M 375 750 C 582.105469 750 750 582.105469 750 375 C 750 167.894531 582.105469 0 375 0 C 167.894531 0 0 167.894531 0 375 C 0 582.105469 167.894531 750 375 750 Z M 375 750 " clip-rule="nonzero"/></clipPath><clipPath id="cdb1cef904"><path d="M 0 0 L 750 0 L 750 750 L 0 750 Z M 0 0 " clip-rule="nonzero"/></clipPath><clipPath id="20569c09c4"><path d="M 375 750 C 582.105469 750 750 582.105469 750 375 C 750 167.894531 582.105469 0 375 0 C 167.894531 0 0 167.894531 0 375 C 0 582.105469 167.894531 750 375 750 Z M 375 750 " clip-rule="nonzero"/></clipPath><linearGradient x1="-0.000000000000014211" gradientTransform="matrix(-2.929687, 0, 0, -2.929687, 749.999966, 749.999983)" y1="-0.000000000000014211" x2="255.999999" gradientUnits="userSpaceOnUse" y2="255.999999" id="73a49ed616"><stop stop-opacity="1" stop-color="rgb(58.039856%, 30.979919%, 81.17981%)" offset="0"/><stop stop-opacity="1" stop-color="rgb(57.937622%, 30.929565%, 81.025696%)" offset="0.0078125"/><stop stop-opacity="1" stop-color="rgb(57.736206%, 30.831909%, 80.718994%)" offset="0.015625"/><stop stop-opacity="1" stop-color="rgb(57.533264%, 30.734253%, 80.412292%)" offset="0.0234375"/><stop stop-opacity="1" stop-color="rgb(57.331848%, 30.636597%, 80.105591%)" offset="0.03125"/><stop stop-opacity="1" stop-color="rgb(57.128906%, 30.53894%, 79.800415%)" offset="0.0390625"/><stop stop-opacity="1" stop-color="rgb(56.92749%, 30.439758%, 79.493713%)" offset="0.046875"/><stop stop-opacity="1" stop-color="rgb(56.724548%, 30.342102%, 79.187012%)" offset="0.0546875"/><stop stop-opacity="1" stop-color="rgb(56.523132%, 30.244446%, 78.88031%)" offset="0.0625"/><stop stop-opacity="1" stop-color="rgb(56.32019%, 30.14679%, 78.573608%)" offset="0.0703125"/><stop stop-opacity="1" stop-color="rgb(56.118774%, 30.049133%, 78.268433%)" offset="0.078125"/><stop stop-opacity="1" stop-color="rgb(55.915833%, 29.949951%, 77.961731%)" offset="0.0859375"/><stop stop-opacity="1" stop-color="rgb(55.714417%, 29.852295%, 77.655029%)" offset="0.09375"/><stop stop-opacity="1" stop-color="rgb(55.511475%, 29.754639%, 77.348328%)" offset="0.101563"/><stop stop-opacity="1" stop-color="rgb(55.310059%, 29.656982%, 77.041626%)" offset="0.109375"/><stop stop-opacity="1" stop-color="rgb(55.107117%, 29.5578%, 76.73645%)" offset="0.117188"/><stop stop-opacity="1" stop-color="rgb(54.905701%, 29.460144%, 76.429749%)" offset="0.125"/><stop stop-opacity="1" stop-color="rgb(54.702759%, 29.362488%, 76.123047%)" offset="0.132813"/><stop stop-opacity="1" stop-color="rgb(54.499817%, 29.264832%, 75.816345%)" offset="0.140625"/><stop stop-opacity="1" stop-color="rgb(54.298401%, 29.167175%, 75.509644%)" offset="0.148438"/><stop stop-opacity="1" stop-color="rgb(54.095459%, 29.067993%, 75.202942%)" offset="0.15625"/><stop stop-opacity="1" stop-color="rgb(53.894043%, 28.970337%, 74.897766%)" offset="0.164063"/><stop stop-opacity="1" stop-color="rgb(53.691101%, 28.872681%, 74.591064%)" offset="0.171875"/><stop stop-opacity="1" stop-color="rgb(53.489685%, 28.775024%, 74.284363%)" offset="0.179688"/><stop stop-opacity="1" stop-color="rgb(53.286743%, 28.677368%, 73.977661%)" offset="0.1875"/><stop stop-opacity="1" stop-color="rgb(53.085327%, 28.578186%, 73.670959%)" offset="0.195313"/><stop stop-opacity="1" stop-color="rgb(52.882385%, 28.48053%, 73.365784%)" offset="0.203125"/><stop stop-opacity="1" stop-color="rgb(52.680969%, 28.382874%, 73.059082%)" offset="0.210938"/><stop stop-opacity="1" stop-color="rgb(52.478027%, 28.285217%, 72.75238%)" offset="0.21875"/><stop stop-opacity="1" stop-color="rgb(52.276611%, 28.187561%, 72.445679%)" offset="0.226563"/><stop stop-opacity="1" stop-color="rgb(52.073669%, 28.088379%, 72.138977%)" offset="0.234375"/><stop stop-opacity="1" stop-color="rgb(51.872253%, 27.990723%, 71.833801%)" offset="0.242188"/><stop stop-opacity="1" stop-color="rgb(51.669312%, 27.893066%, 71.5271%)" offset="0.25"/><stop stop-opacity="1" stop-color="rgb(51.467896%, 27.79541%, 71.220398%)" offset="0.257813"/><stop stop-opacity="1" stop-color="rgb(51.264954%, 27.697754%, 70.913696%)" offset="0.265625"/><stop stop-opacity="1" stop-color="rgb(51.063538%, 27.598572%, 70.606995%)" offset="0.273438"/><stop stop-opacity="1" stop-color="rgb(50.860596%, 27.500916%, 70.301819%)" offset="0.28125"/><stop stop-opacity="1" stop-color="rgb(50.65918%, 27.403259%, 69.995117%)" offset="0.289063"/><stop stop-opacity="1" stop-color="rgb(50.456238%, 27.305603%, 69.688416%)" offset="0.296875"/><stop stop-opacity="1" stop-color="rgb(50.254822%, 27.207947%, 69.381714%)" offset="0.304688"/><stop stop-opacity="1" stop-color="rgb(50.05188%, 27.108765%, 69.075012%)" offset="0.3125"/><stop stop-opacity="1" stop-color="rgb(49.850464%, 27.011108%, 68.769836%)" offset="0.320313"/><stop stop-opacity="1" stop-color="rgb(49.647522%, 26.913452%, 68.463135%)" offset="0.328125"/><stop stop-opacity="1" stop-color="rgb(49.446106%, 26.815796%, 68.156433%)" offset="0.335938"/><stop stop-opacity="1" stop-color="rgb(49.243164%, 26.71814%, 67.849731%)" offset="0.34375"/><stop stop-opacity="1" stop-color="rgb(49.041748%, 26.618958%, 67.54303%)" offset="0.351563"/><stop stop-opacity="1" stop-color="rgb(48.838806%, 26.521301%, 67.237854%)" offset="0.359375"/><stop stop-opacity="1" stop-color="rgb(48.63739%, 26.423645%, 66.931152%)" offset="0.367188"/><stop stop-opacity="1" stop-color="rgb(48.434448%, 26.325989%, 66.624451%)" offset="0.375"/><stop stop-opacity="1" stop-color="rgb(48.233032%, 26.228333%, 66.317749%)" offset="0.382813"/><stop stop-opacity="1" stop-color="rgb(48.03009%, 26.12915%, 66.011047%)" offset="0.390625"/><stop stop-opacity="1" stop-color="rgb(47.828674%, 26.031494%, 65.704346%)" offset="0.398438"/><stop stop-opacity="1" stop-color="rgb(47.625732%, 25.933838%, 65.39917%)" offset="0.40625"/><stop stop-opacity="1" stop-color="rgb(47.424316%, 25.836182%, 65.092468%)" offset="0.414063"/><stop stop-opacity="1" stop-color="rgb(47.221375%, 25.737%, 64.785767%)" offset="0.421875"/><stop stop-opacity="1" stop-color="rgb(47.019958%, 25.639343%, 64.479065%)" offset="0.429688"/><stop stop-opacity="1" stop-color="rgb(46.817017%, 25.541687%, 64.172363%)" offset="0.4375"/><stop stop-opacity="1" stop-color="rgb(46.615601%, 25.444031%, 63.867188%)" offset="0.445313"/><stop stop-opacity="1" stop-color="rgb(46.412659%, 25.346375%, 63.560486%)" offset="0.453125"/><stop stop-opacity="1" stop-color="rgb(46.211243%, 25.247192%, 63.253784%)" offset="0.460938"/><stop stop-opacity="1" stop-color="rgb(46.008301%, 25.149536%, 62.947083%)" offset="0.46875"/><stop stop-opacity="1" stop-color="rgb(45.806885%, 25.05188%, 62.640381%)" offset="0.476563"/><stop stop-opacity="1" stop-color="rgb(45.603943%, 24.954224%, 62.335205%)" offset="0.484375"/><stop stop-opacity="1" stop-color="rgb(45.402527%, 24.856567%, 62.028503%)" offset="0.492188"/><stop stop-opacity="1" stop-color="rgb(45.199585%, 24.757385%, 61.721802%)" offset="0.5"/><stop stop-opacity="1" stop-color="rgb(44.950867%, 24.613953%, 61.381531%)" offset="0.507812"/><stop stop-opacity="1" stop-color="rgb(44.657898%, 24.423218%, 61.00769%)" offset="0.515625"/><stop stop-opacity="1" stop-color="rgb(44.363403%, 24.234009%, 60.63385%)" offset="0.523437"/><stop stop-opacity="1" stop-color="rgb(44.068909%, 24.043274%, 60.26001%)" offset="0.53125"/><stop stop-opacity="1" stop-color="rgb(43.774414%, 23.854065%, 59.886169%)" offset="0.539062"/><stop stop-opacity="1" stop-color="rgb(43.479919%, 23.66333%, 59.512329%)" offset="0.546875"/><stop stop-opacity="1" stop-color="rgb(43.186951%, 23.474121%, 59.138489%)" offset="0.554688"/><stop stop-opacity="1" stop-color="rgb(42.892456%, 23.283386%, 58.764648%)" offset="0.5625"/><stop stop-opacity="1" stop-color="rgb(42.597961%, 23.094177%, 58.392334%)" offset="0.570312"/><stop stop-opacity="1" stop-color="rgb(42.303467%, 22.903442%, 58.018494%)" offset="0.578125"/><stop stop-opacity="1" stop-color="rgb(42.008972%, 22.714233%, 57.644653%)" offset="0.585938"/><stop stop-opacity="1" stop-color="rgb(41.714478%, 22.523499%, 57.270813%)" offset="0.59375"/><stop stop-opacity="1" stop-color="rgb(41.421509%, 22.33429%, 56.896973%)" offset="0.601563"/><stop stop-opacity="1" stop-color="rgb(41.127014%, 22.143555%, 56.523132%)" offset="0.609375"/><stop stop-opacity="1" stop-color="rgb(40.83252%, 21.954346%, 56.149292%)" offset="0.617188"/><stop stop-opacity="1" stop-color="rgb(40.538025%, 21.763611%, 55.775452%)" offset="0.625"/><stop stop-opacity="1" stop-color="rgb(40.24353%, 21.574402%, 55.401611%)" offset="0.632812"/><stop stop-opacity="1" stop-color="rgb(39.949036%, 21.383667%, 55.027771%)" offset="0.640625"/><stop stop-opacity="1" stop-color="rgb(39.656067%, 21.194458%, 54.653931%)" offset="0.648437"/><stop stop-opacity="1" stop-color="rgb(39.361572%, 21.003723%, 54.28009%)" offset="0.65625"/><stop stop-opacity="1" stop-color="rgb(39.067078%, 20.814514%, 53.90625%)" offset="0.664062"/><stop stop-opacity="1" stop-color="rgb(38.772583%, 20.623779%, 53.53241%)" offset="0.671875"/><stop stop-opacity="1" stop-color="rgb(38.478088%, 20.43457%, 53.158569%)" offset="0.679688"/><stop stop-opacity="1" stop-color="rgb(38.18512%, 20.243835%, 52.784729%)" offset="0.6875"/><stop stop-opacity="1" stop-color="rgb(37.890625%, 20.053101%, 52.410889%)" offset="0.695312"/><stop stop-opacity="1" stop-color="rgb(37.59613%, 19.863892%, 52.038574%)" offset="0.703125"/><stop stop-opacity="1" stop-color="rgb(37.301636%, 19.673157%, 51.664734%)" offset="0.710938"/><stop stop-opacity="1" stop-color="rgb(37.007141%, 19.483948%, 51.290894%)" offset="0.71875"/><stop stop-opacity="1" stop-color="rgb(36.712646%, 19.293213%, 50.917053%)" offset="0.726563"/><stop stop-opacity="1" stop-color="rgb(36.419678%, 19.104004%, 50.543213%)" offset="0.734375"/><stop stop-opacity="1" stop-color="rgb(36.125183%, 18.913269%, 50.169373%)" offset="0.742188"/><stop stop-opacity="1" stop-color="rgb(35.830688%, 18.72406%, 49.795532%)" offset="0.75"/><stop stop-opacity="1" stop-color="rgb(35.536194%, 18.533325%, 49.421692%)" offset="0.757812"/><stop stop-opacity="1" stop-color="rgb(35.241699%, 18.344116%, 49.047852%)" offset="0.765625"/><stop stop-opacity="1" stop-color="rgb(34.94873%, 18.153381%, 48.674011%)" offset="0.773437"/><stop stop-opacity="1" stop-color="rgb(34.654236%, 17.964172%, 48.300171%)" offset="0.78125"/><stop stop-opacity="1" stop-color="rgb(34.359741%, 17.773438%, 47.926331%)" offset="0.789062"/><stop stop-opacity="1" stop-color="rgb(34.065247%, 17.584229%, 47.55249%)" offset="0.796875"/><stop stop-opacity="1" stop-color="rgb(33.770752%, 17.393494%, 47.17865%)" offset="0.804688"/><stop stop-opacity="1" stop-color="rgb(33.476257%, 17.204285%, 46.80481%)" offset="0.8125"/><stop stop-opacity="1" stop-color="rgb(33.183289%, 17.01355%, 46.430969%)" offset="0.820312"/><stop stop-opacity="1" stop-color="rgb(32.888794%, 16.824341%, 46.058655%)" offset="0.828125"/><stop stop-opacity="1" stop-color="rgb(32.594299%, 16.633606%, 45.684814%)" offset="0.835938"/><stop stop-opacity="1" stop-color="rgb(32.299805%, 16.444397%, 45.310974%)" offset="0.84375"/><stop stop-opacity="1" stop-color="rgb(32.00531%, 16.253662%, 44.937134%)" offset="0.851563"/><stop stop-opacity="1" stop-color="rgb(31.712341%, 16.064453%, 44.563293%)" offset="0.859375"/><stop stop-opacity="1" stop-color="rgb(31.417847%, 15.873718%, 44.189453%)" offset="0.867188"/><stop stop-opacity="1" stop-color="rgb(31.123352%, 15.684509%, 43.815613%)" offset="0.875"/><stop stop-opacity="1" stop-color="rgb(30.828857%, 15.493774%, 43.441772%)" offset="0.882812"/><stop stop-opacity="1" stop-color="rgb(30.534363%, 15.304565%, 43.067932%)" offset="0.890625"/><stop stop-opacity="1" stop-color="rgb(30.239868%, 15.113831%, 42.694092%)" offset="0.898437"/><stop stop-opacity="1" stop-color="rgb(29.946899%, 14.923096%, 42.320251%)" offset="0.90625"/><stop stop-opacity="1" stop-color="rgb(29.652405%, 14.733887%, 41.946411%)" offset="0.914062"/><stop stop-opacity="1" stop-color="rgb(29.35791%, 14.543152%, 41.572571%)" offset="0.921875"/><stop stop-opacity="1" stop-color="rgb(29.063416%, 14.353943%, 41.19873%)" offset="0.929688"/><stop stop-opacity="1" stop-color="rgb(28.768921%, 14.163208%, 40.82489%)" offset="0.9375"/><stop stop-opacity="1" stop-color="rgb(28.475952%, 13.973999%, 40.45105%)" offset="0.945312"/><stop stop-opacity="1" stop-color="rgb(28.181458%, 13.783264%, 40.077209%)" offset="0.953125"/><stop stop-opacity="1" stop-color="rgb(27.886963%, 13.594055%, 39.704895%)" offset="0.960938"/><stop stop-opacity="1" stop-color="rgb(27.592468%, 13.40332%, 39.331055%)" offset="0.96875"/><stop stop-opacity="1" stop-color="rgb(27.297974%, 13.214111%, 38.957214%)" offset="0.976563"/><stop stop-opacity="1" stop-color="rgb(27.003479%, 13.023376%, 38.583374%)" offset="0.984375"/><stop stop-opacity="1" stop-color="rgb(26.71051%, 12.834167%, 38.209534%)" offset="0.992188"/><stop stop-opacity="1" stop-color="rgb(26.416016%, 12.643433%, 37.835693%)" offset="1"/></linearGradient><clipPath id="9eb66bc0cf"><rect x="0" width="750" y="0" height="750"/></clipPath><clipPath id="2b80bb78b4"><rect x="0" width="750" y="0" height="750"/></clipPath><clipPath id="a4c7b43e50"><path d="M 0.296875 337.796875 L 29.625 337.796875 L 29.625 468.628906 L 0.296875 468.628906 Z M 0.296875 337.796875 " clip-rule="nonzero"/></clipPath><clipPath id="5d1f0ce0a1"><path d="M 14.960938 337.796875 C 18.847656 337.796875 22.578125 339.339844 25.328125 342.089844 C 28.078125 344.839844 29.625 348.570312 29.625 352.460938 L 29.625 453.953125 C 29.625 457.84375 28.078125 461.570312 25.328125 464.320312 C 22.578125 467.070312 18.847656 468.617188 14.960938 468.617188 C 11.070312 468.617188 7.339844 467.070312 4.589844 464.320312 C 1.839844 461.570312 0.296875 457.84375 0.296875 453.953125 L 0.296875 352.460938 C 0.296875 348.570312 1.839844 344.839844 4.589844 342.089844 C 7.339844 339.339844 11.070312 337.796875 14.960938 337.796875 Z M 14.960938 337.796875 " clip-rule="nonzero"/></clipPath><clipPath id="731a5fa587"><path d="M 0.296875 0.796875 L 29.625 0.796875 L 29.625 131.628906 L 0.296875 131.628906 Z M 0.296875 0.796875 " clip-rule="nonzero"/></clipPath><clipPath id="fc96d59bda"><path d="M 14.960938 0.796875 C 18.847656 0.796875 22.578125 2.339844 25.328125 5.089844 C 28.078125 7.839844 29.625 11.570312 29.625 15.460938 L 29.625 116.953125 C 29.625 120.84375 28.078125 124.570312 25.328125 127.320312 C 22.578125 130.070312 18.847656 131.617188 14.960938 131.617188 C 11.070312 131.617188 7.339844 130.070312 4.589844 127.320312 C 1.839844 124.570312 0.296875 120.84375 0.296875 116.953125 L 0.296875 15.460938 C 0.296875 11.570312 1.839844 7.839844 4.589844 5.089844 C 7.339844 2.339844 11.070312 0.796875 14.960938 0.796875 Z M 14.960938 0.796875 " clip-rule="nonzero"/></clipPath><clipPath id="42d922e52d"><rect x="0" width="30" y="0" height="132"/></clipPath><clipPath id="a6c75adf21"><path d="M 36 337.796875 L 61.429688 337.796875 L 61.429688 488.507812 L 36 488.507812 Z M 36 337.796875 " clip-rule="nonzero"/></clipPath><clipPath id="4032a539c5"><path d="M 48.714844 337.796875 C 52.085938 337.796875 55.320312 339.136719 57.707031 341.519531 C 60.09375 343.90625 61.429688 347.140625 61.429688 350.511719 L 61.429688 475.699219 C 61.429688 479.070312 60.09375 482.304688 57.707031 484.691406 C 55.320312 487.074219 52.085938 488.414062 48.714844 488.414062 C 45.34375 488.414062 42.109375 487.074219 39.722656 484.691406 C 37.339844 482.304688 36 479.070312 36 475.699219 L 36 350.511719 C 36 347.140625 37.339844 343.90625 39.722656 341.519531 C 42.109375 339.136719 45.34375 337.796875 48.714844 337.796875 Z M 48.714844 337.796875 " clip-rule="nonzero"/></clipPath><clipPath id="e4485d743c"><path d="M 0 0.796875 L 25.429688 0.796875 L 25.429688 151.507812 L 0 151.507812 Z M 0 0.796875 " clip-rule="nonzero"/></clipPath><clipPath id="7de14cf02e"><path d="M 12.714844 0.796875 C 16.085938 0.796875 19.320312 2.136719 21.707031 4.519531 C 24.09375 6.90625 25.429688 10.140625 25.429688 13.511719 L 25.429688 138.699219 C 25.429688 142.070312 24.09375 145.304688 21.707031 147.691406 C 19.320312 150.074219 16.085938 151.414062 12.714844 151.414062 C 9.34375 151.414062 6.109375 150.074219 3.722656 147.691406 C 1.339844 145.304688 0 142.070312 0 138.699219 L 0 13.511719 C 0 10.140625 1.339844 6.90625 3.722656 4.519531 C 6.109375 2.136719 9.34375 0.796875 12.714844 0.796875 Z M 12.714844 0.796875 " clip-rule="nonzero"/></clipPath><clipPath id="826e84dc81"><rect x="0" width="26" y="0" height="152"/></clipPath><clipPath id="4c19c7b3cb"><path d="M 68.695312 337.796875 L 94.125 337.796875 L 94.125 514.734375 L 68.695312 514.734375 Z M 68.695312 337.796875 " clip-rule="nonzero"/></clipPath><clipPath id="0070fcb31e"><path d="M 81.410156 337.796875 C 84.78125 337.796875 88.015625 339.136719 90.402344 341.519531 C 92.785156 343.90625 94.125 347.140625 94.125 350.511719 L 94.125 502.003906 C 94.125 505.378906 92.785156 508.613281 90.402344 510.996094 C 88.015625 513.382812 84.78125 514.722656 81.410156 514.722656 C 78.039062 514.722656 74.804688 513.382812 72.417969 510.996094 C 70.03125 508.613281 68.695312 505.378906 68.695312 502.003906 L 68.695312 350.511719 C 68.695312 347.140625 70.03125 343.90625 72.417969 341.519531 C 74.804688 339.136719 78.039062 337.796875 81.410156 337.796875 Z M 81.410156 337.796875 " clip-rule="nonzero"/></clipPath><clipPath id="03708b932e"><path d="M 0.695312 0.796875 L 26.125 0.796875 L 26.125 177.734375 L 0.695312 177.734375 Z M 0.695312 0.796875 " clip-rule="nonzero"/></clipPath><clipPath id="f2bfcac64d"><path d="M 13.410156 0.796875 C 16.78125 0.796875 20.015625 2.136719 22.402344 4.519531 C 24.785156 6.90625 26.125 10.140625 26.125 13.511719 L 26.125 165.003906 C 26.125 168.378906 24.785156 171.613281 22.402344 173.996094 C 20.015625 176.382812 16.78125 177.722656 13.410156 177.722656 C 10.039062 177.722656 6.804688 176.382812 4.417969 173.996094 C 2.03125 171.613281 0.695312 168.378906 0.695312 165.003906 L 0.695312 13.511719 C 0.695312 10.140625 2.03125 6.90625 4.417969 4.519531 C 6.804688 2.136719 10.039062 0.796875 13.410156 0.796875 Z M 13.410156 0.796875 " clip-rule="nonzero"/></clipPath><clipPath id="096e302c79"><rect x="0" width="27" y="0" height="178"/></clipPath><clipPath id="baa2131f73"><path d="M 208.761719 281.882812 L 234.195312 281.882812 L 234.195312 490.617188 L 208.761719 490.617188 Z M 208.761719 281.882812 " clip-rule="nonzero"/></clipPath><clipPath id="96380336b4"><path d="M 221.480469 281.882812 C 224.851562 281.882812 228.085938 283.222656 230.46875 285.609375 C 232.855469 287.996094 234.195312 291.230469 234.195312 294.601562 L 234.195312 477.851562 C 234.195312 481.222656 232.855469 484.457031 230.46875 486.84375 C 228.085938 489.226562 224.851562 490.566406 221.480469 490.566406 C 218.105469 490.566406 214.871094 489.226562 212.488281 486.84375 C 210.101562 484.457031 208.761719 481.222656 208.761719 477.851562 L 208.761719 294.601562 C 208.761719 291.230469 210.101562 287.996094 212.488281 285.609375 C 214.871094 283.222656 218.105469 281.882812 221.480469 281.882812 Z M 221.480469 281.882812 " clip-rule="nonzero"/></clipPath><clipPath id="95c4160627"><path d="M 0.761719 0.882812 L 26.195312 0.882812 L 26.195312 209.617188 L 0.761719 209.617188 Z M 0.761719 0.882812 " clip-rule="nonzero"/></clipPath><clipPath id="51845b2216"><path d="M 13.480469 0.882812 C 16.851562 0.882812 20.085938 2.222656 22.46875 4.609375 C 24.855469 6.996094 26.195312 10.230469 26.195312 13.601562 L 26.195312 196.851562 C 26.195312 200.222656 24.855469 203.457031 22.46875 205.84375 C 20.085938 208.226562 16.851562 209.566406 13.480469 209.566406 C 10.105469 209.566406 6.871094 208.226562 4.488281 205.84375 C 2.101562 203.457031 0.761719 200.222656 0.761719 196.851562 L 0.761719 13.601562 C 0.761719 10.230469 2.101562 6.996094 4.488281 4.609375 C 6.871094 2.222656 10.105469 0.882812 13.480469 0.882812 Z M 13.480469 0.882812 " clip-rule="nonzero"/></clipPath><clipPath id="19d41f843f"><rect x="0" width="27" y="0" height="210"/></clipPath><clipPath id="9eb3e83e2c"><path d="M 240.449219 329.503906 L 265.882812 329.503906 L 265.882812 448.125 L 240.449219 448.125 Z M 240.449219 329.503906 " clip-rule="nonzero"/></clipPath><clipPath id="e6d25f0153"><path d="M 253.164062 329.503906 C 256.539062 329.503906 259.773438 330.84375 262.15625 333.226562 C 264.542969 335.613281 265.882812 338.847656 265.882812 342.21875 L 265.882812 435.378906 C 265.882812 438.753906 264.542969 441.988281 262.15625 444.371094 C 259.773438 446.757812 256.539062 448.097656 253.164062 448.097656 C 249.792969 448.097656 246.558594 446.757812 244.171875 444.371094 C 241.789062 441.988281 240.449219 438.753906 240.449219 435.378906 L 240.449219 342.21875 C 240.449219 338.847656 241.789062 335.613281 244.171875 333.226562 C 246.558594 330.84375 249.792969 329.503906 253.164062 329.503906 Z M 253.164062 329.503906 " clip-rule="nonzero"/></clipPath><clipPath id="3dd0f82d08"><path d="M 0.449219 0.503906 L 25.882812 0.503906 L 25.882812 119.125 L 0.449219 119.125 Z M 0.449219 0.503906 " clip-rule="nonzero"/></clipPath><clipPath id="3ad7c1201c"><path d="M 13.164062 0.503906 C 16.539062 0.503906 19.773438 1.84375 22.15625 4.226562 C 24.542969 6.613281 25.882812 9.847656 25.882812 13.21875 L 25.882812 106.378906 C 25.882812 109.753906 24.542969 112.988281 22.15625 115.371094 C 19.773438 117.757812 16.539062 119.097656 13.164062 119.097656 C 9.792969 119.097656 6.558594 117.757812 4.171875 115.371094 C 1.789062 112.988281 0.449219 109.753906 0.449219 106.378906 L 0.449219 13.21875 C 0.449219 9.847656 1.789062 6.613281 4.171875 4.226562 C 6.558594 1.84375 9.792969 0.503906 13.164062 0.503906 Z M 13.164062 0.503906 " clip-rule="nonzero"/></clipPath><clipPath id="c6089c52a4"><rect x="0" width="26" y="0" height="120"/></clipPath><clipPath id="0918e959d0"><path d="M 4.191406 74.113281 L 29.625 74.113281 L 29.625 192.734375 L 4.191406 192.734375 Z M 4.191406 74.113281 " clip-rule="nonzero"/></clipPath><clipPath id="03c12d8b7d"><path d="M 16.90625 74.113281 C 20.28125 74.113281 23.515625 75.453125 25.898438 77.835938 C 28.285156 80.222656 29.625 83.457031 29.625 86.828125 L 29.625 179.988281 C 29.625 183.363281 28.285156 186.597656 25.898438 188.980469 C 23.515625 191.367188 20.28125 192.707031 16.90625 192.707031 C 13.535156 192.707031 10.300781 191.367188 7.914062 188.980469 C 5.53125 186.597656 4.191406 183.363281 4.191406 179.988281 L 4.191406 86.828125 C 4.191406 83.457031 5.53125 80.222656 7.914062 77.835938 C 10.300781 75.453125 13.535156 74.113281 16.90625 74.113281 Z M 16.90625 74.113281 " clip-rule="nonzero"/></clipPath><clipPath id="1cd579b243"><path d="M 0.191406 0.113281 L 25.625 0.113281 L 25.625 118.734375 L 0.191406 118.734375 Z M 0.191406 0.113281 " clip-rule="nonzero"/></clipPath><clipPath id="c4fe0f9112"><path d="M 12.90625 0.113281 C 16.28125 0.113281 19.515625 1.453125 21.898438 3.835938 C 24.285156 6.222656 25.625 9.457031 25.625 12.828125 L 25.625 105.988281 C 25.625 109.363281 24.285156 112.597656 21.898438 114.980469 C 19.515625 117.367188 16.28125 118.707031 12.90625 118.707031 C 9.535156 118.707031 6.300781 117.367188 3.914062 114.980469 C 1.53125 112.597656 0.191406 109.363281 0.191406 105.988281 L 0.191406 12.828125 C 0.191406 9.457031 1.53125 6.222656 3.914062 3.835938 C 6.300781 1.453125 9.535156 0.113281 12.90625 0.113281 Z M 12.90625 0.113281 " clip-rule="nonzero"/></clipPath><clipPath id="9216897104"><rect x="0" width="26" y="0" height="119"/></clipPath><clipPath id="bf160db003"><path d="M 136.949219 426.257812 L 162.382812 426.257812 L 162.382812 519.746094 L 136.949219 519.746094 Z M 136.949219 426.257812 " clip-rule="nonzero"/></clipPath><clipPath id="cce4403b17"><path d="M 149.664062 426.257812 C 153.035156 426.257812 156.273438 427.597656 158.65625 429.984375 C 161.042969 432.367188 162.382812 435.601562 162.382812 438.976562 L 162.382812 507 C 162.382812 510.375 161.042969 513.609375 158.65625 515.992188 C 156.273438 518.378906 153.035156 519.71875 149.664062 519.71875 C 146.292969 519.71875 143.058594 518.378906 140.671875 515.992188 C 138.289062 513.609375 136.949219 510.375 136.949219 507 L 136.949219 438.976562 C 136.949219 435.601562 138.289062 432.367188 140.671875 429.984375 C 143.058594 427.597656 146.292969 426.257812 149.664062 426.257812 Z M 149.664062 426.257812 " clip-rule="nonzero"/></clipPath><clipPath id="1dd9b15153"><path d="M 0.949219 0.257812 L 26.382812 0.257812 L 26.382812 93.746094 L 0.949219 93.746094 Z M 0.949219 0.257812 " clip-rule="nonzero"/></clipPath><clipPath id="44971bf265"><path d="M 13.664062 0.257812 C 17.035156 0.257812 20.273438 1.597656 22.65625 3.984375 C 25.042969 6.367188 26.382812 9.601562 26.382812 12.976562 L 26.382812 81 C 26.382812 84.375 25.042969 87.609375 22.65625 89.992188 C 20.273438 92.378906 17.035156 93.71875 13.664062 93.71875 C 10.292969 93.71875 7.058594 92.378906 4.671875 89.992188 C 2.289062 87.609375 0.949219 84.375 0.949219 81 L 0.949219 12.976562 C 0.949219 9.601562 2.289062 6.367188 4.671875 3.984375 C 7.058594 1.597656 10.292969 0.257812 13.664062 0.257812 Z M 13.664062 0.257812 " clip-rule="nonzero"/></clipPath><clipPath id="f861e3825f"><rect x="0" width="27" y="0" height="94"/></clipPath><clipPath id="3b06682a78"><path d="M 104.203125 426.257812 L 129.636719 426.257812 L 129.636719 519.746094 L 104.203125 519.746094 Z M 104.203125 426.257812 " clip-rule="nonzero"/></clipPath><clipPath id="11ddca4db9"><path d="M 116.917969 426.257812 C 120.292969 426.257812 123.527344 427.597656 125.910156 429.984375 C 128.296875 432.367188 129.636719 435.601562 129.636719 438.976562 L 129.636719 507 C 129.636719 510.375 128.296875 513.609375 125.910156 515.992188 C 123.527344 518.378906 120.292969 519.71875 116.917969 519.71875 C 113.546875 519.71875 110.3125 518.378906 107.925781 515.992188 C 105.542969 513.609375 104.203125 510.375 104.203125 507 L 104.203125 438.976562 C 104.203125 435.601562 105.542969 432.367188 107.925781 429.984375 C 110.3125 427.597656 113.546875 426.257812 116.917969 426.257812 Z M 116.917969 426.257812 " clip-rule="nonzero"/></clipPath><clipPath id="288d0b9f00"><path d="M 0.203125 0.257812 L 25.636719 0.257812 L 25.636719 93.746094 L 0.203125 93.746094 Z M 0.203125 0.257812 " clip-rule="nonzero"/></clipPath><clipPath id="f5baf6b3f9"><path d="M 12.917969 0.257812 C 16.292969 0.257812 19.527344 1.597656 21.910156 3.984375 C 24.296875 6.367188 25.636719 9.601562 25.636719 12.976562 L 25.636719 81 C 25.636719 84.375 24.296875 87.609375 21.910156 89.992188 C 19.527344 92.378906 16.292969 93.71875 12.917969 93.71875 C 9.546875 93.71875 6.3125 92.378906 3.925781 89.992188 C 1.542969 87.609375 0.203125 84.375 0.203125 81 L 0.203125 12.976562 C 0.203125 9.601562 1.542969 6.367188 3.925781 3.984375 C 6.3125 1.597656 9.546875 0.257812 12.917969 0.257812 Z M 12.917969 0.257812 " clip-rule="nonzero"/></clipPath><clipPath id="ca5a326578"><rect x="0" width="26" y="0" height="94"/></clipPath><clipPath id="5acac32699"><path d="M 172.457031 249.421875 L 197.890625 249.421875 L 197.890625 514.78125 L 172.457031 514.78125 Z M 172.457031 249.421875 " clip-rule="nonzero"/></clipPath><clipPath id="fcc4cbf136"><path d="M 185.171875 249.421875 C 188.546875 249.421875 191.78125 250.761719 194.164062 253.144531 C 196.550781 255.53125 197.890625 258.765625 197.890625 262.136719 L 197.890625 502.003906 C 197.890625 505.378906 196.550781 508.613281 194.164062 510.996094 C 191.78125 513.382812 188.546875 514.722656 185.171875 514.722656 C 181.800781 514.722656 178.566406 513.382812 176.179688 510.996094 C 173.796875 508.613281 172.457031 505.378906 172.457031 502.003906 L 172.457031 262.136719 C 172.457031 258.765625 173.796875 255.53125 176.179688 253.144531 C 178.566406 250.761719 181.800781 249.421875 185.171875 249.421875 Z M 185.171875 249.421875 " clip-rule="nonzero"/></clipPath><clipPath id="695cf3bee7"><path d="M 0.457031 0.421875 L 25.890625 0.421875 L 25.890625 265.761719 L 0.457031 265.761719 Z M 0.457031 0.421875 " clip-rule="nonzero"/></clipPath><clipPath id="b783560c8d"><path d="M 13.171875 0.421875 C 16.546875 0.421875 19.78125 1.761719 22.164062 4.144531 C 24.550781 6.53125 25.890625 9.765625 25.890625 13.136719 L 25.890625 253.003906 C 25.890625 256.378906 24.550781 259.613281 22.164062 261.996094 C 19.78125 264.382812 16.546875 265.722656 13.171875 265.722656 C 9.800781 265.722656 6.566406 264.382812 4.179688 261.996094 C 1.796875 259.613281 0.457031 256.378906 0.457031 253.003906 L 0.457031 13.136719 C 0.457031 9.765625 1.796875 6.53125 4.179688 4.144531 C 6.566406 1.761719 9.800781 0.421875 13.171875 0.421875 Z M 13.171875 0.421875 " clip-rule="nonzero"/></clipPath><clipPath id="0fb54252ce"><rect x="0" width="26" y="0" height="266"/></clipPath><clipPath id="143037374c"><path d="M 72.515625 7.644531 L 97.949219 7.644531 L 97.949219 273 L 72.515625 273 Z M 72.515625 7.644531 " clip-rule="nonzero"/></clipPath><clipPath id="2c3d3d9ed8"><path d="M 85.234375 7.644531 C 88.605469 7.644531 91.839844 8.984375 94.226562 11.371094 C 96.609375 13.753906 97.949219 16.988281 97.949219 20.363281 L 97.949219 260.230469 C 97.949219 263.601562 96.609375 266.835938 94.226562 269.222656 C 91.839844 271.605469 88.605469 272.945312 85.234375 272.945312 C 81.859375 272.945312 78.625 271.605469 76.242188 269.222656 C 73.855469 266.835938 72.515625 263.601562 72.515625 260.230469 L 72.515625 20.363281 C 72.515625 16.988281 73.855469 13.753906 76.242188 11.371094 C 78.625 8.984375 81.859375 7.644531 85.234375 7.644531 Z M 85.234375 7.644531 " clip-rule="nonzero"/></clipPath><clipPath id="45ffaf3f14"><path d="M 0.515625 0.644531 L 25.949219 0.644531 L 25.949219 266 L 0.515625 266 Z M 0.515625 0.644531 " clip-rule="nonzero"/></clipPath><clipPath id="af5206b755"><path d="M 13.234375 0.644531 C 16.605469 0.644531 19.839844 1.984375 22.226562 4.371094 C 24.609375 6.753906 25.949219 9.988281 25.949219 13.363281 L 25.949219 253.230469 C 25.949219 256.601562 24.609375 259.835938 22.226562 262.222656 C 19.839844 264.605469 16.605469 265.945312 13.234375 265.945312 C 9.859375 265.945312 6.625 264.605469 4.242188 262.222656 C 1.855469 259.835938 0.515625 256.601562 0.515625 253.230469 L 0.515625 13.363281 C 0.515625 9.988281 1.855469 6.753906 4.242188 4.371094 C 6.625 1.984375 9.859375 0.644531 13.234375 0.644531 Z M 13.234375 0.644531 " clip-rule="nonzero"/></clipPath><clipPath id="739565b297"><rect x="0" width="26" y="0" height="266"/></clipPath><clipPath id="305dc50409"><path d="M 39.210938 29.066406 L 64.644531 29.066406 L 64.644531 237.800781 L 39.210938 237.800781 Z M 39.210938 29.066406 " clip-rule="nonzero"/></clipPath><clipPath id="c306b50e4e"><path d="M 51.929688 29.066406 C 55.300781 29.066406 58.535156 30.40625 60.921875 32.792969 C 63.304688 35.175781 64.644531 38.410156 64.644531 41.785156 L 64.644531 225.035156 C 64.644531 228.40625 63.304688 231.640625 60.921875 234.027344 C 58.535156 236.410156 55.300781 237.75 51.929688 237.75 C 48.554688 237.75 45.320312 236.410156 42.9375 234.027344 C 40.550781 231.640625 39.210938 228.40625 39.210938 225.035156 L 39.210938 41.785156 C 39.210938 38.410156 40.550781 35.175781 42.9375 32.792969 C 45.320312 30.40625 48.554688 29.066406 51.929688 29.066406 Z M 51.929688 29.066406 " clip-rule="nonzero"/></clipPath><clipPath id="9b261d8c38"><path d="M 0.210938 0.0664062 L 25.644531 0.0664062 L 25.644531 208.800781 L 0.210938 208.800781 Z M 0.210938 0.0664062 " clip-rule="nonzero"/></clipPath><clipPath id="6f6bebb8f3"><path d="M 12.929688 0.0664062 C 16.300781 0.0664062 19.535156 1.40625 21.921875 3.792969 C 24.304688 6.175781 25.644531 9.410156 25.644531 12.785156 L 25.644531 196.035156 C 25.644531 199.40625 24.304688 202.640625 21.921875 205.027344 C 19.535156 207.410156 16.300781 208.75 12.929688 208.75 C 9.554688 208.75 6.320312 207.410156 3.9375 205.027344 C 1.550781 202.640625 0.210938 199.40625 0.210938 196.035156 L 0.210938 12.785156 C 0.210938 9.410156 1.550781 6.175781 3.9375 3.792969 C 6.320312 1.40625 9.554688 0.0664062 12.929688 0.0664062 Z M 12.929688 0.0664062 " clip-rule="nonzero"/></clipPath><clipPath id="b771112f48"><rect x="0" width="26" y="0" height="209"/></clipPath><clipPath id="28ee1aa7d2"><path d="M 105.507812 168.4375 L 130.941406 168.4375 L 130.941406 312.691406 L 105.507812 312.691406 Z M 105.507812 168.4375 " clip-rule="nonzero"/></clipPath><clipPath id="5753529d0e"><path d="M 118.222656 168.4375 C 121.59375 168.4375 124.828125 169.777344 127.214844 172.164062 C 129.601562 174.546875 130.941406 177.78125 130.941406 181.15625 L 130.941406 299.953125 C 130.941406 303.324219 129.601562 306.558594 127.214844 308.945312 C 124.828125 311.328125 121.59375 312.667969 118.222656 312.667969 C 114.851562 312.667969 111.617188 311.328125 109.230469 308.945312 C 106.847656 306.558594 105.507812 303.324219 105.507812 299.953125 L 105.507812 181.15625 C 105.507812 177.78125 106.847656 174.546875 109.230469 172.164062 C 111.617188 169.777344 114.851562 168.4375 118.222656 168.4375 Z M 118.222656 168.4375 " clip-rule="nonzero"/></clipPath><clipPath id="f5a2bc394b"><path d="M 0.507812 0.4375 L 25.941406 0.4375 L 25.941406 144.679688 L 0.507812 144.679688 Z M 0.507812 0.4375 " clip-rule="nonzero"/></clipPath><clipPath id="66ba9b73b4"><path d="M 13.222656 0.4375 C 16.59375 0.4375 19.828125 1.777344 22.214844 4.164062 C 24.601562 6.546875 25.941406 9.78125 25.941406 13.15625 L 25.941406 131.953125 C 25.941406 135.324219 24.601562 138.558594 22.214844 140.945312 C 19.828125 143.328125 16.59375 144.667969 13.222656 144.667969 C 9.851562 144.667969 6.617188 143.328125 4.230469 140.945312 C 1.847656 138.558594 0.507812 135.324219 0.507812 131.953125 L 0.507812 13.15625 C 0.507812 9.78125 1.847656 6.546875 4.230469 4.164062 C 6.617188 1.777344 9.851562 0.4375 13.222656 0.4375 Z M 13.222656 0.4375 " clip-rule="nonzero"/></clipPath><clipPath id="ef9abd7706"><rect x="0" width="26" y="0" height="145"/></clipPath><clipPath id="d103770b46"><path d="M 138.496094 209.769531 L 163.929688 209.769531 L 163.929688 354 L 138.496094 354 Z M 138.496094 209.769531 " clip-rule="nonzero"/></clipPath><clipPath id="76219c06a2"><path d="M 151.210938 209.769531 C 154.585938 209.769531 157.820312 211.109375 160.203125 213.492188 C 162.589844 215.878906 163.929688 219.113281 163.929688 222.484375 L 163.929688 341.285156 C 163.929688 344.65625 162.589844 347.890625 160.203125 350.277344 C 157.820312 352.660156 154.585938 354 151.210938 354 C 147.839844 354 144.605469 352.660156 142.222656 350.277344 C 139.835938 347.890625 138.496094 344.65625 138.496094 341.285156 L 138.496094 222.484375 C 138.496094 219.113281 139.835938 215.878906 142.222656 213.492188 C 144.605469 211.109375 147.839844 209.769531 151.210938 209.769531 Z M 151.210938 209.769531 " clip-rule="nonzero"/></clipPath><clipPath id="05ebab4a0d"><path d="M 0.496094 0.769531 L 25.929688 0.769531 L 25.929688 145 L 0.496094 145 Z M 0.496094 0.769531 " clip-rule="nonzero"/></clipPath><clipPath id="cbd6a83def"><path d="M 13.210938 0.769531 C 16.585938 0.769531 19.820312 2.109375 22.203125 4.492188 C 24.589844 6.878906 25.929688 10.113281 25.929688 13.484375 L 25.929688 132.285156 C 25.929688 135.65625 24.589844 138.890625 22.203125 141.277344 C 19.820312 143.660156 16.585938 145 13.210938 145 C 9.839844 145 6.605469 143.660156 4.222656 141.277344 C 1.835938 138.890625 0.496094 135.65625 0.496094 132.285156 L 0.496094 13.484375 C 0.496094 10.113281 1.835938 6.878906 4.222656 4.492188 C 6.605469 2.109375 9.839844 0.769531 13.210938 0.769531 Z M 13.210938 0.769531 " clip-rule="nonzero"/></clipPath><clipPath id="ea56c0bf5b"><rect x="0" width="26" y="0" height="145"/></clipPath><clipPath id="6419ee098b"><path d="M 208.761719 29.066406 L 234.195312 29.066406 L 234.195312 179.878906 L 208.761719 179.878906 Z M 208.761719 29.066406 " clip-rule="nonzero"/></clipPath><clipPath id="1a9853251d"><path d="M 221.480469 29.066406 C 224.851562 29.066406 228.085938 30.40625 230.46875 32.792969 C 232.855469 35.175781 234.195312 38.410156 234.195312 41.785156 L 234.195312 167.121094 C 234.195312 170.492188 232.855469 173.726562 230.46875 176.113281 C 228.085938 178.496094 224.851562 179.835938 221.480469 179.835938 C 218.105469 179.835938 214.871094 178.496094 212.488281 176.113281 C 210.101562 173.726562 208.761719 170.492188 208.761719 167.121094 L 208.761719 41.785156 C 208.761719 38.410156 210.101562 35.175781 212.488281 32.792969 C 214.871094 30.40625 218.105469 29.066406 221.480469 29.066406 Z M 221.480469 29.066406 " clip-rule="nonzero"/></clipPath><clipPath id="6a7d7b62a9"><path d="M 0.761719 0.0664062 L 26.195312 0.0664062 L 26.195312 150.878906 L 0.761719 150.878906 Z M 0.761719 0.0664062 " clip-rule="nonzero"/></clipPath><clipPath id="e06f731089"><path d="M 13.480469 0.0664062 C 16.851562 0.0664062 20.085938 1.40625 22.46875 3.792969 C 24.855469 6.175781 26.195312 9.410156 26.195312 12.785156 L 26.195312 138.121094 C 26.195312 141.492188 24.855469 144.726562 22.46875 147.113281 C 20.085938 149.496094 16.851562 150.835938 13.480469 150.835938 C 10.105469 150.835938 6.871094 149.496094 4.488281 147.113281 C 2.101562 144.726562 0.761719 141.492188 0.761719 138.121094 L 0.761719 12.785156 C 0.761719 9.410156 2.101562 6.175781 4.488281 3.792969 C 6.871094 1.40625 10.105469 0.0664062 13.480469 0.0664062 Z M 13.480469 0.0664062 " clip-rule="nonzero"/></clipPath><clipPath id="924d713e16"><rect x="0" width="27" y="0" height="151"/></clipPath><clipPath id="fdad1fa673"><path d="M 173.761719 7.644531 L 199.195312 7.644531 L 199.195312 179.914062 L 173.761719 179.914062 Z M 173.761719 7.644531 " clip-rule="nonzero"/></clipPath><clipPath id="79a6b912d5"><path d="M 186.476562 7.644531 C 189.851562 7.644531 193.085938 8.984375 195.46875 11.371094 C 197.855469 13.753906 199.195312 16.988281 199.195312 20.363281 L 199.195312 167.121094 C 199.195312 170.492188 197.855469 173.726562 195.46875 176.113281 C 193.085938 178.496094 189.851562 179.835938 186.476562 179.835938 C 183.105469 179.835938 179.871094 178.496094 177.484375 176.113281 C 175.101562 173.726562 173.761719 170.492188 173.761719 167.121094 L 173.761719 20.363281 C 173.761719 16.988281 175.101562 13.753906 177.484375 11.371094 C 179.871094 8.984375 183.105469 7.644531 186.476562 7.644531 Z M 186.476562 7.644531 " clip-rule="nonzero"/></clipPath><clipPath id="49f507bb18"><path d="M 0.761719 0.644531 L 26.195312 0.644531 L 26.195312 172.914062 L 0.761719 172.914062 Z M 0.761719 0.644531 " clip-rule="nonzero"/></clipPath><clipPath id="67ec381e54"><path d="M 13.476562 0.644531 C 16.851562 0.644531 20.085938 1.984375 22.46875 4.371094 C 24.855469 6.753906 26.195312 9.988281 26.195312 13.363281 L 26.195312 160.121094 C 26.195312 163.492188 24.855469 166.726562 22.46875 169.113281 C 20.085938 171.496094 16.851562 172.835938 13.476562 172.835938 C 10.105469 172.835938 6.871094 171.496094 4.484375 169.113281 C 2.101562 166.726562 0.761719 163.492188 0.761719 160.121094 L 0.761719 13.363281 C 0.761719 9.988281 2.101562 6.753906 4.484375 4.371094 C 6.871094 1.984375 10.105469 0.644531 13.476562 0.644531 Z M 13.476562 0.644531 " clip-rule="nonzero"/></clipPath><clipPath id="98a8320e29"><rect x="0" width="27" y="0" height="173"/></clipPath><clipPath id="6ab890dd44"><path d="M 105.507812 0.28125 L 130.941406 0.28125 L 130.941406 93.769531 L 105.507812 93.769531 Z M 105.507812 0.28125 " clip-rule="nonzero"/></clipPath><clipPath id="e3c25dec58"><path d="M 118.222656 0.28125 C 121.59375 0.28125 124.828125 1.621094 127.214844 4.007812 C 129.601562 6.390625 130.941406 9.625 130.941406 13 L 130.941406 81.023438 C 130.941406 84.398438 129.601562 87.632812 127.214844 90.015625 C 124.828125 92.402344 121.59375 93.742188 118.222656 93.742188 C 114.851562 93.742188 111.617188 92.402344 109.230469 90.015625 C 106.847656 87.632812 105.507812 84.398438 105.507812 81.023438 L 105.507812 13 C 105.507812 9.625 106.847656 6.390625 109.230469 4.007812 C 111.617188 1.621094 114.851562 0.28125 118.222656 0.28125 Z M 118.222656 0.28125 " clip-rule="nonzero"/></clipPath><clipPath id="14f0fa1d4d"><path d="M 0.507812 0.28125 L 25.941406 0.28125 L 25.941406 93.769531 L 0.507812 93.769531 Z M 0.507812 0.28125 " clip-rule="nonzero"/></clipPath><clipPath id="7aa469d0f2"><path d="M 13.222656 0.28125 C 16.59375 0.28125 19.828125 1.621094 22.214844 4.007812 C 24.601562 6.390625 25.941406 9.625 25.941406 13 L 25.941406 81.023438 C 25.941406 84.398438 24.601562 87.632812 22.214844 90.015625 C 19.828125 92.402344 16.59375 93.742188 13.222656 93.742188 C 9.851562 93.742188 6.617188 92.402344 4.230469 90.015625 C 1.847656 87.632812 0.507812 84.398438 0.507812 81.023438 L 0.507812 13 C 0.507812 9.625 1.847656 6.390625 4.230469 4.007812 C 6.617188 1.621094 9.851562 0.28125 13.222656 0.28125 Z M 13.222656 0.28125 " clip-rule="nonzero"/></clipPath><clipPath id="dfa8b4bec7"><rect x="0" width="26" y="0" height="94"/></clipPath><clipPath id="b9ecdadbce"><path d="M 138.496094 0.28125 L 163.929688 0.28125 L 163.929688 93.769531 L 138.496094 93.769531 Z M 138.496094 0.28125 " clip-rule="nonzero"/></clipPath><clipPath id="6438c3dc77"><path d="M 151.210938 0.28125 C 154.585938 0.28125 157.820312 1.621094 160.203125 4.007812 C 162.589844 6.390625 163.929688 9.625 163.929688 13 L 163.929688 81.023438 C 163.929688 84.398438 162.589844 87.632812 160.203125 90.015625 C 157.820312 92.402344 154.585938 93.742188 151.210938 93.742188 C 147.839844 93.742188 144.605469 92.402344 142.222656 90.015625 C 139.835938 87.632812 138.496094 84.398438 138.496094 81.023438 L 138.496094 13 C 138.496094 9.625 139.835938 6.390625 142.222656 4.007812 C 144.605469 1.621094 147.839844 0.28125 151.210938 0.28125 Z M 151.210938 0.28125 " clip-rule="nonzero"/></clipPath><clipPath id="df3237fc9b"><path d="M 0.496094 0.28125 L 25.929688 0.28125 L 25.929688 93.769531 L 0.496094 93.769531 Z M 0.496094 0.28125 " clip-rule="nonzero"/></clipPath><clipPath id="972626d5ee"><path d="M 13.210938 0.28125 C 16.585938 0.28125 19.820312 1.621094 22.203125 4.007812 C 24.589844 6.390625 25.929688 9.625 25.929688 13 L 25.929688 81.023438 C 25.929688 84.398438 24.589844 87.632812 22.203125 90.015625 C 19.820312 92.402344 16.585938 93.742188 13.210938 93.742188 C 9.839844 93.742188 6.605469 92.402344 4.222656 90.015625 C 1.835938 87.632812 0.496094 84.398438 0.496094 81.023438 L 0.496094 13 C 0.496094 9.625 1.835938 6.390625 4.222656 4.007812 C 6.605469 1.621094 9.839844 0.28125 13.210938 0.28125 Z M 13.210938 0.28125 " clip-rule="nonzero"/></clipPath><clipPath id="8480aae4e4"><rect x="0" width="26" y="0" height="94"/></clipPath><clipPath id="5b213742d0"><path d="M 244.269531 66.390625 L 269.703125 66.390625 L 269.703125 179.847656 L 244.269531 179.847656 Z M 244.269531 66.390625 " clip-rule="nonzero"/></clipPath><clipPath id="03e5af1748"><path d="M 256.988281 66.390625 C 260.359375 66.390625 263.59375 67.730469 265.980469 70.117188 C 268.363281 72.5 269.703125 75.734375 269.703125 79.109375 L 269.703125 167.121094 C 269.703125 170.492188 268.363281 173.726562 265.980469 176.113281 C 263.59375 178.496094 260.359375 179.835938 256.988281 179.835938 C 253.613281 179.835938 250.378906 178.496094 247.996094 176.113281 C 245.609375 173.726562 244.269531 170.492188 244.269531 167.121094 L 244.269531 79.109375 C 244.269531 75.734375 245.609375 72.5 247.996094 70.117188 C 250.378906 67.730469 253.613281 66.390625 256.988281 66.390625 Z M 256.988281 66.390625 " clip-rule="nonzero"/></clipPath><clipPath id="d713e317ca"><path d="M 0.269531 0.390625 L 25.703125 0.390625 L 25.703125 113.847656 L 0.269531 113.847656 Z M 0.269531 0.390625 " clip-rule="nonzero"/></clipPath><clipPath id="8b22ee01af"><path d="M 12.988281 0.390625 C 16.359375 0.390625 19.59375 1.730469 21.980469 4.117188 C 24.363281 6.5 25.703125 9.734375 25.703125 13.109375 L 25.703125 101.121094 C 25.703125 104.492188 24.363281 107.726562 21.980469 110.113281 C 19.59375 112.496094 16.359375 113.835938 12.988281 113.835938 C 9.613281 113.835938 6.378906 112.496094 3.996094 110.113281 C 1.609375 107.726562 0.269531 104.492188 0.269531 101.121094 L 0.269531 13.109375 C 0.269531 9.734375 1.609375 6.5 3.996094 4.117188 C 6.378906 1.730469 9.613281 0.390625 12.988281 0.390625 Z M 12.988281 0.390625 " clip-rule="nonzero"/></clipPath><clipPath id="203510b99f"><rect x="0" width="26" y="0" height="114"/></clipPath><clipPath id="7273054fbc"><rect x="0" width="270" y="0" height="520"/></clipPath></defs><g transform="matrix(1, 0, 0, 1, 0, -0.000000000000042435)"><g clip-path="url(#2b80bb78b4)"><g clip-path="url(#1e42f305d9)"><g clip-path="url(#2254bae1df)"><g transform="matrix(1, 0, 0, 1, 0, -0.000000000000042435)"><g clip-path="url(#9eb66bc0cf)"><g clip-path="url(#cdb1cef904)"><g clip-path="url(#20569c09c4)"><rect x="-273" fill="url(#73a49ed616)" width="1296" y="-272.999998" height="1295.999991"/></g></g></g></g></g></g></g></g><g transform="matrix(1, 0, 0, 1, 240, 115)"><g clip-path="url(#7273054fbc)"><g clip-path="url(#a4c7b43e50)"><g clip-path="url(#5d1f0ce0a1)"><g transform="matrix(1, 0, 0, 1, -0.000000000000056843, 337)"><g clip-path="url(#42d922e52d)"><g clip-path="url(#731a5fa587)"><g clip-path="url(#fc96d59bda)"><path fill="#ffffff" d="M 0.296875 0.796875 L 29.625 0.796875 L 29.625 131.628906 L 0.296875 131.628906 Z M 0.296875 0.796875 " fill-opacity="1" fill-rule="nonzero"/></g></g></g></g></g></g><g clip-path="url(#a6c75adf21)"><g clip-path="url(#4032a539c5)"><g transform="matrix(1, 0, 0, 1, 36, 337)"><g clip-path="url(#826e84dc81)"><g clip-path="url(#e4485d743c)"><g clip-path="url(#7de14cf02e)"><path fill="#ffffff" d="M 0 0.796875 L 25.429688 0.796875 L 25.429688 151.410156 L 0 151.410156 Z M 0 0.796875 " fill-opacity="1" fill-rule="nonzero"/></g></g></g></g></g></g><g clip-path="url(#4c19c7b3cb)"><g clip-path="url(#0070fcb31e)"><g transform="matrix(1, 0, 0, 1, 68, 337)"><g clip-path="url(#096e302c79)"><g clip-path="url(#03708b932e)"><g clip-path="url(#f2bfcac64d)"><path fill="#ffffff" d="M 0.695312 0.796875 L 26.125 0.796875 L 26.125 177.734375 L 0.695312 177.734375 Z M 0.695312 0.796875 " fill-opacity="1" fill-rule="nonzero"/></g></g></g></g></g></g><g clip-path="url(#baa2131f73)"><g clip-path="url(#96380336b4)"><g transform="matrix(1, 0, 0, 1, 208, 281)"><g clip-path="url(#19d41f843f)"><g clip-path="url(#95c4160627)"><g clip-path="url(#51845b2216)"><path fill="#ffffff" d="M 0.761719 0.882812 L 26.195312 0.882812 L 26.195312 209.617188 L 0.761719 209.617188 Z M 0.761719 0.882812 " fill-opacity="1" fill-rule="nonzero"/></g></g></g></g></g></g><g clip-path="url(#9eb3e83e2c)"><g clip-path="url(#e6d25f0153)"><g transform="matrix(1, 0, 0, 1, 240, 329)"><g clip-path="url(#c6089c52a4)"><g clip-path="url(#3dd0f82d08)"><g clip-path="url(#3ad7c1201c)"><path fill="#ffffff" d="M 0.449219 0.503906 L 25.882812 0.503906 L 25.882812 119.125 L 0.449219 119.125 Z M 0.449219 0.503906 " fill-opacity="1" fill-rule="nonzero"/></g></g></g></g></g></g><g clip-path="url(#0918e959d0)"><g clip-path="url(#03c12d8b7d)"><g transform="matrix(1, 0, 0, 1, 4, 74)"><g clip-path="url(#9216897104)"><g clip-path="url(#1cd579b243)"><g clip-path="url(#c4fe0f9112)"><path fill="#ffffff" d="M 0.191406 0.113281 L 25.625 0.113281 L 25.625 118.734375 L 0.191406 118.734375 Z M 0.191406 0.113281 " fill-opacity="1" fill-rule="nonzero"/></g></g></g></g></g></g><g clip-path="url(#bf160db003)"><g clip-path="url(#cce4403b17)"><g transform="matrix(1, 0, 0, 1, 136, 426)"><g clip-path="url(#f861e3825f)"><g clip-path="url(#1dd9b15153)"><g clip-path="url(#44971bf265)"><path fill="#ffffff" d="M 0.949219 0.257812 L 26.382812 0.257812 L 26.382812 93.746094 L 0.949219 93.746094 Z M 0.949219 0.257812 " fill-opacity="1" fill-rule="nonzero"/></g></g></g></g></g></g><g clip-path="url(#3b06682a78)"><g clip-path="url(#11ddca4db9)"><g transform="matrix(1, 0, 0, 1, 104, 426)"><g clip-path="url(#ca5a326578)"><g clip-path="url(#288d0b9f00)"><g clip-path="url(#f5baf6b3f9)"><path fill="#ffffff" d="M 0.203125 0.257812 L 25.636719 0.257812 L 25.636719 93.746094 L 0.203125 93.746094 Z M 0.203125 0.257812 " fill-opacity="1" fill-rule="nonzero"/></g></g></g></g></g></g><g clip-path="url(#5acac32699)"><g clip-path="url(#fcc4cbf136)"><g transform="matrix(1, 0, 0, 1, 172, 249)"><g clip-path="url(#0fb54252ce)"><g clip-path="url(#695cf3bee7)"><g clip-path="url(#b783560c8d)"><path fill="#ffffff" d="M 0.457031 0.421875 L 25.890625 0.421875 L 25.890625 265.683594 L 0.457031 265.683594 Z M 0.457031 0.421875 " fill-opacity="1" fill-rule="nonzero"/></g></g></g></g></g></g><g clip-path="url(#143037374c)"><g clip-path="url(#2c3d3d9ed8)"><g transform="matrix(1, 0, 0, 1, 72, 7)"><g clip-path="url(#739565b297)"><g clip-path="url(#45ffaf3f14)"><g clip-path="url(#af5206b755)"><path fill="#ffffff" d="M 0.515625 0.644531 L 25.949219 0.644531 L 25.949219 265.90625 L 0.515625 265.90625 Z M 0.515625 0.644531 " fill-opacity="1" fill-rule="nonzero"/></g></g></g></g></g></g><g clip-path="url(#305dc50409)"><g clip-path="url(#c306b50e4e)"><g transform="matrix(1, 0, 0, 1, 39, 29)"><g clip-path="url(#b771112f48)"><g clip-path="url(#9b261d8c38)"><g clip-path="url(#6f6bebb8f3)"><path fill="#ffffff" d="M 0.210938 0.0664062 L 25.644531 0.0664062 L 25.644531 208.800781 L 0.210938 208.800781 Z M 0.210938 0.0664062 " fill-opacity="1" fill-rule="nonzero"/></g></g></g></g></g></g><g clip-path="url(#28ee1aa7d2)"><g clip-path="url(#5753529d0e)"><g transform="matrix(1, 0, 0, 1, 105, 168)"><g clip-path="url(#ef9abd7706)"><g clip-path="url(#f5a2bc394b)"><g clip-path="url(#66ba9b73b4)"><path fill="#ffffff" d="M 0.507812 0.4375 L 25.941406 0.4375 L 25.941406 144.691406 L 0.507812 144.691406 Z M 0.507812 0.4375 " fill-opacity="1" fill-rule="nonzero"/></g></g></g></g></g></g><g clip-path="url(#d103770b46)"><g clip-path="url(#76219c06a2)"><g transform="matrix(1, 0, 0, 1, 138, 209)"><g clip-path="url(#ea56c0bf5b)"><g clip-path="url(#05ebab4a0d)"><g clip-path="url(#cbd6a83def)"><path fill="#ffffff" d="M 0.496094 0.769531 L 25.929688 0.769531 L 25.929688 145.023438 L 0.496094 145.023438 Z M 0.496094 0.769531 " fill-opacity="1" fill-rule="nonzero"/></g></g></g></g></g></g><g clip-path="url(#6419ee098b)"><g clip-path="url(#1a9853251d)"><g transform="matrix(1, 0, 0, 1, 208, 29)"><g clip-path="url(#924d713e16)"><g clip-path="url(#6a7d7b62a9)"><g clip-path="url(#e06f731089)"><path fill="#ffffff" d="M 0.761719 0.0664062 L 26.195312 0.0664062 L 26.195312 150.878906 L 0.761719 150.878906 Z M 0.761719 0.0664062 " fill-opacity="1" fill-rule="nonzero"/></g></g></g></g></g></g><g clip-path="url(#fdad1fa673)"><g clip-path="url(#79a6b912d5)"><g transform="matrix(1, 0, 0, 1, 173, 7)"><g clip-path="url(#98a8320e29)"><g clip-path="url(#49f507bb18)"><g clip-path="url(#67ec381e54)"><path fill="#ffffff" d="M 0.761719 0.644531 L 26.195312 0.644531 L 26.195312 172.816406 L 0.761719 172.816406 Z M 0.761719 0.644531 " fill-opacity="1" fill-rule="nonzero"/></g></g></g></g></g></g><g clip-path="url(#6ab890dd44)"><g clip-path="url(#e3c25dec58)"><g transform="matrix(1, 0, 0, 1, 105, -0.000000000000071054)"><g clip-path="url(#dfa8b4bec7)"><g clip-path="url(#14f0fa1d4d)"><g clip-path="url(#7aa469d0f2)"><path fill="#ffffff" d="M 0.507812 0.28125 L 25.941406 0.28125 L 25.941406 93.769531 L 0.507812 93.769531 Z M 0.507812 0.28125 " fill-opacity="1" fill-rule="nonzero"/></g></g></g></g></g></g><g clip-path="url(#b9ecdadbce)"><g clip-path="url(#6438c3dc77)"><g transform="matrix(1, 0, 0, 1, 138, -0.000000000000071054)"><g clip-path="url(#8480aae4e4)"><g clip-path="url(#df3237fc9b)"><g clip-path="url(#972626d5ee)"><path fill="#ffffff" d="M 0.496094 0.28125 L 25.929688 0.28125 L 25.929688 93.769531 L 0.496094 93.769531 Z M 0.496094 0.28125 " fill-opacity="1" fill-rule="nonzero"/></g></g></g></g></g></g><g clip-path="url(#5b213742d0)"><g clip-path="url(#03e5af1748)"><g transform="matrix(1, 0, 0, 1, 244, 66)"><g clip-path="url(#203510b99f)"><g clip-path="url(#d713e317ca)"><g clip-path="url(#8b22ee01af)"><path fill="#ffffff" d="M 0.269531 0.390625 L 25.703125 0.390625 L 25.703125 113.847656 L 0.269531 113.847656 Z M 0.269531 0.390625 " fill-opacity="1" fill-rule="nonzero"/></g></g></g></g></g></g></g></g></svg>