<svg xmlns="http://www.w3.org/2000/svg" xmlns:xlink="http://www.w3.org/1999/xlink" width="1000" zoomAndPan="magnify" viewBox="0 0 750 757.92" height="1000" preserveAspectRatio="xMidYMid meet" version="1.0"><defs><clipPath id="eefa0f2768"><path d="M 636 5 L 744.617188 5 L 744.617188 744 L 636 744 Z M 636 5 " clip-rule="nonzero"/></clipPath></defs><path fill="#ffffff" d="M 617.4375 356.210938 C 642.644531 367.269531 643.445312 379.90625 619.167969 392.433594 L 40.605469 733.488281 C 15.542969 749.800781 5.695312 745.261719 6.464844 722.046875 L 6.464844 24.21875 C 5.222656 3.210938 18.257812 0.0976562 39.109375 15.28125 Z M 617.4375 356.210938 " fill-opacity="1" fill-rule="evenodd"/><g clip-path="url(#eefa0f2768)"><path fill="#ffffff" d="M 744.867188 59.808594 C 744.867188 30.003906 720.664062 5.796875 690.851562 5.796875 C 661.054688 5.796875 636.851562 30.003906 636.851562 59.808594 L 636.851562 689.191406 C 636.851562 718.996094 661.054688 743.195312 690.851562 743.195312 C 720.664062 743.195312 744.867188 718.996094 744.867188 689.191406 Z M 744.867188 59.808594 " fill-opacity="1" fill-rule="evenodd"/></g></svg>