<svg xmlns="http://www.w3.org/2000/svg" xmlns:xlink="http://www.w3.org/1999/xlink" width="1000" zoomAndPan="magnify" viewBox="0 0 750 757.92" height="1000" preserveAspectRatio="xMidYMid meet" version="1.0"><defs><clipPath id="7dbcca01b4"><path d="M 0.0390625 0 L 749.960938 0 L 749.960938 749.921875 L 0.0390625 749.921875 Z M 0.0390625 0 " clip-rule="nonzero"/></clipPath></defs><g clip-path="url(#7dbcca01b4)"><path fill="#ffffff" d="M 375 0 C 167.816406 0 0.0390625 168.902344 0.0390625 374.960938 C 0.0390625 582.144531 168.941406 749.921875 375 749.921875 C 582.183594 749.921875 749.960938 581.019531 749.960938 374.960938 C 749.960938 167.773438 582.183594 0 375 0 Z M 375 716.140625 C 186.957031 716.140625 33.820312 563.003906 33.820312 374.960938 C 33.820312 186.917969 186.957031 33.78125 375 33.78125 C 563.042969 33.78125 716.179688 186.917969 716.179688 374.960938 C 716.179688 563.003906 563.042969 716.140625 375 716.140625 Z M 375 716.140625 " fill-opacity="1" fill-rule="nonzero"/></g><path fill="#ffffff" d="M 328.832031 192.546875 L 278.164062 192.546875 C 265.777344 192.546875 255.644531 202.679688 255.644531 215.066406 L 255.644531 533.726562 C 255.644531 546.113281 265.777344 556.246094 278.164062 556.246094 L 328.832031 556.246094 C 341.21875 556.246094 351.355469 546.113281 351.355469 533.726562 L 351.355469 215.066406 C 351.355469 202.679688 341.21875 192.546875 328.832031 192.546875 Z M 328.832031 192.546875 " fill-opacity="1" fill-rule="nonzero"/><path fill="#ffffff" d="M 471.835938 192.546875 L 421.167969 192.546875 C 408.78125 192.546875 398.644531 202.679688 398.644531 215.066406 L 398.644531 533.726562 C 398.644531 546.113281 408.78125 556.246094 421.167969 556.246094 L 471.835938 556.246094 C 484.222656 556.246094 494.355469 546.113281 494.355469 533.726562 L 494.355469 215.066406 C 494.355469 202.679688 484.222656 192.546875 471.835938 192.546875 Z M 471.835938 192.546875 " fill-opacity="1" fill-rule="nonzero"/></svg>