<svg xmlns="http://www.w3.org/2000/svg" xmlns:xlink="http://www.w3.org/1999/xlink" width="1000" zoomAndPan="magnify" viewBox="0 0 750 749.999995" height="1000" preserveAspectRatio="xMidYMid meet" version="1.0"><defs><clipPath id="fab6cbe493"><path d="M 86.25 383 L 663.75 383 L 663.75 750 L 86.25 750 Z M 86.25 383 " clip-rule="nonzero"/></clipPath></defs><g clip-path="url(#fab6cbe493)"><path fill="#ffffff" d="M 536.96875 383.992188 C 492.789062 419.734375 436.300781 441.113281 375 441.113281 C 314.015625 441.113281 257.527344 419.8125 213.347656 383.992188 C 136.742188 435.667969 86.25 523.714844 86.25 623.199219 L 86.25 700.121094 C 86.25 727.496094 108.8125 749.742188 136.109375 749.742188 L 614.203125 749.742188 C 641.582031 749.742188 663.75 727.496094 663.75 700.121094 L 663.75 623.199219 C 663.75 543.28125 631.5625 471.171875 579.332031 418.863281 C 566.394531 405.925781 552.273438 394.25 536.96875 383.992188 Z M 536.96875 383.992188 " fill-opacity="1" fill-rule="nonzero"/></g><path fill="#ffffff" d="M 375.15625 366.085938 C 476.21875 366.085938 558.03125 284.195312 558.03125 183.210938 C 558.03125 82.226562 476.140625 0.257812 375.15625 0.257812 C 274.175781 0.257812 192.28125 82.148438 192.28125 183.132812 C 192.28125 284.113281 274.09375 366.085938 375.15625 366.085938 Z M 375.15625 366.085938 " fill-opacity="1" fill-rule="nonzero"/></svg>