<svg xmlns="http://www.w3.org/2000/svg" xmlns:xlink="http://www.w3.org/1999/xlink" width="1000" zoomAndPan="magnify" viewBox="0 0 750 757.92" height="1000" preserveAspectRatio="xMidYMid meet" version="1.0"><defs><clipPath id="780ea3d7a5"><path d="M 0.0390625 0 L 749.960938 0 L 749.960938 749.921875 L 0.0390625 749.921875 Z M 0.0390625 0 " clip-rule="nonzero"/></clipPath></defs><g clip-path="url(#780ea3d7a5)"><path fill="#ffffff" d="M 375 0 C 168.214844 0 0.113281 168.25 0.113281 375.035156 C 0.113281 581.820312 168.214844 749.921875 375 749.921875 C 581.785156 749.921875 749.886719 581.820312 749.886719 375.035156 C 749.886719 168.25 581.785156 0 375 0 Z M 375 689.1875 C 201.804688 689.1875 60.847656 548.234375 60.847656 375.035156 C 60.847656 201.839844 201.804688 60.882812 375 60.882812 C 548.195312 60.882812 689.152344 201.839844 689.152344 375.035156 C 689.152344 548.234375 548.195312 689.1875 375 689.1875 Z M 375 689.1875 " fill-opacity="1" fill-rule="nonzero"/></g><path fill="#ffffff" d="M 541.898438 363.789062 L 276.179688 210.386719 C 267.632812 205.4375 256.835938 211.585938 256.835938 221.480469 L 256.835938 528.4375 C 256.835938 538.335938 267.632812 544.484375 276.179688 539.535156 L 542.050781 386.132812 C 550.597656 381.183594 550.597656 368.738281 541.898438 363.789062 Z M 541.898438 363.789062 " fill-opacity="1" fill-rule="nonzero"/></svg>