<svg xmlns="http://www.w3.org/2000/svg" xmlns:xlink="http://www.w3.org/1999/xlink" width="1000" zoomAndPan="magnify" viewBox="0 0 750 749.999995" height="1000" preserveAspectRatio="xMidYMid meet" version="1.0"><defs><clipPath id="310c4d1924"><path d="M 117 96.09375 L 750 96.09375 L 750 522 L 117 522 Z M 117 96.09375 " clip-rule="nonzero"/></clipPath></defs><g clip-path="url(#310c4d1924)"><path fill="#e0a7ff" d="M 547.722656 177.34375 L 237.21875 177.34375 L 274.332031 140.230469 L 230.199219 96.09375 L 148.949219 177.34375 L 148.457031 177.34375 L 148.457031 177.835938 L 117.738281 208.554688 L 148.457031 239.269531 L 148.457031 239.761719 L 148.949219 239.761719 L 230.199219 321.015625 L 274.332031 276.878906 L 237.21875 239.761719 L 547.722656 239.761719 C 624.488281 239.761719 686.945312 302.222656 686.945312 378.988281 C 686.945312 416.050781 672.546875 450.933594 646.40625 477.199219 L 690.648438 521.230469 C 728.511719 483.1875 749.363281 432.671875 749.363281 378.988281 C 749.363281 267.800781 658.90625 177.34375 547.722656 177.34375 Z M 547.722656 177.34375 " fill-opacity="1" fill-rule="nonzero"/></g><path fill="#e0a7ff" d="M 202.234375 572.664062 L 512.738281 572.664062 L 475.617188 609.785156 L 519.753906 653.921875 L 601.007812 572.664062 L 601.496094 572.664062 L 601.496094 572.175781 L 632.21875 541.457031 L 601.496094 510.738281 L 601.496094 510.246094 L 601.007812 510.246094 L 519.753906 429 L 475.617188 473.136719 L 512.730469 510.246094 L 202.234375 510.246094 C 125.46875 510.246094 63.011719 447.789062 63.011719 371.023438 C 63.011719 333.964844 77.40625 299.085938 103.546875 272.8125 L 59.300781 228.785156 C 21.445312 266.832031 0.59375 317.351562 0.59375 371.023438 C 0.59375 482.210938 91.046875 572.664062 202.234375 572.664062 Z M 202.234375 572.664062 " fill-opacity="1" fill-rule="nonzero"/></svg>