<svg xmlns="http://www.w3.org/2000/svg" xmlns:xlink="http://www.w3.org/1999/xlink" width="1000" zoomAndPan="magnify" viewBox="0 0 750 757.92" height="1000" preserveAspectRatio="xMidYMid meet" version="1.0"><defs><clipPath id="3eb9933a8a"><path d="M 117 96.082031 L 749.960938 96.082031 L 749.960938 522 L 117 522 Z M 117 96.082031 " clip-rule="nonzero"/></clipPath><clipPath id="f1225f5ef9"><path d="M 0.0390625 228 L 633 228 L 633 654 L 0.0390625 654 Z M 0.0390625 228 " clip-rule="nonzero"/></clipPath></defs><g clip-path="url(#3eb9933a8a)"><path fill="#ffffff" d="M 547.703125 177.324219 L 237.234375 177.324219 L 274.34375 140.214844 L 230.210938 96.082031 L 148.972656 177.324219 L 148.480469 177.324219 L 148.480469 177.816406 L 117.765625 208.53125 L 148.480469 239.246094 L 148.480469 239.738281 L 148.972656 239.738281 L 230.214844 320.984375 L 274.34375 276.851562 L 237.234375 239.738281 L 547.703125 239.738281 C 624.460938 239.738281 686.910156 302.191406 686.910156 378.949219 C 686.910156 416.007812 672.515625 450.882812 646.375 477.148438 L 690.613281 521.175781 C 728.476562 483.132812 749.324219 432.625 749.324219 378.949219 C 749.324219 267.773438 658.878906 177.324219 547.703125 177.324219 Z M 547.703125 177.324219 " fill-opacity="1" fill-rule="nonzero"/></g><g clip-path="url(#f1225f5ef9)"><path fill="#ffffff" d="M 202.253906 572.605469 L 512.722656 572.605469 L 475.609375 609.722656 L 519.738281 653.855469 L 600.984375 572.605469 L 601.472656 572.605469 L 601.472656 572.117188 L 632.191406 541.398438 L 601.472656 510.683594 L 601.472656 510.191406 L 600.984375 510.191406 L 519.738281 428.953125 L 475.609375 473.085938 L 512.71875 510.191406 L 202.253906 510.191406 C 125.496094 510.191406 63.046875 447.742188 63.046875 370.984375 C 63.046875 333.929688 77.4375 299.054688 103.574219 272.785156 L 59.332031 228.761719 C 21.480469 266.804688 0.632812 317.316406 0.632812 370.984375 C 0.632812 482.160156 91.078125 572.605469 202.253906 572.605469 Z M 202.253906 572.605469 " fill-opacity="1" fill-rule="nonzero"/></g></svg>