<svg xmlns="http://www.w3.org/2000/svg" xmlns:xlink="http://www.w3.org/1999/xlink" width="1000" zoomAndPan="magnify" viewBox="0 0 750 749.999995" height="1000" preserveAspectRatio="xMidYMid meet" version="1.0"><defs><clipPath id="1e6673a4c8"><path d="M 80.15625 0 L 669.65625 0 L 669.65625 750 L 80.15625 750 Z M 80.15625 0 " clip-rule="nonzero"/></clipPath></defs><g clip-path="url(#1e6673a4c8)"><path fill="#ffffff" d="M 589.285156 267.855469 L 589.285156 214.285156 C 589.285156 210.777344 589.199219 207.273438 589.027344 203.769531 C 588.855469 200.269531 588.597656 196.773438 588.253906 193.28125 C 587.910156 189.792969 587.480469 186.3125 586.964844 182.84375 C 586.453125 179.375 585.851562 175.921875 585.167969 172.480469 C 584.484375 169.042969 583.714844 165.621094 582.863281 162.21875 C 582.011719 158.816406 581.078125 155.4375 580.058594 152.082031 C 579.039062 148.726562 577.941406 145.398438 576.757812 142.09375 C 575.578125 138.792969 574.316406 135.523438 572.972656 132.28125 C 571.632812 129.042969 570.210938 125.835938 568.710938 122.667969 C 567.210938 119.496094 565.636719 116.363281 563.984375 113.273438 C 562.328125 110.179688 560.601562 107.128906 558.800781 104.121094 C 556.996094 101.113281 555.121094 98.152344 553.171875 95.234375 C 551.222656 92.320312 549.203125 89.453125 547.117188 86.636719 C 545.027344 83.820312 542.871094 81.054688 540.644531 78.34375 C 538.421875 75.632812 536.128906 72.980469 533.773438 70.378906 C 531.421875 67.78125 529.003906 65.242188 526.523438 62.761719 C 524.042969 60.28125 521.503906 57.867188 518.90625 55.511719 C 516.308594 53.15625 513.652344 50.867188 510.941406 48.640625 C 508.230469 46.414062 505.464844 44.257812 502.648438 42.167969 C 499.832031 40.082031 496.964844 38.0625 494.050781 36.113281 C 491.136719 34.164062 488.171875 32.289062 485.164062 30.488281 C 482.15625 28.683594 479.105469 26.957031 476.011719 25.300781 C 472.921875 23.648438 469.789062 22.074219 466.617188 20.574219 C 463.449219 19.074219 460.242188 17.652344 457.003906 16.3125 C 453.761719 14.96875 450.492188 13.707031 447.191406 12.527344 C 443.890625 11.34375 440.558594 10.246094 437.203125 9.226562 C 433.847656 8.210938 430.46875 7.273438 427.066406 6.421875 C 423.664062 5.570312 420.246094 4.800781 416.804688 4.117188 C 413.367188 3.433594 409.910156 2.832031 406.441406 2.320312 C 402.972656 1.804688 399.492188 1.375 396.003906 1.03125 C 392.511719 0.6875 389.015625 0.429688 385.515625 0.257812 C 382.011719 0.0859375 378.507812 0 375 0 C 371.492188 0 367.988281 0.0859375 364.484375 0.257812 C 360.984375 0.429688 357.488281 0.6875 353.996094 1.03125 C 350.507812 1.375 347.027344 1.804688 343.558594 2.320312 C 340.089844 2.832031 336.632812 3.433594 333.195312 4.117188 C 329.753906 4.800781 326.335938 5.570312 322.933594 6.421875 C 319.53125 7.273438 316.152344 8.210938 312.796875 9.226562 C 309.441406 10.246094 306.109375 11.34375 302.808594 12.527344 C 299.507812 13.707031 296.238281 14.96875 292.996094 16.3125 C 289.757812 17.652344 286.550781 19.074219 283.382812 20.574219 C 280.210938 22.074219 277.078125 23.648438 273.988281 25.300781 C 270.894531 26.957031 267.84375 28.683594 264.835938 30.488281 C 261.828125 32.289062 258.863281 34.164062 255.949219 36.113281 C 253.035156 38.0625 250.167969 40.082031 247.351562 42.167969 C 244.535156 44.257812 241.769531 46.414062 239.058594 48.640625 C 236.347656 50.867188 233.691406 53.15625 231.09375 55.511719 C 228.496094 57.867188 225.957031 60.28125 223.476562 62.761719 C 220.996094 65.242188 218.578125 67.78125 216.226562 70.378906 C 213.871094 72.980469 211.578125 75.632812 209.355469 78.34375 C 207.128906 81.054688 204.972656 83.820312 202.882812 86.636719 C 200.796875 89.453125 198.777344 92.320312 196.828125 95.234375 C 194.878906 98.152344 193.003906 101.113281 191.199219 104.121094 C 189.398438 107.128906 187.671875 110.179688 186.015625 113.273438 C 184.363281 116.363281 182.789062 119.496094 181.289062 122.667969 C 179.789062 125.835938 178.367188 129.042969 177.027344 132.28125 C 175.683594 135.523438 174.421875 138.792969 173.242188 142.09375 C 172.058594 145.398438 170.960938 148.726562 169.941406 152.082031 C 168.921875 155.4375 167.988281 158.816406 167.136719 162.21875 C 166.285156 165.621094 165.515625 169.042969 164.832031 172.480469 C 164.148438 175.921875 163.546875 179.375 163.035156 182.84375 C 162.519531 186.3125 162.089844 189.792969 161.746094 193.28125 C 161.402344 196.773438 161.144531 200.269531 160.972656 203.769531 C 160.800781 207.273438 160.714844 210.777344 160.714844 214.285156 L 160.714844 267.855469 C 159.398438 267.855469 158.085938 267.890625 156.769531 267.953125 C 155.457031 268.019531 154.148438 268.113281 152.839844 268.242188 C 151.527344 268.371094 150.222656 268.535156 148.921875 268.726562 C 147.621094 268.917969 146.328125 269.144531 145.039062 269.402344 C 143.746094 269.65625 142.464844 269.945312 141.1875 270.265625 C 139.914062 270.585938 138.644531 270.9375 137.386719 271.316406 C 136.128906 271.699219 134.882812 272.113281 133.644531 272.554688 C 132.40625 272.996094 131.179688 273.472656 129.964844 273.972656 C 128.746094 274.476562 127.546875 275.011719 126.355469 275.574219 C 125.167969 276.132812 123.992188 276.726562 122.835938 277.34375 C 121.675781 277.964844 120.53125 278.613281 119.402344 279.289062 C 118.273438 279.964844 117.164062 280.667969 116.070312 281.398438 C 114.976562 282.128906 113.902344 282.886719 112.84375 283.671875 C 111.789062 284.453125 110.753906 285.261719 109.734375 286.097656 C 108.71875 286.933594 107.722656 287.789062 106.75 288.671875 C 105.773438 289.558594 104.824219 290.464844 103.894531 291.394531 C 102.964844 292.324219 102.058594 293.273438 101.171875 294.25 C 100.289062 295.222656 99.433594 296.21875 98.597656 297.234375 C 97.761719 298.253906 96.953125 299.289062 96.171875 300.34375 C 95.386719 301.402344 94.628906 302.476562 93.898438 303.570312 C 93.167969 304.664062 92.464844 305.773438 91.789062 306.902344 C 91.113281 308.03125 90.464844 309.175781 89.84375 310.335938 C 89.226562 311.492188 88.632812 312.667969 88.074219 313.855469 C 87.511719 315.046875 86.976562 316.246094 86.472656 317.464844 C 85.96875 318.679688 85.496094 319.90625 85.054688 321.144531 C 84.613281 322.382812 84.199219 323.628906 83.816406 324.886719 C 83.4375 326.144531 83.085938 327.414062 82.765625 328.6875 C 82.445312 329.964844 82.15625 331.246094 81.902344 332.539062 C 81.644531 333.828125 81.417969 335.121094 81.226562 336.421875 C 81.035156 337.722656 80.871094 339.027344 80.742188 340.339844 C 80.613281 341.648438 80.519531 342.957031 80.453125 344.269531 C 80.390625 345.585938 80.355469 346.898438 80.355469 348.214844 L 80.355469 669.644531 C 80.355469 670.957031 80.390625 672.273438 80.453125 673.585938 C 80.519531 674.898438 80.613281 676.210938 80.742188 677.519531 C 80.871094 678.828125 81.035156 680.132812 81.226562 681.433594 C 81.417969 682.734375 81.644531 684.03125 81.902344 685.320312 C 82.15625 686.609375 82.445312 687.890625 82.765625 689.167969 C 83.085938 690.445312 83.433594 691.710938 83.816406 692.96875 C 84.199219 694.226562 84.613281 695.476562 85.054688 696.714844 C 85.496094 697.953125 85.96875 699.179688 86.472656 700.394531 C 86.976562 701.609375 87.511719 702.8125 88.070312 704 C 88.632812 705.1875 89.226562 706.363281 89.84375 707.523438 C 90.464844 708.683594 91.113281 709.828125 91.789062 710.953125 C 92.464844 712.082031 93.167969 713.195312 93.898438 714.285156 C 94.628906 715.378906 95.386719 716.457031 96.171875 717.511719 C 96.953125 718.566406 97.761719 719.605469 98.597656 720.621094 C 99.433594 721.636719 100.289062 722.632812 101.171875 723.609375 C 102.058594 724.582031 102.964844 725.535156 103.894531 726.464844 C 104.824219 727.394531 105.773438 728.300781 106.75 729.183594 C 107.722656 730.066406 108.71875 730.925781 109.734375 731.761719 C 110.753906 732.59375 111.789062 733.402344 112.84375 734.1875 C 113.902344 734.96875 114.976562 735.726562 116.070312 736.457031 C 117.164062 737.1875 118.273438 737.890625 119.402344 738.566406 C 120.53125 739.242188 121.675781 739.890625 122.835938 740.511719 C 123.992188 741.132812 125.167969 741.722656 126.355469 742.285156 C 127.546875 742.847656 128.746094 743.378906 129.964844 743.882812 C 131.179688 744.386719 132.40625 744.859375 133.644531 745.300781 C 134.882812 745.746094 136.128906 746.15625 137.386719 746.539062 C 138.644531 746.921875 139.914062 747.273438 141.1875 747.589844 C 142.464844 747.910156 143.746094 748.199219 145.039062 748.457031 C 146.328125 748.710938 147.621094 748.9375 148.921875 749.128906 C 150.222656 749.324219 151.527344 749.484375 152.839844 749.613281 C 154.148438 749.742188 155.457031 749.839844 156.769531 749.902344 C 158.085938 749.96875 159.398438 750 160.714844 750 L 589.285156 750 C 590.601562 750 591.914062 749.96875 593.230469 749.902344 C 594.542969 749.839844 595.851562 749.742188 597.160156 749.613281 C 598.472656 749.484375 599.777344 749.324219 601.078125 749.128906 C 602.378906 748.9375 603.671875 748.710938 604.960938 748.457031 C 606.253906 748.199219 607.535156 747.910156 608.8125 747.589844 C 610.085938 747.273438 611.355469 746.921875 612.613281 746.539062 C 613.871094 746.15625 615.117188 745.746094 616.355469 745.300781 C 617.59375 744.859375 618.820312 744.386719 620.035156 743.882812 C 621.25 743.378906 622.453125 742.847656 623.644531 742.285156 C 624.832031 741.722656 626.007812 741.132812 627.164062 740.511719 C 628.324219 739.890625 629.46875 739.242188 630.597656 738.566406 C 631.726562 737.890625 632.835938 737.1875 633.929688 736.457031 C 635.023438 735.726562 636.097656 734.96875 637.152344 734.1875 C 638.210938 733.402344 639.246094 732.59375 640.261719 731.761719 C 641.28125 730.925781 642.277344 730.066406 643.25 729.183594 C 644.222656 728.300781 645.175781 727.394531 646.105469 726.464844 C 647.035156 725.535156 647.941406 724.582031 648.828125 723.609375 C 649.710938 722.632812 650.566406 721.636719 651.402344 720.621094 C 652.238281 719.605469 653.046875 718.566406 653.828125 717.511719 C 654.613281 716.457031 655.371094 715.378906 656.101562 714.285156 C 656.832031 713.195312 657.535156 712.082031 658.210938 710.953125 C 658.886719 709.828125 659.535156 708.683594 660.15625 707.523438 C 660.773438 706.363281 661.367188 705.1875 661.925781 704 C 662.488281 702.8125 663.023438 701.609375 663.527344 700.394531 C 664.027344 699.179688 664.503906 697.953125 664.945312 696.714844 C 665.386719 695.476562 665.800781 694.226562 666.183594 692.96875 C 666.5625 691.710938 666.914062 690.445312 667.234375 689.167969 C 667.554688 687.890625 667.84375 686.609375 668.097656 685.320312 C 668.355469 684.03125 668.582031 682.734375 668.773438 681.433594 C 668.964844 680.132812 669.128906 678.828125 669.257812 677.519531 C 669.386719 676.210938 669.480469 674.898438 669.546875 673.585938 C 669.609375 672.273438 669.644531 670.957031 669.644531 669.644531 L 669.644531 348.214844 C 669.644531 346.898438 669.609375 345.585938 669.546875 344.269531 C 669.480469 342.957031 669.386719 341.648438 669.257812 340.339844 C 669.128906 339.027344 668.964844 337.722656 668.773438 336.421875 C 668.578125 335.121094 668.355469 333.828125 668.097656 332.539062 C 667.84375 331.246094 667.554688 329.964844 667.234375 328.6875 C 666.914062 327.414062 666.5625 326.144531 666.183594 324.886719 C 665.800781 323.628906 665.386719 322.382812 664.945312 321.144531 C 664.503906 319.90625 664.027344 318.679688 663.527344 317.464844 C 663.023438 316.246094 662.488281 315.046875 661.925781 313.855469 C 661.367188 312.667969 660.773438 311.492188 660.152344 310.335938 C 659.535156 309.175781 658.886719 308.03125 658.210938 306.902344 C 657.535156 305.773438 656.832031 304.664062 656.101562 303.570312 C 655.371094 302.476562 654.613281 301.402344 653.828125 300.34375 C 653.046875 299.289062 652.238281 298.253906 651.402344 297.234375 C 650.566406 296.21875 649.710938 295.222656 648.828125 294.25 C 647.941406 293.273438 647.035156 292.324219 646.105469 291.394531 C 645.175781 290.464844 644.222656 289.558594 643.25 288.671875 C 642.277344 287.789062 641.28125 286.929688 640.261719 286.097656 C 639.246094 285.261719 638.210938 284.453125 637.15625 283.671875 C 636.097656 282.886719 635.023438 282.128906 633.929688 281.398438 C 632.835938 280.667969 631.726562 279.964844 630.597656 279.289062 C 629.46875 278.613281 628.324219 277.964844 627.164062 277.34375 C 626.007812 276.726562 624.832031 276.132812 623.644531 275.574219 C 622.453125 275.011719 621.25 274.476562 620.035156 273.972656 C 618.820312 273.46875 617.59375 272.996094 616.355469 272.554688 C 615.117188 272.113281 613.871094 271.699219 612.613281 271.316406 C 611.355469 270.933594 610.085938 270.585938 608.8125 270.265625 C 607.535156 269.945312 606.253906 269.65625 604.960938 269.402344 C 603.671875 269.144531 602.378906 268.917969 601.078125 268.726562 C 599.777344 268.535156 598.472656 268.371094 597.160156 268.242188 C 595.851562 268.113281 594.542969 268.019531 593.230469 267.953125 C 591.914062 267.890625 590.601562 267.855469 589.285156 267.855469 Z M 214.285156 214.285156 C 214.285156 211.65625 214.351562 209.027344 214.480469 206.398438 C 214.609375 203.773438 214.800781 201.152344 215.058594 198.53125 C 215.316406 195.914062 215.640625 193.304688 216.023438 190.703125 C 216.410156 188.101562 216.859375 185.511719 217.375 182.933594 C 217.886719 180.351562 218.464844 177.785156 219.101562 175.234375 C 219.742188 172.683594 220.441406 170.148438 221.207031 167.632812 C 221.96875 165.117188 222.792969 162.621094 223.679688 160.144531 C 224.566406 157.667969 225.511719 155.214844 226.519531 152.78125 C 227.527344 150.351562 228.589844 147.949219 229.714844 145.570312 C 230.839844 143.195312 232.023438 140.84375 233.261719 138.527344 C 234.503906 136.207031 235.796875 133.917969 237.152344 131.660156 C 238.503906 129.40625 239.910156 127.183594 241.371094 124.996094 C 242.832031 122.8125 244.347656 120.660156 245.914062 118.546875 C 247.480469 116.4375 249.097656 114.363281 250.765625 112.328125 C 252.433594 110.296875 254.152344 108.304688 255.917969 106.355469 C 257.683594 104.40625 259.496094 102.503906 261.359375 100.644531 C 263.21875 98.785156 265.121094 96.96875 267.070312 95.203125 C 269.019531 93.4375 271.011719 91.71875 273.042969 90.050781 C 275.078125 88.382812 277.148438 86.765625 279.261719 85.199219 C 281.375 83.632812 283.523438 82.117188 285.710938 80.65625 C 287.898438 79.195312 290.121094 77.789062 292.375 76.4375 C 294.632812 75.085938 296.921875 73.789062 299.238281 72.546875 C 301.558594 71.308594 303.90625 70.125 306.285156 69 C 308.664062 67.878906 311.066406 66.8125 313.496094 65.804688 C 315.925781 64.796875 318.378906 63.851562 320.855469 62.964844 C 323.332031 62.078125 325.832031 61.253906 328.347656 60.492188 C 330.863281 59.726562 333.398438 59.027344 335.949219 58.386719 C 338.5 57.75 341.066406 57.171875 343.644531 56.660156 C 346.226562 56.144531 348.816406 55.695312 351.417969 55.3125 C 354.019531 54.925781 356.628906 54.601562 359.246094 54.34375 C 361.863281 54.085938 364.488281 53.894531 367.113281 53.765625 C 369.742188 53.636719 372.371094 53.570312 375 53.570312 C 377.628906 53.570312 380.257812 53.636719 382.886719 53.765625 C 385.511719 53.894531 388.136719 54.085938 390.753906 54.34375 C 393.371094 54.601562 395.980469 54.925781 398.582031 55.3125 C 401.183594 55.695312 403.773438 56.144531 406.355469 56.660156 C 408.933594 57.171875 411.5 57.75 414.050781 58.386719 C 416.601562 59.027344 419.136719 59.726562 421.652344 60.492188 C 424.167969 61.253906 426.667969 62.078125 429.144531 62.964844 C 431.621094 63.851562 434.074219 64.796875 436.503906 65.804688 C 438.933594 66.8125 441.335938 67.878906 443.714844 69 C 446.089844 70.125 448.441406 71.308594 450.761719 72.546875 C 453.078125 73.789062 455.367188 75.085938 457.625 76.4375 C 459.878906 77.789062 462.101562 79.195312 464.289062 80.65625 C 466.476562 82.117188 468.625 83.632812 470.738281 85.199219 C 472.851562 86.765625 474.921875 88.382812 476.957031 90.050781 C 478.988281 91.71875 480.980469 93.4375 482.929688 95.203125 C 484.878906 96.96875 486.78125 98.785156 488.640625 100.644531 C 490.503906 102.503906 492.316406 104.40625 494.082031 106.355469 C 495.847656 108.304688 497.566406 110.296875 499.234375 112.328125 C 500.902344 114.363281 502.519531 116.4375 504.085938 118.546875 C 505.652344 120.660156 507.167969 122.8125 508.628906 124.996094 C 510.089844 127.183594 511.496094 129.40625 512.847656 131.660156 C 514.203125 133.917969 515.496094 136.207031 516.738281 138.527344 C 517.976562 140.84375 519.160156 143.195312 520.285156 145.570312 C 521.410156 147.949219 522.472656 150.351562 523.480469 152.78125 C 524.488281 155.214844 525.433594 157.667969 526.320312 160.144531 C 527.207031 162.621094 528.03125 165.117188 528.792969 167.632812 C 529.558594 170.148438 530.257812 172.683594 530.898438 175.234375 C 531.535156 177.785156 532.113281 180.351562 532.625 182.933594 C 533.140625 185.511719 533.589844 188.101562 533.976562 190.703125 C 534.359375 193.304688 534.683594 195.914062 534.941406 198.53125 C 535.199219 201.152344 535.390625 203.773438 535.519531 206.398438 C 535.648438 209.027344 535.714844 211.65625 535.714844 214.285156 L 535.714844 267.855469 L 214.285156 267.855469 Z M 401.785156 528.292969 L 401.785156 562.5 C 401.785156 563.378906 401.742188 564.253906 401.65625 565.125 C 401.570312 566 401.441406 566.863281 401.269531 567.726562 C 401.101562 568.585938 400.886719 569.4375 400.632812 570.277344 C 400.378906 571.113281 400.082031 571.941406 399.746094 572.75 C 399.410156 573.5625 399.035156 574.351562 398.621094 575.125 C 398.210938 575.898438 397.757812 576.652344 397.269531 577.382812 C 396.785156 578.109375 396.261719 578.816406 395.707031 579.492188 C 395.148438 580.171875 394.5625 580.820312 393.941406 581.441406 C 393.320312 582.0625 392.671875 582.648438 391.992188 583.207031 C 391.316406 583.761719 390.609375 584.285156 389.882812 584.769531 C 389.152344 585.257812 388.398438 585.710938 387.625 586.121094 C 386.851562 586.535156 386.0625 586.910156 385.25 587.246094 C 384.441406 587.582031 383.613281 587.878906 382.777344 588.132812 C 381.9375 588.386719 381.085938 588.601562 380.226562 588.769531 C 379.363281 588.941406 378.5 589.070312 377.625 589.15625 C 376.753906 589.242188 375.878906 589.285156 375 589.285156 C 374.121094 589.285156 373.246094 589.242188 372.375 589.15625 C 371.5 589.070312 370.636719 588.941406 369.773438 588.769531 C 368.914062 588.601562 368.0625 588.386719 367.222656 588.132812 C 366.386719 587.878906 365.558594 587.582031 364.75 587.246094 C 363.9375 586.910156 363.148438 586.535156 362.375 586.121094 C 361.601562 585.710938 360.847656 585.257812 360.117188 584.769531 C 359.390625 584.285156 358.683594 583.761719 358.007812 583.207031 C 357.328125 582.648438 356.679688 582.0625 356.058594 581.441406 C 355.4375 580.820312 354.851562 580.171875 354.292969 579.492188 C 353.738281 578.816406 353.214844 578.109375 352.726562 577.382812 C 352.242188 576.652344 351.789062 575.898438 351.378906 575.125 C 350.964844 574.351562 350.589844 573.5625 350.253906 572.75 C 349.917969 571.941406 349.621094 571.113281 349.367188 570.277344 C 349.113281 569.4375 348.898438 568.585938 348.730469 567.726562 C 348.558594 566.863281 348.429688 566 348.34375 565.125 C 348.257812 564.253906 348.214844 563.378906 348.214844 562.5 L 348.214844 528.292969 C 347.371094 527.808594 346.539062 527.296875 345.726562 526.765625 C 344.910156 526.234375 344.109375 525.679688 343.324219 525.101562 C 342.535156 524.527344 341.769531 523.929688 341.015625 523.3125 C 340.261719 522.695312 339.527344 522.054688 338.808594 521.398438 C 338.089844 520.738281 337.390625 520.0625 336.707031 519.367188 C 336.027344 518.667969 335.363281 517.953125 334.722656 517.222656 C 334.082031 516.488281 333.457031 515.742188 332.855469 514.972656 C 332.253906 514.207031 331.675781 513.425781 331.117188 512.628906 C 330.558594 511.828125 330.023438 511.015625 329.507812 510.191406 C 328.992188 509.363281 328.5 508.523438 328.03125 507.667969 C 327.5625 506.8125 327.117188 505.949219 326.699219 505.070312 C 326.277344 504.191406 325.878906 503.300781 325.507812 502.402344 C 325.132812 501.5 324.785156 500.589844 324.460938 499.671875 C 324.140625 498.753906 323.839844 497.828125 323.570312 496.890625 C 323.296875 495.957031 323.050781 495.015625 322.828125 494.066406 C 322.605469 493.117188 322.410156 492.164062 322.242188 491.203125 C 322.074219 490.242188 321.929688 489.28125 321.8125 488.3125 C 321.695312 487.347656 321.605469 486.375 321.542969 485.402344 C 321.480469 484.433594 321.441406 483.460938 321.433594 482.484375 C 321.421875 481.511719 321.4375 480.535156 321.480469 479.5625 C 321.523438 478.589844 321.589844 477.617188 321.6875 476.648438 C 321.78125 475.679688 321.902344 474.714844 322.050781 473.75 C 322.199219 472.789062 322.375 471.828125 322.574219 470.875 C 322.777344 469.921875 323 468.976562 323.253906 468.035156 C 323.507812 467.09375 323.785156 466.160156 324.085938 465.234375 C 324.390625 464.308594 324.71875 463.390625 325.070312 462.484375 C 325.425781 461.574219 325.800781 460.679688 326.203125 459.792969 C 326.605469 458.902344 327.03125 458.027344 327.480469 457.164062 C 327.929688 456.300781 328.40625 455.449219 328.902344 454.609375 C 329.398438 453.773438 329.914062 452.949219 330.457031 452.136719 C 331 451.328125 331.5625 450.53125 332.144531 449.753906 C 332.730469 448.972656 333.335938 448.210938 333.960938 447.464844 C 334.589844 446.71875 335.234375 445.992188 335.898438 445.28125 C 336.566406 444.570312 337.25 443.875 337.953125 443.203125 C 338.660156 442.527344 339.378906 441.875 340.121094 441.242188 C 340.859375 440.605469 341.613281 439.992188 342.386719 439.398438 C 343.160156 438.804688 343.949219 438.234375 344.753906 437.683594 C 345.558594 437.132812 346.375 436.605469 347.207031 436.101562 C 348.042969 435.597656 348.886719 435.113281 349.746094 434.65625 C 350.605469 434.195312 351.476562 433.761719 352.359375 433.347656 C 353.242188 432.9375 354.136719 432.550781 355.039062 432.1875 C 355.945312 431.824219 356.859375 431.484375 357.78125 431.171875 C 358.703125 430.859375 359.632812 430.570312 360.570312 430.308594 C 361.507812 430.046875 362.453125 429.808594 363.40625 429.597656 C 364.355469 429.386719 365.3125 429.203125 366.273438 429.042969 C 367.234375 428.886719 368.199219 428.753906 369.167969 428.648438 C 370.136719 428.542969 371.105469 428.460938 372.078125 428.410156 C 373.050781 428.355469 374.027344 428.328125 375 428.328125 C 375.972656 428.328125 376.949219 428.355469 377.921875 428.410156 C 378.894531 428.460938 379.863281 428.542969 380.832031 428.648438 C 381.800781 428.753906 382.765625 428.886719 383.726562 429.042969 C 384.6875 429.203125 385.644531 429.386719 386.59375 429.597656 C 387.546875 429.808594 388.492188 430.046875 389.429688 430.308594 C 390.367188 430.570312 391.296875 430.859375 392.21875 431.171875 C 393.140625 431.484375 394.054688 431.824219 394.960938 432.1875 C 395.863281 432.550781 396.757812 432.9375 397.640625 433.347656 C 398.523438 433.761719 399.394531 434.195312 400.253906 434.65625 C 401.113281 435.113281 401.957031 435.597656 402.792969 436.101562 C 403.625 436.605469 404.441406 437.132812 405.246094 437.683594 C 406.050781 438.234375 406.839844 438.804688 407.613281 439.398438 C 408.386719 439.992188 409.140625 440.605469 409.878906 441.242188 C 410.621094 441.875 411.339844 442.527344 412.046875 443.203125 C 412.75 443.875 413.433594 444.570312 414.101562 445.28125 C 414.765625 445.992188 415.410156 446.71875 416.039062 447.464844 C 416.664062 448.210938 417.269531 448.972656 417.855469 449.753906 C 418.4375 450.53125 419 451.328125 419.542969 452.136719 C 420.085938 452.949219 420.601562 453.773438 421.097656 454.609375 C 421.59375 455.449219 422.070312 456.300781 422.519531 457.164062 C 422.96875 458.027344 423.394531 458.902344 423.796875 459.792969 C 424.199219 460.679688 424.574219 461.578125 424.929688 462.484375 C 425.28125 463.390625 425.609375 464.308594 425.914062 465.234375 C 426.214844 466.160156 426.492188 467.09375 426.746094 468.035156 C 427 468.976562 427.222656 469.921875 427.425781 470.875 C 427.625 471.828125 427.800781 472.789062 427.949219 473.75 C 428.097656 474.714844 428.21875 475.679688 428.3125 476.648438 C 428.410156 477.617188 428.476562 478.589844 428.519531 479.5625 C 428.5625 480.535156 428.578125 481.511719 428.566406 482.484375 C 428.558594 483.460938 428.519531 484.433594 428.457031 485.402344 C 428.394531 486.375 428.304688 487.347656 428.1875 488.3125 C 428.070312 489.28125 427.925781 490.242188 427.757812 491.203125 C 427.589844 492.164062 427.394531 493.117188 427.171875 494.066406 C 426.949219 495.015625 426.703125 495.957031 426.429688 496.890625 C 426.160156 497.828125 425.859375 498.753906 425.539062 499.671875 C 425.214844 500.589844 424.867188 501.5 424.492188 502.402344 C 424.121094 503.300781 423.722656 504.191406 423.300781 505.070312 C 422.882812 505.949219 422.4375 506.8125 421.96875 507.667969 C 421.5 508.523438 421.007812 509.363281 420.492188 510.191406 C 419.980469 511.015625 419.441406 511.828125 418.882812 512.628906 C 418.324219 513.425781 417.746094 514.207031 417.144531 514.972656 C 416.542969 515.742188 415.917969 516.488281 415.277344 517.222656 C 414.636719 517.953125 413.972656 518.667969 413.292969 519.367188 C 412.609375 520.0625 411.910156 520.738281 411.191406 521.398438 C 410.472656 522.054688 409.738281 522.695312 408.984375 523.3125 C 408.230469 523.929688 407.464844 524.527344 406.675781 525.101562 C 405.890625 525.679688 405.089844 526.234375 404.273438 526.765625 C 403.460938 527.296875 402.628906 527.808594 401.785156 528.292969 Z M 401.785156 528.292969 " fill-opacity="1" fill-rule="nonzero"/></g></svg>