<svg xmlns="http://www.w3.org/2000/svg" xmlns:xlink="http://www.w3.org/1999/xlink" width="1000" zoomAndPan="magnify" viewBox="0 0 750 749.999995" height="1000" preserveAspectRatio="xMidYMid meet" version="1.0"><defs><clipPath id="0a1695afb2"><path d="M 375 750 C 582.105469 750 750 582.105469 750 375 C 750 167.894531 582.105469 0 375 0 C 167.894531 0 0 167.894531 0 375 C 0 582.105469 167.894531 750 375 750 Z M 375 750 " clip-rule="nonzero"/></clipPath><clipPath id="df1ffd27c6"><path d="M 0 0 L 750 0 L 750 750 L 0 750 Z M 0 0 " clip-rule="nonzero"/></clipPath><clipPath id="7bec56bb61"><path d="M 375 750 C 582.105469 750 750 582.105469 750 375 C 750 167.894531 582.105469 0 375 0 C 167.894531 0 0 167.894531 0 375 C 0 582.105469 167.894531 750 375 750 Z M 375 750 " clip-rule="nonzero"/></clipPath><linearGradient x1="-0.000000000000028422" gradientTransform="matrix(-2.929687, 0, 0, -2.929687, 749.999966, 749.999983)" y1="128" x2="255.999999" gradientUnits="userSpaceOnUse" y2="128" id="245edd7d68"><stop stop-opacity="1" stop-color="rgb(90.979004%, 90.979004%, 90.979004%)" offset="0"/><stop stop-opacity="1" stop-color="rgb(91.119385%, 91.119385%, 91.119385%)" offset="0.03125"/><stop stop-opacity="1" stop-color="rgb(91.401672%, 91.401672%, 91.401672%)" offset="0.0625"/><stop stop-opacity="1" stop-color="rgb(91.68396%, 91.68396%, 91.68396%)" offset="0.09375"/><stop stop-opacity="1" stop-color="rgb(91.964722%, 91.964722%, 91.964722%)" offset="0.125"/><stop stop-opacity="1" stop-color="rgb(92.247009%, 92.247009%, 92.247009%)" offset="0.15625"/><stop stop-opacity="1" stop-color="rgb(92.529297%, 92.529297%, 92.529297%)" offset="0.1875"/><stop stop-opacity="1" stop-color="rgb(92.811584%, 92.811584%, 92.811584%)" offset="0.21875"/><stop stop-opacity="1" stop-color="rgb(93.092346%, 93.092346%, 93.092346%)" offset="0.25"/><stop stop-opacity="1" stop-color="rgb(93.374634%, 93.374634%, 93.374634%)" offset="0.28125"/><stop stop-opacity="1" stop-color="rgb(93.656921%, 93.656921%, 93.656921%)" offset="0.3125"/><stop stop-opacity="1" stop-color="rgb(93.937683%, 93.937683%, 93.937683%)" offset="0.34375"/><stop stop-opacity="1" stop-color="rgb(94.219971%, 94.219971%, 94.219971%)" offset="0.375"/><stop stop-opacity="1" stop-color="rgb(94.502258%, 94.502258%, 94.502258%)" offset="0.40625"/><stop stop-opacity="1" stop-color="rgb(94.784546%, 94.784546%, 94.784546%)" offset="0.4375"/><stop stop-opacity="1" stop-color="rgb(95.065308%, 95.065308%, 95.065308%)" offset="0.46875"/><stop stop-opacity="1" stop-color="rgb(95.347595%, 95.347595%, 95.347595%)" offset="0.5"/><stop stop-opacity="1" stop-color="rgb(95.629883%, 95.629883%, 95.629883%)" offset="0.53125"/><stop stop-opacity="1" stop-color="rgb(95.91217%, 95.91217%, 95.91217%)" offset="0.5625"/><stop stop-opacity="1" stop-color="rgb(96.192932%, 96.192932%, 96.192932%)" offset="0.59375"/><stop stop-opacity="1" stop-color="rgb(96.47522%, 96.47522%, 96.47522%)" offset="0.625"/><stop stop-opacity="1" stop-color="rgb(96.757507%, 96.757507%, 96.757507%)" offset="0.65625"/><stop stop-opacity="1" stop-color="rgb(97.038269%, 97.038269%, 97.038269%)" offset="0.6875"/><stop stop-opacity="1" stop-color="rgb(97.320557%, 97.320557%, 97.320557%)" offset="0.71875"/><stop stop-opacity="1" stop-color="rgb(97.602844%, 97.602844%, 97.602844%)" offset="0.75"/><stop stop-opacity="1" stop-color="rgb(97.885132%, 97.885132%, 97.885132%)" offset="0.78125"/><stop stop-opacity="1" stop-color="rgb(98.165894%, 98.165894%, 98.165894%)" offset="0.8125"/><stop stop-opacity="1" stop-color="rgb(98.448181%, 98.448181%, 98.448181%)" offset="0.84375"/><stop stop-opacity="1" stop-color="rgb(98.730469%, 98.730469%, 98.730469%)" offset="0.875"/><stop stop-opacity="1" stop-color="rgb(99.012756%, 99.012756%, 99.012756%)" offset="0.90625"/><stop stop-opacity="1" stop-color="rgb(99.293518%, 99.293518%, 99.293518%)" offset="0.9375"/><stop stop-opacity="1" stop-color="rgb(99.575806%, 99.575806%, 99.575806%)" offset="0.96875"/><stop stop-opacity="1" stop-color="rgb(99.858093%, 99.858093%, 99.858093%)" offset="1"/></linearGradient><clipPath id="b5fee5814a"><rect x="0" width="750" y="0" height="750"/></clipPath><clipPath id="471c7c6728"><path d="M 0.296875 337.796875 L 29.625 337.796875 L 29.625 468.628906 L 0.296875 468.628906 Z M 0.296875 337.796875 " clip-rule="nonzero"/></clipPath><clipPath id="3833a96e8e"><path d="M 14.960938 337.796875 C 18.847656 337.796875 22.578125 339.339844 25.328125 342.089844 C 28.078125 344.839844 29.625 348.570312 29.625 352.460938 L 29.625 453.953125 C 29.625 457.84375 28.078125 461.570312 25.328125 464.320312 C 22.578125 467.070312 18.847656 468.617188 14.960938 468.617188 C 11.070312 468.617188 7.339844 467.070312 4.589844 464.320312 C 1.839844 461.570312 0.296875 457.84375 0.296875 453.953125 L 0.296875 352.460938 C 0.296875 348.570312 1.839844 344.839844 4.589844 342.089844 C 7.339844 339.339844 11.070312 337.796875 14.960938 337.796875 Z M 14.960938 337.796875 " clip-rule="nonzero"/></clipPath><clipPath id="f3cbbce50a"><path d="M 0.296875 0.796875 L 29.625 0.796875 L 29.625 131.628906 L 0.296875 131.628906 Z M 0.296875 0.796875 " clip-rule="nonzero"/></clipPath><clipPath id="79437ceca6"><path d="M 14.960938 0.796875 C 18.847656 0.796875 22.578125 2.339844 25.328125 5.089844 C 28.078125 7.839844 29.625 11.570312 29.625 15.460938 L 29.625 116.953125 C 29.625 120.84375 28.078125 124.570312 25.328125 127.320312 C 22.578125 130.070312 18.847656 131.617188 14.960938 131.617188 C 11.070312 131.617188 7.339844 130.070312 4.589844 127.320312 C 1.839844 124.570312 0.296875 120.84375 0.296875 116.953125 L 0.296875 15.460938 C 0.296875 11.570312 1.839844 7.839844 4.589844 5.089844 C 7.339844 2.339844 11.070312 0.796875 14.960938 0.796875 Z M 14.960938 0.796875 " clip-rule="nonzero"/></clipPath><clipPath id="66f90d2091"><rect x="0" width="30" y="0" height="132"/></clipPath><clipPath id="7704a56f93"><path d="M 36 337.796875 L 61.429688 337.796875 L 61.429688 488.507812 L 36 488.507812 Z M 36 337.796875 " clip-rule="nonzero"/></clipPath><clipPath id="5850d5b98e"><path d="M 48.714844 337.796875 C 52.085938 337.796875 55.320312 339.136719 57.707031 341.519531 C 60.09375 343.90625 61.429688 347.140625 61.429688 350.511719 L 61.429688 475.699219 C 61.429688 479.070312 60.09375 482.304688 57.707031 484.691406 C 55.320312 487.074219 52.085938 488.414062 48.714844 488.414062 C 45.34375 488.414062 42.109375 487.074219 39.722656 484.691406 C 37.339844 482.304688 36 479.070312 36 475.699219 L 36 350.511719 C 36 347.140625 37.339844 343.90625 39.722656 341.519531 C 42.109375 339.136719 45.34375 337.796875 48.714844 337.796875 Z M 48.714844 337.796875 " clip-rule="nonzero"/></clipPath><clipPath id="32232cb500"><path d="M 0 0.796875 L 25.429688 0.796875 L 25.429688 151.507812 L 0 151.507812 Z M 0 0.796875 " clip-rule="nonzero"/></clipPath><clipPath id="4a42b95332"><path d="M 12.714844 0.796875 C 16.085938 0.796875 19.320312 2.136719 21.707031 4.519531 C 24.09375 6.90625 25.429688 10.140625 25.429688 13.511719 L 25.429688 138.699219 C 25.429688 142.070312 24.09375 145.304688 21.707031 147.691406 C 19.320312 150.074219 16.085938 151.414062 12.714844 151.414062 C 9.34375 151.414062 6.109375 150.074219 3.722656 147.691406 C 1.339844 145.304688 0 142.070312 0 138.699219 L 0 13.511719 C 0 10.140625 1.339844 6.90625 3.722656 4.519531 C 6.109375 2.136719 9.34375 0.796875 12.714844 0.796875 Z M 12.714844 0.796875 " clip-rule="nonzero"/></clipPath><clipPath id="da0c9cc83b"><rect x="0" width="26" y="0" height="152"/></clipPath><clipPath id="30894c6b45"><path d="M 68.695312 337.796875 L 94.125 337.796875 L 94.125 514.734375 L 68.695312 514.734375 Z M 68.695312 337.796875 " clip-rule="nonzero"/></clipPath><clipPath id="ac513b5f31"><path d="M 81.410156 337.796875 C 84.78125 337.796875 88.015625 339.136719 90.402344 341.519531 C 92.785156 343.90625 94.125 347.140625 94.125 350.511719 L 94.125 502.003906 C 94.125 505.378906 92.785156 508.613281 90.402344 510.996094 C 88.015625 513.382812 84.78125 514.722656 81.410156 514.722656 C 78.039062 514.722656 74.804688 513.382812 72.417969 510.996094 C 70.03125 508.613281 68.695312 505.378906 68.695312 502.003906 L 68.695312 350.511719 C 68.695312 347.140625 70.03125 343.90625 72.417969 341.519531 C 74.804688 339.136719 78.039062 337.796875 81.410156 337.796875 Z M 81.410156 337.796875 " clip-rule="nonzero"/></clipPath><clipPath id="a8f5fd64a8"><path d="M 0.695312 0.796875 L 26.125 0.796875 L 26.125 177.734375 L 0.695312 177.734375 Z M 0.695312 0.796875 " clip-rule="nonzero"/></clipPath><clipPath id="d6c214a0ef"><path d="M 13.410156 0.796875 C 16.78125 0.796875 20.015625 2.136719 22.402344 4.519531 C 24.785156 6.90625 26.125 10.140625 26.125 13.511719 L 26.125 165.003906 C 26.125 168.378906 24.785156 171.613281 22.402344 173.996094 C 20.015625 176.382812 16.78125 177.722656 13.410156 177.722656 C 10.039062 177.722656 6.804688 176.382812 4.417969 173.996094 C 2.03125 171.613281 0.695312 168.378906 0.695312 165.003906 L 0.695312 13.511719 C 0.695312 10.140625 2.03125 6.90625 4.417969 4.519531 C 6.804688 2.136719 10.039062 0.796875 13.410156 0.796875 Z M 13.410156 0.796875 " clip-rule="nonzero"/></clipPath><clipPath id="6eefad84e8"><rect x="0" width="27" y="0" height="178"/></clipPath><clipPath id="0653a821e1"><path d="M 208.761719 281.882812 L 234.195312 281.882812 L 234.195312 490.617188 L 208.761719 490.617188 Z M 208.761719 281.882812 " clip-rule="nonzero"/></clipPath><clipPath id="66da0e8038"><path d="M 221.480469 281.882812 C 224.851562 281.882812 228.085938 283.222656 230.46875 285.609375 C 232.855469 287.996094 234.195312 291.230469 234.195312 294.601562 L 234.195312 477.851562 C 234.195312 481.222656 232.855469 484.457031 230.46875 486.84375 C 228.085938 489.226562 224.851562 490.566406 221.480469 490.566406 C 218.105469 490.566406 214.871094 489.226562 212.488281 486.84375 C 210.101562 484.457031 208.761719 481.222656 208.761719 477.851562 L 208.761719 294.601562 C 208.761719 291.230469 210.101562 287.996094 212.488281 285.609375 C 214.871094 283.222656 218.105469 281.882812 221.480469 281.882812 Z M 221.480469 281.882812 " clip-rule="nonzero"/></clipPath><clipPath id="a22b647370"><path d="M 0.761719 0.882812 L 26.195312 0.882812 L 26.195312 209.617188 L 0.761719 209.617188 Z M 0.761719 0.882812 " clip-rule="nonzero"/></clipPath><clipPath id="3f5916c969"><path d="M 13.480469 0.882812 C 16.851562 0.882812 20.085938 2.222656 22.46875 4.609375 C 24.855469 6.996094 26.195312 10.230469 26.195312 13.601562 L 26.195312 196.851562 C 26.195312 200.222656 24.855469 203.457031 22.46875 205.84375 C 20.085938 208.226562 16.851562 209.566406 13.480469 209.566406 C 10.105469 209.566406 6.871094 208.226562 4.488281 205.84375 C 2.101562 203.457031 0.761719 200.222656 0.761719 196.851562 L 0.761719 13.601562 C 0.761719 10.230469 2.101562 6.996094 4.488281 4.609375 C 6.871094 2.222656 10.105469 0.882812 13.480469 0.882812 Z M 13.480469 0.882812 " clip-rule="nonzero"/></clipPath><clipPath id="97b1abf7e4"><rect x="0" width="27" y="0" height="210"/></clipPath><clipPath id="ea03abf6c4"><path d="M 240.449219 329.503906 L 265.882812 329.503906 L 265.882812 448.125 L 240.449219 448.125 Z M 240.449219 329.503906 " clip-rule="nonzero"/></clipPath><clipPath id="d8cab99507"><path d="M 253.164062 329.503906 C 256.539062 329.503906 259.773438 330.84375 262.15625 333.226562 C 264.542969 335.613281 265.882812 338.847656 265.882812 342.21875 L 265.882812 435.378906 C 265.882812 438.753906 264.542969 441.988281 262.15625 444.371094 C 259.773438 446.757812 256.539062 448.097656 253.164062 448.097656 C 249.792969 448.097656 246.558594 446.757812 244.171875 444.371094 C 241.789062 441.988281 240.449219 438.753906 240.449219 435.378906 L 240.449219 342.21875 C 240.449219 338.847656 241.789062 335.613281 244.171875 333.226562 C 246.558594 330.84375 249.792969 329.503906 253.164062 329.503906 Z M 253.164062 329.503906 " clip-rule="nonzero"/></clipPath><clipPath id="33fe7ddcd0"><path d="M 0.449219 0.503906 L 25.882812 0.503906 L 25.882812 119.125 L 0.449219 119.125 Z M 0.449219 0.503906 " clip-rule="nonzero"/></clipPath><clipPath id="8c9df522aa"><path d="M 13.164062 0.503906 C 16.539062 0.503906 19.773438 1.84375 22.15625 4.226562 C 24.542969 6.613281 25.882812 9.847656 25.882812 13.21875 L 25.882812 106.378906 C 25.882812 109.753906 24.542969 112.988281 22.15625 115.371094 C 19.773438 117.757812 16.539062 119.097656 13.164062 119.097656 C 9.792969 119.097656 6.558594 117.757812 4.171875 115.371094 C 1.789062 112.988281 0.449219 109.753906 0.449219 106.378906 L 0.449219 13.21875 C 0.449219 9.847656 1.789062 6.613281 4.171875 4.226562 C 6.558594 1.84375 9.792969 0.503906 13.164062 0.503906 Z M 13.164062 0.503906 " clip-rule="nonzero"/></clipPath><clipPath id="c1542604ae"><rect x="0" width="26" y="0" height="120"/></clipPath><clipPath id="75239b1a52"><path d="M 4.191406 74.113281 L 29.625 74.113281 L 29.625 192.734375 L 4.191406 192.734375 Z M 4.191406 74.113281 " clip-rule="nonzero"/></clipPath><clipPath id="2232b3a2ac"><path d="M 16.90625 74.113281 C 20.28125 74.113281 23.515625 75.453125 25.898438 77.835938 C 28.285156 80.222656 29.625 83.457031 29.625 86.828125 L 29.625 179.988281 C 29.625 183.363281 28.285156 186.597656 25.898438 188.980469 C 23.515625 191.367188 20.28125 192.707031 16.90625 192.707031 C 13.535156 192.707031 10.300781 191.367188 7.914062 188.980469 C 5.53125 186.597656 4.191406 183.363281 4.191406 179.988281 L 4.191406 86.828125 C 4.191406 83.457031 5.53125 80.222656 7.914062 77.835938 C 10.300781 75.453125 13.535156 74.113281 16.90625 74.113281 Z M 16.90625 74.113281 " clip-rule="nonzero"/></clipPath><clipPath id="7528d62679"><path d="M 0.191406 0.113281 L 25.625 0.113281 L 25.625 118.734375 L 0.191406 118.734375 Z M 0.191406 0.113281 " clip-rule="nonzero"/></clipPath><clipPath id="34c3987631"><path d="M 12.90625 0.113281 C 16.28125 0.113281 19.515625 1.453125 21.898438 3.835938 C 24.285156 6.222656 25.625 9.457031 25.625 12.828125 L 25.625 105.988281 C 25.625 109.363281 24.285156 112.597656 21.898438 114.980469 C 19.515625 117.367188 16.28125 118.707031 12.90625 118.707031 C 9.535156 118.707031 6.300781 117.367188 3.914062 114.980469 C 1.53125 112.597656 0.191406 109.363281 0.191406 105.988281 L 0.191406 12.828125 C 0.191406 9.457031 1.53125 6.222656 3.914062 3.835938 C 6.300781 1.453125 9.535156 0.113281 12.90625 0.113281 Z M 12.90625 0.113281 " clip-rule="nonzero"/></clipPath><clipPath id="57a5101833"><rect x="0" width="26" y="0" height="119"/></clipPath><clipPath id="b87468f962"><path d="M 136.949219 426.257812 L 162.382812 426.257812 L 162.382812 519.746094 L 136.949219 519.746094 Z M 136.949219 426.257812 " clip-rule="nonzero"/></clipPath><clipPath id="79d75dc09f"><path d="M 149.664062 426.257812 C 153.035156 426.257812 156.273438 427.597656 158.65625 429.984375 C 161.042969 432.367188 162.382812 435.601562 162.382812 438.976562 L 162.382812 507 C 162.382812 510.375 161.042969 513.609375 158.65625 515.992188 C 156.273438 518.378906 153.035156 519.71875 149.664062 519.71875 C 146.292969 519.71875 143.058594 518.378906 140.671875 515.992188 C 138.289062 513.609375 136.949219 510.375 136.949219 507 L 136.949219 438.976562 C 136.949219 435.601562 138.289062 432.367188 140.671875 429.984375 C 143.058594 427.597656 146.292969 426.257812 149.664062 426.257812 Z M 149.664062 426.257812 " clip-rule="nonzero"/></clipPath><clipPath id="20a55f66ae"><path d="M 0.949219 0.257812 L 26.382812 0.257812 L 26.382812 93.746094 L 0.949219 93.746094 Z M 0.949219 0.257812 " clip-rule="nonzero"/></clipPath><clipPath id="1963d60943"><path d="M 13.664062 0.257812 C 17.035156 0.257812 20.273438 1.597656 22.65625 3.984375 C 25.042969 6.367188 26.382812 9.601562 26.382812 12.976562 L 26.382812 81 C 26.382812 84.375 25.042969 87.609375 22.65625 89.992188 C 20.273438 92.378906 17.035156 93.71875 13.664062 93.71875 C 10.292969 93.71875 7.058594 92.378906 4.671875 89.992188 C 2.289062 87.609375 0.949219 84.375 0.949219 81 L 0.949219 12.976562 C 0.949219 9.601562 2.289062 6.367188 4.671875 3.984375 C 7.058594 1.597656 10.292969 0.257812 13.664062 0.257812 Z M 13.664062 0.257812 " clip-rule="nonzero"/></clipPath><clipPath id="8a2ff7c113"><rect x="0" width="27" y="0" height="94"/></clipPath><clipPath id="80963d28cb"><path d="M 104.203125 426.257812 L 129.636719 426.257812 L 129.636719 519.746094 L 104.203125 519.746094 Z M 104.203125 426.257812 " clip-rule="nonzero"/></clipPath><clipPath id="fcea07cf1f"><path d="M 116.917969 426.257812 C 120.292969 426.257812 123.527344 427.597656 125.910156 429.984375 C 128.296875 432.367188 129.636719 435.601562 129.636719 438.976562 L 129.636719 507 C 129.636719 510.375 128.296875 513.609375 125.910156 515.992188 C 123.527344 518.378906 120.292969 519.71875 116.917969 519.71875 C 113.546875 519.71875 110.3125 518.378906 107.925781 515.992188 C 105.542969 513.609375 104.203125 510.375 104.203125 507 L 104.203125 438.976562 C 104.203125 435.601562 105.542969 432.367188 107.925781 429.984375 C 110.3125 427.597656 113.546875 426.257812 116.917969 426.257812 Z M 116.917969 426.257812 " clip-rule="nonzero"/></clipPath><clipPath id="391fb8139a"><path d="M 0.203125 0.257812 L 25.636719 0.257812 L 25.636719 93.746094 L 0.203125 93.746094 Z M 0.203125 0.257812 " clip-rule="nonzero"/></clipPath><clipPath id="491c6c0ebe"><path d="M 12.917969 0.257812 C 16.292969 0.257812 19.527344 1.597656 21.910156 3.984375 C 24.296875 6.367188 25.636719 9.601562 25.636719 12.976562 L 25.636719 81 C 25.636719 84.375 24.296875 87.609375 21.910156 89.992188 C 19.527344 92.378906 16.292969 93.71875 12.917969 93.71875 C 9.546875 93.71875 6.3125 92.378906 3.925781 89.992188 C 1.542969 87.609375 0.203125 84.375 0.203125 81 L 0.203125 12.976562 C 0.203125 9.601562 1.542969 6.367188 3.925781 3.984375 C 6.3125 1.597656 9.546875 0.257812 12.917969 0.257812 Z M 12.917969 0.257812 " clip-rule="nonzero"/></clipPath><clipPath id="417557f4ef"><rect x="0" width="26" y="0" height="94"/></clipPath><clipPath id="2baea15f95"><path d="M 172.457031 249.421875 L 197.890625 249.421875 L 197.890625 514.78125 L 172.457031 514.78125 Z M 172.457031 249.421875 " clip-rule="nonzero"/></clipPath><clipPath id="9feec7b926"><path d="M 185.171875 249.421875 C 188.546875 249.421875 191.78125 250.761719 194.164062 253.144531 C 196.550781 255.53125 197.890625 258.765625 197.890625 262.136719 L 197.890625 502.003906 C 197.890625 505.378906 196.550781 508.613281 194.164062 510.996094 C 191.78125 513.382812 188.546875 514.722656 185.171875 514.722656 C 181.800781 514.722656 178.566406 513.382812 176.179688 510.996094 C 173.796875 508.613281 172.457031 505.378906 172.457031 502.003906 L 172.457031 262.136719 C 172.457031 258.765625 173.796875 255.53125 176.179688 253.144531 C 178.566406 250.761719 181.800781 249.421875 185.171875 249.421875 Z M 185.171875 249.421875 " clip-rule="nonzero"/></clipPath><clipPath id="4e4a25519d"><path d="M 0.457031 0.421875 L 25.890625 0.421875 L 25.890625 265.761719 L 0.457031 265.761719 Z M 0.457031 0.421875 " clip-rule="nonzero"/></clipPath><clipPath id="b618566a0f"><path d="M 13.171875 0.421875 C 16.546875 0.421875 19.78125 1.761719 22.164062 4.144531 C 24.550781 6.53125 25.890625 9.765625 25.890625 13.136719 L 25.890625 253.003906 C 25.890625 256.378906 24.550781 259.613281 22.164062 261.996094 C 19.78125 264.382812 16.546875 265.722656 13.171875 265.722656 C 9.800781 265.722656 6.566406 264.382812 4.179688 261.996094 C 1.796875 259.613281 0.457031 256.378906 0.457031 253.003906 L 0.457031 13.136719 C 0.457031 9.765625 1.796875 6.53125 4.179688 4.144531 C 6.566406 1.761719 9.800781 0.421875 13.171875 0.421875 Z M 13.171875 0.421875 " clip-rule="nonzero"/></clipPath><clipPath id="92d8c47197"><rect x="0" width="26" y="0" height="266"/></clipPath><clipPath id="488a2425d6"><path d="M 72.515625 7.644531 L 97.949219 7.644531 L 97.949219 273 L 72.515625 273 Z M 72.515625 7.644531 " clip-rule="nonzero"/></clipPath><clipPath id="d1e76cf36d"><path d="M 85.234375 7.644531 C 88.605469 7.644531 91.839844 8.984375 94.226562 11.371094 C 96.609375 13.753906 97.949219 16.988281 97.949219 20.363281 L 97.949219 260.230469 C 97.949219 263.601562 96.609375 266.835938 94.226562 269.222656 C 91.839844 271.605469 88.605469 272.945312 85.234375 272.945312 C 81.859375 272.945312 78.625 271.605469 76.242188 269.222656 C 73.855469 266.835938 72.515625 263.601562 72.515625 260.230469 L 72.515625 20.363281 C 72.515625 16.988281 73.855469 13.753906 76.242188 11.371094 C 78.625 8.984375 81.859375 7.644531 85.234375 7.644531 Z M 85.234375 7.644531 " clip-rule="nonzero"/></clipPath><clipPath id="38328f22e1"><path d="M 0.515625 0.644531 L 25.949219 0.644531 L 25.949219 266 L 0.515625 266 Z M 0.515625 0.644531 " clip-rule="nonzero"/></clipPath><clipPath id="df25188dbf"><path d="M 13.234375 0.644531 C 16.605469 0.644531 19.839844 1.984375 22.226562 4.371094 C 24.609375 6.753906 25.949219 9.988281 25.949219 13.363281 L 25.949219 253.230469 C 25.949219 256.601562 24.609375 259.835938 22.226562 262.222656 C 19.839844 264.605469 16.605469 265.945312 13.234375 265.945312 C 9.859375 265.945312 6.625 264.605469 4.242188 262.222656 C 1.855469 259.835938 0.515625 256.601562 0.515625 253.230469 L 0.515625 13.363281 C 0.515625 9.988281 1.855469 6.753906 4.242188 4.371094 C 6.625 1.984375 9.859375 0.644531 13.234375 0.644531 Z M 13.234375 0.644531 " clip-rule="nonzero"/></clipPath><clipPath id="3c24f0498e"><rect x="0" width="26" y="0" height="266"/></clipPath><clipPath id="25a542c39e"><path d="M 39.210938 29.066406 L 64.644531 29.066406 L 64.644531 237.800781 L 39.210938 237.800781 Z M 39.210938 29.066406 " clip-rule="nonzero"/></clipPath><clipPath id="8986f58311"><path d="M 51.929688 29.066406 C 55.300781 29.066406 58.535156 30.40625 60.921875 32.792969 C 63.304688 35.175781 64.644531 38.410156 64.644531 41.785156 L 64.644531 225.035156 C 64.644531 228.40625 63.304688 231.640625 60.921875 234.027344 C 58.535156 236.410156 55.300781 237.75 51.929688 237.75 C 48.554688 237.75 45.320312 236.410156 42.9375 234.027344 C 40.550781 231.640625 39.210938 228.40625 39.210938 225.035156 L 39.210938 41.785156 C 39.210938 38.410156 40.550781 35.175781 42.9375 32.792969 C 45.320312 30.40625 48.554688 29.066406 51.929688 29.066406 Z M 51.929688 29.066406 " clip-rule="nonzero"/></clipPath><clipPath id="498bed0182"><path d="M 0.210938 0.0664062 L 25.644531 0.0664062 L 25.644531 208.800781 L 0.210938 208.800781 Z M 0.210938 0.0664062 " clip-rule="nonzero"/></clipPath><clipPath id="05e7a8ee1e"><path d="M 12.929688 0.0664062 C 16.300781 0.0664062 19.535156 1.40625 21.921875 3.792969 C 24.304688 6.175781 25.644531 9.410156 25.644531 12.785156 L 25.644531 196.035156 C 25.644531 199.40625 24.304688 202.640625 21.921875 205.027344 C 19.535156 207.410156 16.300781 208.75 12.929688 208.75 C 9.554688 208.75 6.320312 207.410156 3.9375 205.027344 C 1.550781 202.640625 0.210938 199.40625 0.210938 196.035156 L 0.210938 12.785156 C 0.210938 9.410156 1.550781 6.175781 3.9375 3.792969 C 6.320312 1.40625 9.554688 0.0664062 12.929688 0.0664062 Z M 12.929688 0.0664062 " clip-rule="nonzero"/></clipPath><clipPath id="59826ea16e"><rect x="0" width="26" y="0" height="209"/></clipPath><clipPath id="aedc7d817c"><path d="M 105.507812 168.4375 L 130.941406 168.4375 L 130.941406 312.691406 L 105.507812 312.691406 Z M 105.507812 168.4375 " clip-rule="nonzero"/></clipPath><clipPath id="15c4114b14"><path d="M 118.222656 168.4375 C 121.59375 168.4375 124.828125 169.777344 127.214844 172.164062 C 129.601562 174.546875 130.941406 177.78125 130.941406 181.15625 L 130.941406 299.953125 C 130.941406 303.324219 129.601562 306.558594 127.214844 308.945312 C 124.828125 311.328125 121.59375 312.667969 118.222656 312.667969 C 114.851562 312.667969 111.617188 311.328125 109.230469 308.945312 C 106.847656 306.558594 105.507812 303.324219 105.507812 299.953125 L 105.507812 181.15625 C 105.507812 177.78125 106.847656 174.546875 109.230469 172.164062 C 111.617188 169.777344 114.851562 168.4375 118.222656 168.4375 Z M 118.222656 168.4375 " clip-rule="nonzero"/></clipPath><clipPath id="46242b476f"><path d="M 0.507812 0.4375 L 25.941406 0.4375 L 25.941406 144.679688 L 0.507812 144.679688 Z M 0.507812 0.4375 " clip-rule="nonzero"/></clipPath><clipPath id="40c7ac0633"><path d="M 13.222656 0.4375 C 16.59375 0.4375 19.828125 1.777344 22.214844 4.164062 C 24.601562 6.546875 25.941406 9.78125 25.941406 13.15625 L 25.941406 131.953125 C 25.941406 135.324219 24.601562 138.558594 22.214844 140.945312 C 19.828125 143.328125 16.59375 144.667969 13.222656 144.667969 C 9.851562 144.667969 6.617188 143.328125 4.230469 140.945312 C 1.847656 138.558594 0.507812 135.324219 0.507812 131.953125 L 0.507812 13.15625 C 0.507812 9.78125 1.847656 6.546875 4.230469 4.164062 C 6.617188 1.777344 9.851562 0.4375 13.222656 0.4375 Z M 13.222656 0.4375 " clip-rule="nonzero"/></clipPath><clipPath id="ef829992bf"><rect x="0" width="26" y="0" height="145"/></clipPath><clipPath id="d2bdb1dcdb"><path d="M 138.496094 209.769531 L 163.929688 209.769531 L 163.929688 354 L 138.496094 354 Z M 138.496094 209.769531 " clip-rule="nonzero"/></clipPath><clipPath id="7c99bb3c8c"><path d="M 151.210938 209.769531 C 154.585938 209.769531 157.820312 211.109375 160.203125 213.492188 C 162.589844 215.878906 163.929688 219.113281 163.929688 222.484375 L 163.929688 341.285156 C 163.929688 344.65625 162.589844 347.890625 160.203125 350.277344 C 157.820312 352.660156 154.585938 354 151.210938 354 C 147.839844 354 144.605469 352.660156 142.222656 350.277344 C 139.835938 347.890625 138.496094 344.65625 138.496094 341.285156 L 138.496094 222.484375 C 138.496094 219.113281 139.835938 215.878906 142.222656 213.492188 C 144.605469 211.109375 147.839844 209.769531 151.210938 209.769531 Z M 151.210938 209.769531 " clip-rule="nonzero"/></clipPath><clipPath id="6991d4f6c5"><path d="M 0.496094 0.769531 L 25.929688 0.769531 L 25.929688 145 L 0.496094 145 Z M 0.496094 0.769531 " clip-rule="nonzero"/></clipPath><clipPath id="a745656ea4"><path d="M 13.210938 0.769531 C 16.585938 0.769531 19.820312 2.109375 22.203125 4.492188 C 24.589844 6.878906 25.929688 10.113281 25.929688 13.484375 L 25.929688 132.285156 C 25.929688 135.65625 24.589844 138.890625 22.203125 141.277344 C 19.820312 143.660156 16.585938 145 13.210938 145 C 9.839844 145 6.605469 143.660156 4.222656 141.277344 C 1.835938 138.890625 0.496094 135.65625 0.496094 132.285156 L 0.496094 13.484375 C 0.496094 10.113281 1.835938 6.878906 4.222656 4.492188 C 6.605469 2.109375 9.839844 0.769531 13.210938 0.769531 Z M 13.210938 0.769531 " clip-rule="nonzero"/></clipPath><clipPath id="7356b0e831"><rect x="0" width="26" y="0" height="145"/></clipPath><clipPath id="a7b7c21260"><path d="M 208.761719 29.066406 L 234.195312 29.066406 L 234.195312 179.878906 L 208.761719 179.878906 Z M 208.761719 29.066406 " clip-rule="nonzero"/></clipPath><clipPath id="dd52fe3d78"><path d="M 221.480469 29.066406 C 224.851562 29.066406 228.085938 30.40625 230.46875 32.792969 C 232.855469 35.175781 234.195312 38.410156 234.195312 41.785156 L 234.195312 167.121094 C 234.195312 170.492188 232.855469 173.726562 230.46875 176.113281 C 228.085938 178.496094 224.851562 179.835938 221.480469 179.835938 C 218.105469 179.835938 214.871094 178.496094 212.488281 176.113281 C 210.101562 173.726562 208.761719 170.492188 208.761719 167.121094 L 208.761719 41.785156 C 208.761719 38.410156 210.101562 35.175781 212.488281 32.792969 C 214.871094 30.40625 218.105469 29.066406 221.480469 29.066406 Z M 221.480469 29.066406 " clip-rule="nonzero"/></clipPath><clipPath id="35a5b4c5e7"><path d="M 0.761719 0.0664062 L 26.195312 0.0664062 L 26.195312 150.878906 L 0.761719 150.878906 Z M 0.761719 0.0664062 " clip-rule="nonzero"/></clipPath><clipPath id="580cf6a505"><path d="M 13.480469 0.0664062 C 16.851562 0.0664062 20.085938 1.40625 22.46875 3.792969 C 24.855469 6.175781 26.195312 9.410156 26.195312 12.785156 L 26.195312 138.121094 C 26.195312 141.492188 24.855469 144.726562 22.46875 147.113281 C 20.085938 149.496094 16.851562 150.835938 13.480469 150.835938 C 10.105469 150.835938 6.871094 149.496094 4.488281 147.113281 C 2.101562 144.726562 0.761719 141.492188 0.761719 138.121094 L 0.761719 12.785156 C 0.761719 9.410156 2.101562 6.175781 4.488281 3.792969 C 6.871094 1.40625 10.105469 0.0664062 13.480469 0.0664062 Z M 13.480469 0.0664062 " clip-rule="nonzero"/></clipPath><clipPath id="d84d72c8fa"><rect x="0" width="27" y="0" height="151"/></clipPath><clipPath id="1eb6a9ee4b"><path d="M 173.761719 7.644531 L 199.195312 7.644531 L 199.195312 179.914062 L 173.761719 179.914062 Z M 173.761719 7.644531 " clip-rule="nonzero"/></clipPath><clipPath id="df6215d4d5"><path d="M 186.476562 7.644531 C 189.851562 7.644531 193.085938 8.984375 195.46875 11.371094 C 197.855469 13.753906 199.195312 16.988281 199.195312 20.363281 L 199.195312 167.121094 C 199.195312 170.492188 197.855469 173.726562 195.46875 176.113281 C 193.085938 178.496094 189.851562 179.835938 186.476562 179.835938 C 183.105469 179.835938 179.871094 178.496094 177.484375 176.113281 C 175.101562 173.726562 173.761719 170.492188 173.761719 167.121094 L 173.761719 20.363281 C 173.761719 16.988281 175.101562 13.753906 177.484375 11.371094 C 179.871094 8.984375 183.105469 7.644531 186.476562 7.644531 Z M 186.476562 7.644531 " clip-rule="nonzero"/></clipPath><clipPath id="0baad74bb5"><path d="M 0.761719 0.644531 L 26.195312 0.644531 L 26.195312 172.914062 L 0.761719 172.914062 Z M 0.761719 0.644531 " clip-rule="nonzero"/></clipPath><clipPath id="3fa413998e"><path d="M 13.476562 0.644531 C 16.851562 0.644531 20.085938 1.984375 22.46875 4.371094 C 24.855469 6.753906 26.195312 9.988281 26.195312 13.363281 L 26.195312 160.121094 C 26.195312 163.492188 24.855469 166.726562 22.46875 169.113281 C 20.085938 171.496094 16.851562 172.835938 13.476562 172.835938 C 10.105469 172.835938 6.871094 171.496094 4.484375 169.113281 C 2.101562 166.726562 0.761719 163.492188 0.761719 160.121094 L 0.761719 13.363281 C 0.761719 9.988281 2.101562 6.753906 4.484375 4.371094 C 6.871094 1.984375 10.105469 0.644531 13.476562 0.644531 Z M 13.476562 0.644531 " clip-rule="nonzero"/></clipPath><clipPath id="4a469c34b4"><rect x="0" width="27" y="0" height="173"/></clipPath><clipPath id="c7aa88c9af"><path d="M 105.507812 0.28125 L 130.941406 0.28125 L 130.941406 93.769531 L 105.507812 93.769531 Z M 105.507812 0.28125 " clip-rule="nonzero"/></clipPath><clipPath id="950a7181cb"><path d="M 118.222656 0.28125 C 121.59375 0.28125 124.828125 1.621094 127.214844 4.007812 C 129.601562 6.390625 130.941406 9.625 130.941406 13 L 130.941406 81.023438 C 130.941406 84.398438 129.601562 87.632812 127.214844 90.015625 C 124.828125 92.402344 121.59375 93.742188 118.222656 93.742188 C 114.851562 93.742188 111.617188 92.402344 109.230469 90.015625 C 106.847656 87.632812 105.507812 84.398438 105.507812 81.023438 L 105.507812 13 C 105.507812 9.625 106.847656 6.390625 109.230469 4.007812 C 111.617188 1.621094 114.851562 0.28125 118.222656 0.28125 Z M 118.222656 0.28125 " clip-rule="nonzero"/></clipPath><clipPath id="c2cb7f798c"><path d="M 0.507812 0.28125 L 25.941406 0.28125 L 25.941406 93.769531 L 0.507812 93.769531 Z M 0.507812 0.28125 " clip-rule="nonzero"/></clipPath><clipPath id="be2893a847"><path d="M 13.222656 0.28125 C 16.59375 0.28125 19.828125 1.621094 22.214844 4.007812 C 24.601562 6.390625 25.941406 9.625 25.941406 13 L 25.941406 81.023438 C 25.941406 84.398438 24.601562 87.632812 22.214844 90.015625 C 19.828125 92.402344 16.59375 93.742188 13.222656 93.742188 C 9.851562 93.742188 6.617188 92.402344 4.230469 90.015625 C 1.847656 87.632812 0.507812 84.398438 0.507812 81.023438 L 0.507812 13 C 0.507812 9.625 1.847656 6.390625 4.230469 4.007812 C 6.617188 1.621094 9.851562 0.28125 13.222656 0.28125 Z M 13.222656 0.28125 " clip-rule="nonzero"/></clipPath><clipPath id="26641d0128"><rect x="0" width="26" y="0" height="94"/></clipPath><clipPath id="1d8806a75a"><path d="M 138.496094 0.28125 L 163.929688 0.28125 L 163.929688 93.769531 L 138.496094 93.769531 Z M 138.496094 0.28125 " clip-rule="nonzero"/></clipPath><clipPath id="2a6580aaeb"><path d="M 151.210938 0.28125 C 154.585938 0.28125 157.820312 1.621094 160.203125 4.007812 C 162.589844 6.390625 163.929688 9.625 163.929688 13 L 163.929688 81.023438 C 163.929688 84.398438 162.589844 87.632812 160.203125 90.015625 C 157.820312 92.402344 154.585938 93.742188 151.210938 93.742188 C 147.839844 93.742188 144.605469 92.402344 142.222656 90.015625 C 139.835938 87.632812 138.496094 84.398438 138.496094 81.023438 L 138.496094 13 C 138.496094 9.625 139.835938 6.390625 142.222656 4.007812 C 144.605469 1.621094 147.839844 0.28125 151.210938 0.28125 Z M 151.210938 0.28125 " clip-rule="nonzero"/></clipPath><clipPath id="4f84d351fe"><path d="M 0.496094 0.28125 L 25.929688 0.28125 L 25.929688 93.769531 L 0.496094 93.769531 Z M 0.496094 0.28125 " clip-rule="nonzero"/></clipPath><clipPath id="9d2e62a44f"><path d="M 13.210938 0.28125 C 16.585938 0.28125 19.820312 1.621094 22.203125 4.007812 C 24.589844 6.390625 25.929688 9.625 25.929688 13 L 25.929688 81.023438 C 25.929688 84.398438 24.589844 87.632812 22.203125 90.015625 C 19.820312 92.402344 16.585938 93.742188 13.210938 93.742188 C 9.839844 93.742188 6.605469 92.402344 4.222656 90.015625 C 1.835938 87.632812 0.496094 84.398438 0.496094 81.023438 L 0.496094 13 C 0.496094 9.625 1.835938 6.390625 4.222656 4.007812 C 6.605469 1.621094 9.839844 0.28125 13.210938 0.28125 Z M 13.210938 0.28125 " clip-rule="nonzero"/></clipPath><clipPath id="00e6d6e52c"><rect x="0" width="26" y="0" height="94"/></clipPath><clipPath id="720b4187d9"><path d="M 244.269531 66.390625 L 269.703125 66.390625 L 269.703125 179.847656 L 244.269531 179.847656 Z M 244.269531 66.390625 " clip-rule="nonzero"/></clipPath><clipPath id="e0ba5ac27c"><path d="M 256.988281 66.390625 C 260.359375 66.390625 263.59375 67.730469 265.980469 70.117188 C 268.363281 72.5 269.703125 75.734375 269.703125 79.109375 L 269.703125 167.121094 C 269.703125 170.492188 268.363281 173.726562 265.980469 176.113281 C 263.59375 178.496094 260.359375 179.835938 256.988281 179.835938 C 253.613281 179.835938 250.378906 178.496094 247.996094 176.113281 C 245.609375 173.726562 244.269531 170.492188 244.269531 167.121094 L 244.269531 79.109375 C 244.269531 75.734375 245.609375 72.5 247.996094 70.117188 C 250.378906 67.730469 253.613281 66.390625 256.988281 66.390625 Z M 256.988281 66.390625 " clip-rule="nonzero"/></clipPath><clipPath id="e980964d09"><path d="M 0.269531 0.390625 L 25.703125 0.390625 L 25.703125 113.847656 L 0.269531 113.847656 Z M 0.269531 0.390625 " clip-rule="nonzero"/></clipPath><clipPath id="98db85faa9"><path d="M 12.988281 0.390625 C 16.359375 0.390625 19.59375 1.730469 21.980469 4.117188 C 24.363281 6.5 25.703125 9.734375 25.703125 13.109375 L 25.703125 101.121094 C 25.703125 104.492188 24.363281 107.726562 21.980469 110.113281 C 19.59375 112.496094 16.359375 113.835938 12.988281 113.835938 C 9.613281 113.835938 6.378906 112.496094 3.996094 110.113281 C 1.609375 107.726562 0.269531 104.492188 0.269531 101.121094 L 0.269531 13.109375 C 0.269531 9.734375 1.609375 6.5 3.996094 4.117188 C 6.378906 1.730469 9.613281 0.390625 12.988281 0.390625 Z M 12.988281 0.390625 " clip-rule="nonzero"/></clipPath><clipPath id="bbffda9524"><rect x="0" width="26" y="0" height="114"/></clipPath><clipPath id="4a21477e6f"><rect x="0" width="270" y="0" height="520"/></clipPath></defs><g clip-path="url(#0a1695afb2)"><g transform="matrix(1, 0, 0, 1, 0, -0.000000000000042435)"><g clip-path="url(#b5fee5814a)"><g clip-path="url(#df1ffd27c6)"><g clip-path="url(#7bec56bb61)"><rect x="-165" fill="url(#245edd7d68)" width="1080" height="1079.999992" y="-164.999999"/></g></g></g></g></g><g transform="matrix(1, 0, 0, 1, 240, 115)"><g clip-path="url(#4a21477e6f)"><g clip-path="url(#471c7c6728)"><g clip-path="url(#3833a96e8e)"><g transform="matrix(1, 0, 0, 1, -0.000000000000056843, 337)"><g clip-path="url(#66f90d2091)"><g clip-path="url(#f3cbbce50a)"><g clip-path="url(#79437ceca6)"><path fill="#000000" d="M 0.296875 0.796875 L 29.625 0.796875 L 29.625 131.628906 L 0.296875 131.628906 Z M 0.296875 0.796875 " fill-opacity="1" fill-rule="nonzero"/></g></g></g></g></g></g><g clip-path="url(#7704a56f93)"><g clip-path="url(#5850d5b98e)"><g transform="matrix(1, 0, 0, 1, 36, 337)"><g clip-path="url(#da0c9cc83b)"><g clip-path="url(#32232cb500)"><g clip-path="url(#4a42b95332)"><path fill="#000000" d="M 0 0.796875 L 25.429688 0.796875 L 25.429688 151.410156 L 0 151.410156 Z M 0 0.796875 " fill-opacity="1" fill-rule="nonzero"/></g></g></g></g></g></g><g clip-path="url(#30894c6b45)"><g clip-path="url(#ac513b5f31)"><g transform="matrix(1, 0, 0, 1, 68, 337)"><g clip-path="url(#6eefad84e8)"><g clip-path="url(#a8f5fd64a8)"><g clip-path="url(#d6c214a0ef)"><path fill="#000000" d="M 0.695312 0.796875 L 26.125 0.796875 L 26.125 177.734375 L 0.695312 177.734375 Z M 0.695312 0.796875 " fill-opacity="1" fill-rule="nonzero"/></g></g></g></g></g></g><g clip-path="url(#0653a821e1)"><g clip-path="url(#66da0e8038)"><g transform="matrix(1, 0, 0, 1, 208, 281)"><g clip-path="url(#97b1abf7e4)"><g clip-path="url(#a22b647370)"><g clip-path="url(#3f5916c969)"><path fill="#000000" d="M 0.761719 0.882812 L 26.195312 0.882812 L 26.195312 209.617188 L 0.761719 209.617188 Z M 0.761719 0.882812 " fill-opacity="1" fill-rule="nonzero"/></g></g></g></g></g></g><g clip-path="url(#ea03abf6c4)"><g clip-path="url(#d8cab99507)"><g transform="matrix(1, 0, 0, 1, 240, 329)"><g clip-path="url(#c1542604ae)"><g clip-path="url(#33fe7ddcd0)"><g clip-path="url(#8c9df522aa)"><path fill="#000000" d="M 0.449219 0.503906 L 25.882812 0.503906 L 25.882812 119.125 L 0.449219 119.125 Z M 0.449219 0.503906 " fill-opacity="1" fill-rule="nonzero"/></g></g></g></g></g></g><g clip-path="url(#75239b1a52)"><g clip-path="url(#2232b3a2ac)"><g transform="matrix(1, 0, 0, 1, 4, 74)"><g clip-path="url(#57a5101833)"><g clip-path="url(#7528d62679)"><g clip-path="url(#34c3987631)"><path fill="#000000" d="M 0.191406 0.113281 L 25.625 0.113281 L 25.625 118.734375 L 0.191406 118.734375 Z M 0.191406 0.113281 " fill-opacity="1" fill-rule="nonzero"/></g></g></g></g></g></g><g clip-path="url(#b87468f962)"><g clip-path="url(#79d75dc09f)"><g transform="matrix(1, 0, 0, 1, 136, 426)"><g clip-path="url(#8a2ff7c113)"><g clip-path="url(#20a55f66ae)"><g clip-path="url(#1963d60943)"><path fill="#000000" d="M 0.949219 0.257812 L 26.382812 0.257812 L 26.382812 93.746094 L 0.949219 93.746094 Z M 0.949219 0.257812 " fill-opacity="1" fill-rule="nonzero"/></g></g></g></g></g></g><g clip-path="url(#80963d28cb)"><g clip-path="url(#fcea07cf1f)"><g transform="matrix(1, 0, 0, 1, 104, 426)"><g clip-path="url(#417557f4ef)"><g clip-path="url(#391fb8139a)"><g clip-path="url(#491c6c0ebe)"><path fill="#000000" d="M 0.203125 0.257812 L 25.636719 0.257812 L 25.636719 93.746094 L 0.203125 93.746094 Z M 0.203125 0.257812 " fill-opacity="1" fill-rule="nonzero"/></g></g></g></g></g></g><g clip-path="url(#2baea15f95)"><g clip-path="url(#9feec7b926)"><g transform="matrix(1, 0, 0, 1, 172, 249)"><g clip-path="url(#92d8c47197)"><g clip-path="url(#4e4a25519d)"><g clip-path="url(#b618566a0f)"><path fill="#000000" d="M 0.457031 0.421875 L 25.890625 0.421875 L 25.890625 265.683594 L 0.457031 265.683594 Z M 0.457031 0.421875 " fill-opacity="1" fill-rule="nonzero"/></g></g></g></g></g></g><g clip-path="url(#488a2425d6)"><g clip-path="url(#d1e76cf36d)"><g transform="matrix(1, 0, 0, 1, 72, 7)"><g clip-path="url(#3c24f0498e)"><g clip-path="url(#38328f22e1)"><g clip-path="url(#df25188dbf)"><path fill="#000000" d="M 0.515625 0.644531 L 25.949219 0.644531 L 25.949219 265.90625 L 0.515625 265.90625 Z M 0.515625 0.644531 " fill-opacity="1" fill-rule="nonzero"/></g></g></g></g></g></g><g clip-path="url(#25a542c39e)"><g clip-path="url(#8986f58311)"><g transform="matrix(1, 0, 0, 1, 39, 29)"><g clip-path="url(#59826ea16e)"><g clip-path="url(#498bed0182)"><g clip-path="url(#05e7a8ee1e)"><path fill="#000000" d="M 0.210938 0.0664062 L 25.644531 0.0664062 L 25.644531 208.800781 L 0.210938 208.800781 Z M 0.210938 0.0664062 " fill-opacity="1" fill-rule="nonzero"/></g></g></g></g></g></g><g clip-path="url(#aedc7d817c)"><g clip-path="url(#15c4114b14)"><g transform="matrix(1, 0, 0, 1, 105, 168)"><g clip-path="url(#ef829992bf)"><g clip-path="url(#46242b476f)"><g clip-path="url(#40c7ac0633)"><path fill="#000000" d="M 0.507812 0.4375 L 25.941406 0.4375 L 25.941406 144.691406 L 0.507812 144.691406 Z M 0.507812 0.4375 " fill-opacity="1" fill-rule="nonzero"/></g></g></g></g></g></g><g clip-path="url(#d2bdb1dcdb)"><g clip-path="url(#7c99bb3c8c)"><g transform="matrix(1, 0, 0, 1, 138, 209)"><g clip-path="url(#7356b0e831)"><g clip-path="url(#6991d4f6c5)"><g clip-path="url(#a745656ea4)"><path fill="#000000" d="M 0.496094 0.769531 L 25.929688 0.769531 L 25.929688 145.023438 L 0.496094 145.023438 Z M 0.496094 0.769531 " fill-opacity="1" fill-rule="nonzero"/></g></g></g></g></g></g><g clip-path="url(#a7b7c21260)"><g clip-path="url(#dd52fe3d78)"><g transform="matrix(1, 0, 0, 1, 208, 29)"><g clip-path="url(#d84d72c8fa)"><g clip-path="url(#35a5b4c5e7)"><g clip-path="url(#580cf6a505)"><path fill="#000000" d="M 0.761719 0.0664062 L 26.195312 0.0664062 L 26.195312 150.878906 L 0.761719 150.878906 Z M 0.761719 0.0664062 " fill-opacity="1" fill-rule="nonzero"/></g></g></g></g></g></g><g clip-path="url(#1eb6a9ee4b)"><g clip-path="url(#df6215d4d5)"><g transform="matrix(1, 0, 0, 1, 173, 7)"><g clip-path="url(#4a469c34b4)"><g clip-path="url(#0baad74bb5)"><g clip-path="url(#3fa413998e)"><path fill="#000000" d="M 0.761719 0.644531 L 26.195312 0.644531 L 26.195312 172.816406 L 0.761719 172.816406 Z M 0.761719 0.644531 " fill-opacity="1" fill-rule="nonzero"/></g></g></g></g></g></g><g clip-path="url(#c7aa88c9af)"><g clip-path="url(#950a7181cb)"><g transform="matrix(1, 0, 0, 1, 105, -0.000000000000071054)"><g clip-path="url(#26641d0128)"><g clip-path="url(#c2cb7f798c)"><g clip-path="url(#be2893a847)"><path fill="#000000" d="M 0.507812 0.28125 L 25.941406 0.28125 L 25.941406 93.769531 L 0.507812 93.769531 Z M 0.507812 0.28125 " fill-opacity="1" fill-rule="nonzero"/></g></g></g></g></g></g><g clip-path="url(#1d8806a75a)"><g clip-path="url(#2a6580aaeb)"><g transform="matrix(1, 0, 0, 1, 138, -0.000000000000071054)"><g clip-path="url(#00e6d6e52c)"><g clip-path="url(#4f84d351fe)"><g clip-path="url(#9d2e62a44f)"><path fill="#000000" d="M 0.496094 0.28125 L 25.929688 0.28125 L 25.929688 93.769531 L 0.496094 93.769531 Z M 0.496094 0.28125 " fill-opacity="1" fill-rule="nonzero"/></g></g></g></g></g></g><g clip-path="url(#720b4187d9)"><g clip-path="url(#e0ba5ac27c)"><g transform="matrix(1, 0, 0, 1, 244, 66)"><g clip-path="url(#bbffda9524)"><g clip-path="url(#e980964d09)"><g clip-path="url(#98db85faa9)"><path fill="#000000" d="M 0.269531 0.390625 L 25.703125 0.390625 L 25.703125 113.847656 L 0.269531 113.847656 Z M 0.269531 0.390625 " fill-opacity="1" fill-rule="nonzero"/></g></g></g></g></g></g></g></g></svg>